Space-Mono-Regular.ufo
<glyph name="numbersign" format="1">
  <advance width="612"/>
  <unicode hex="0023"/>
  <outline>
    <contour>
      <point x="432" y="102" type="line"/>
      <point x="432" y="224" type="line"/>
      <point x="542" y="224" type="line"/>
      <point x="542" y="296" type="line"/>
      <point x="432" y="296" type="line"/>
      <point x="432" y="404" type="line"/>
      <point x="542" y="404" type="line"/>
      <point x="542" y="476" type="line"/>
      <point x="432" y="476" type="line"/>
      <point x="432" y="598" type="line"/>
      <point x="360" y="598" type="line"/>
      <point x="360" y="476" type="line"/>
      <point x="252" y="476" type="line"/>
      <point x="252" y="598" type="line"/>
      <point x="180" y="598" type="line"/>
      <point x="180" y="476" type="line"/>
      <point x="70" y="476" type="line"/>
      <point x="70" y="404" type="line"/>
      <point x="180" y="404" type="line"/>
      <point x="180" y="296" type="line"/>
      <point x="70" y="296" type="line"/>
      <point x="70" y="224" type="line"/>
      <point x="180" y="224" type="line"/>
      <point x="180" y="102" type="line"/>
      <point x="252" y="102" type="line"/>
      <point x="252" y="224" type="line"/>
      <point x="360" y="224" type="line"/>
      <point x="360" y="102" type="line"/>
    </contour>
    <contour>
      <point x="360" y="296" type="line"/>
      <point x="252" y="296" type="line"/>
      <point x="252" y="404" type="line"/>
      <point x="360" y="404" type="line"/>
    </contour>
  </outline>
</glyph>
<glyph name="dollar" format="1">
  <advance width="612"/>
  <unicode hex="0024"/>
  <outline>
    <contour>
      <point x="334" y="672" type="line"/>
      <point x="262" y="672" type="line"/>
      <point x="262" y="610" type="line"/>
      <point x="180" y="602"/>
      <point x="108" y="555"/>
      <point x="108" y="470" type="curve" smooth="yes"/>
      <point x="108" y="464" type="line" smooth="yes"/>
      <point x="108" y="384"/>
      <point x="163" y="340"/>
      <point x="262" y="327" type="curve"/>
      <point x="262" y="164" type="line"/>
      <point x="204" y="177"/>
      <point x="170" y="216"/>
      <point x="170" y="280" type="curve" smooth="yes"/>
      <point x="170" y="292" type="line"/>
      <point x="94" y="292" type="line"/>
      <point x="94" y="268" type="line" smooth="yes"/>
      <point x="94" y="192"/>
      <point x="146" y="109"/>
      <point x="262" y="91" type="curve"/>
      <point x="262" y="28" type="line"/>
      <point x="334" y="28" type="line"/>
      <point x="334" y="89" type="line"/>
      <point x="436" y="96"/>
      <point x="504" y="153"/>
      <point x="504" y="242" type="curve" smooth="yes"/>
      <point x="504" y="248" type="line" smooth="yes"/>
      <point x="504" y="330"/>
      <point x="444" y="378"/>
      <point x="334" y="391" type="curve"/>
      <point x="334" y="534" type="line"/>
      <point x="380" y="522"/>
      <point x="412" y="490"/>
      <point x="412" y="446" type="curve" smooth="yes"/>
      <point x="412" y="434" type="line"/>
      <point x="488" y="434" type="line"/>
      <point x="488" y="452" type="line" smooth="yes"/>
      <point x="488" y="526"/>
      <point x="428" y="592"/>
      <point x="334" y="608" type="curve"/>
    </contour>
    <contour>
      <point x="426" y="242" type="curve" smooth="yes"/>
      <point x="426" y="197"/>
      <point x="391" y="168"/>
      <point x="334" y="161" type="curve"/>
      <point x="334" y="319" type="line"/>
      <point x="398" y="309"/>
      <point x="426" y="288"/>
    </contour>
    <contour>
      <point x="186" y="470" type="curve" smooth="yes"/>
      <point x="186" y="509"/>
      <point x="220" y="531"/>
      <point x="262" y="538" type="curve"/>
      <point x="262" y="399" type="line"/>
      <point x="205" y="409"/>
      <point x="186" y="433"/>
    </contour>
  </outline>
</glyph>
<glyph name="percent" format="1">
  <advance width="612"/>
  <unicode hex="0025"/>
  <outline>
    <contour>
      <point x="346" y="556" type="curve" smooth="yes"/>
      <point x="346" y="651"/>
      <point x="276" y="706"/>
      <point x="199" y="706" type="curve" smooth="yes"/>
      <point x="122" y="706"/>
      <point x="52" y="651"/>
      <point x="52" y="556" type="curve" smooth="yes"/>
      <point x="52" y="461"/>
      <point x="122" y="406"/>
      <point x="199" y="406" type="curve" smooth="yes"/>
      <point x="276" y="406"/>
      <point x="346" y="461"/>
    </contour>
    <contour>
      <point x="199" y="460" type="curve" smooth="yes"/>
      <point x="147" y="460"/>
      <point x="112" y="493"/>
      <point x="112" y="556" type="curve" smooth="yes"/>
      <point x="112" y="613"/>
      <point x="147" y="652"/>
      <point x="199" y="652" type="curve" smooth="yes"/>
      <point x="251" y="652"/>
      <point x="286" y="613"/>
      <point x="286" y="556" type="curve" smooth="yes"/>
      <point x="286" y="499"/>
      <point x="251" y="460"/>
    </contour>
    <contour>
      <point x="561" y="144" type="curve" smooth="yes"/>
      <point x="561" y="239"/>
      <point x="491" y="294"/>
      <point x="414" y="294" type="curve" smooth="yes"/>
      <point x="337" y="294"/>
      <point x="267" y="239"/>
      <point x="267" y="144" type="curve" smooth="yes"/>
      <point x="267" y="49"/>
      <point x="337" y="-6"/>
      <point x="414" y="-6" type="curve" smooth="yes"/>
      <point x="491" y="-6"/>
      <point x="561" y="49"/>
    </contour>
    <contour>
      <point x="414" y="48" type="curve" smooth="yes"/>
      <point x="362" y="48"/>
      <point x="327" y="81"/>
      <point x="327" y="144" type="curve" smooth="yes"/>
      <point x="327" y="201"/>
      <point x="362" y="240"/>
      <point x="414" y="240" type="curve" smooth="yes"/>
      <point x="466" y="240"/>
      <point x="501" y="201"/>
      <point x="501" y="144" type="curve" smooth="yes"/>
      <point x="501" y="87"/>
      <point x="466" y="48"/>
    </contour>
    <component base="fraction"/>
  </outline>
</glyph>
<glyph name="ampersand" format="1">
  <advance width="612"/>
  <unicode hex="0026"/>
  <outline>
    <contour>
      <point x="580" y="390" type="line"/>
      <point x="483" y="390" type="line"/>
      <point x="483" y="496" type="line"/>
      <point x="399" y="496" type="line"/>
      <point x="399" y="390" type="line"/>
      <point x="262" y="390" type="line" smooth="yes"/>
      <point x="182" y="390"/>
      <point x="132" y="434"/>
      <point x="132" y="506" type="curve" smooth="yes"/>
      <point x="132" y="512" type="line" smooth="yes"/>
      <point x="132" y="580"/>
      <point x="187" y="622"/>
      <point x="265" y="622" type="curve" smooth="yes"/>
      <point x="387" y="622" type="line"/>
      <point x="387" y="700" type="line"/>
      <point x="259" y="700" type="line" smooth="yes"/>
      <point x="125" y="700"/>
      <point x="52" y="622"/>
      <point x="52" y="518" type="curve" smooth="yes"/>
      <point x="52" y="506" type="line" smooth="yes"/>
      <point x="52" y="430"/>
      <point x="104" y="375"/>
      <point x="170" y="357" type="curve"/>
      <point x="170" y="345" type="line"/>
      <point x="104" y="327"/>
      <point x="52" y="270"/>
      <point x="52" y="195" type="curve" smooth="yes"/>
      <point x="52" y="183" type="line" smooth="yes"/>
      <point x="52" y="78"/>
      <point x="125" y="0"/>
      <point x="259" y="0" type="curve" smooth="yes"/>
      <point x="483" y="0" type="line"/>
      <point x="483" y="312" type="line"/>
      <point x="580" y="312" type="line"/>
    </contour>
    <contour>
      <point x="265" y="78" type="line" smooth="yes"/>
      <point x="187" y="78"/>
      <point x="132" y="120"/>
      <point x="132" y="189" type="curve" smooth="yes"/>
      <point x="132" y="195" type="line" smooth="yes"/>
      <point x="132" y="266"/>
      <point x="182" y="312"/>
      <point x="262" y="312" type="curve" smooth="yes"/>
      <point x="399" y="312" type="line"/>
      <point x="399" y="78" type="line"/>
    </contour>
  </outline>
</glyph>
<glyph name="quotesingle" format="1">
  <advance width="612"/>
  <unicode hex="0027"/>
  <outline>
    <contour>
      <point x="236" y="644" type="curve" smooth="yes"/>
      <point x="236" y="615"/>
      <point x="254" y="590"/>
      <point x="279" y="579" type="curve"/>
      <point x="279" y="468" type="line"/>
      <point x="333" y="468" type="line"/>
      <point x="333" y="579" type="line"/>
      <point x="358" y="590"/>
      <point x="376" y="615"/>
      <point x="376" y="644" type="curve" smooth="yes"/>
      <point x="376" y="682"/>
      <point x="344" y="714"/>
      <point x="306" y="714" type="curve" smooth="yes"/>
      <point x="268" y="714"/>
      <point x="236" y="682"/>
    </contour>
  </outline>
</glyph>
<glyph name="slash" format="1">
  <advance width="612"/>
  <unicode hex="002F"/>
  <outline>
    <contour>
      <point x="125" y="-84" type="line"/>
      <point x="196" y="-106" type="line"/>
      <point x="487" y="784" type="line"/>
      <point x="417" y="806" type="line"/>
    </contour>
  </outline>
</glyph>
<glyph name="two" format="1">
  <advance width="612"/>
  <unicode hex="0032"/>
  <outline>
    <contour>
      <point x="154" y="78" type="line"/>
      <point x="154" y="108" type="line" smooth="yes"/>
      <point x="154" y="196"/>
      <point x="213" y="236"/>
      <point x="340" y="264" type="curve" smooth="yes"/>
      <point x="486" y="296"/>
      <point x="550" y="375"/>
      <point x="550" y="481" type="curve" smooth="yes"/>
      <point x="550" y="499" type="line" smooth="yes"/>
      <point x="550" y="606"/>
      <point x="472" y="714"/>
      <point x="310" y="714" type="curve" smooth="yes"/>
      <point x="150" y="714"/>
      <point x="64" y="598"/>
      <point x="64" y="470" type="curve" smooth="yes"/>
      <point x="64" y="420" type="line"/>
      <point x="148" y="420" type="line"/>
      <point x="148" y="464" type="line" smooth="yes"/>
      <point x="148" y="568"/>
      <point x="208" y="636"/>
      <point x="310" y="636" type="curve" smooth="yes"/>
      <point x="420" y="636"/>
      <point x="466" y="562"/>
      <point x="466" y="490" type="curve" smooth="yes"/>
      <point x="466" y="484" type="line" smooth="yes"/>
      <point x="466" y="413"/>
      <point x="416" y="362"/>
      <point x="298" y="336" type="curve" smooth="yes"/>
      <point x="158" y="305"/>
      <point x="70" y="248"/>
      <point x="70" y="120" type="curve" smooth="yes"/>
      <point x="70" y="0" type="line"/>
      <point x="544" y="0" type="line"/>
      <point x="544" y="78" type="line"/>
    </contour>
  </outline>
</glyph>
<glyph name="five" format="1">
  <advance width="612"/>
  <unicode hex="0035"/>
  <outline>
    <contour>
      <point x="78" y="330" type="line"/>
      <point x="78" y="700" type="line"/>
      <point x="516" y="700" type="line"/>
      <point x="516" y="622" type="line"/>
      <point x="160" y="622" type="line"/>
      <point x="160" y="372" type="line"/>
      <point x="172" y="372" type="line"/>
      <point x="200" y="426"/>
      <point x="256" y="474"/>
      <point x="344" y="474" type="curve" smooth="yes"/>
      <point x="472" y="474"/>
      <point x="564" y="386"/>
      <point x="564" y="252" type="curve" smooth="yes"/>
      <point x="564" y="234" type="line" smooth="yes"/>
      <point x="564" y="102"/>
      <point x="478" y="-14"/>
      <point x="318" y="-14" type="curve" smooth="yes"/>
      <point x="156" y="-14"/>
      <point x="66" y="88"/>
      <point x="66" y="224" type="curve" smooth="yes"/>
      <point x="66" y="252" type="line"/>
      <point x="150" y="252" type="line"/>
      <point x="150" y="230" type="line" smooth="yes"/>
      <point x="150" y="120"/>
      <point x="218" y="64"/>
      <point x="318" y="64" type="curve" smooth="yes"/>
      <point x="426" y="64"/>
      <point x="480" y="148"/>
      <point x="480" y="242" type="curve" smooth="yes"/>
      <point x="480" y="248" type="line" smooth="yes"/>
      <point x="480" y="330"/>
      <point x="422" y="396"/>
      <point x="338" y="396" type="curve" smooth="yes"/>
      <point x="282" y="396"/>
      <point x="244" y="360"/>
      <point x="236" y="330" type="curve"/>
    </contour>
  </outline>
</glyph>
<glyph name="six" format="1">
  <advance width="612"/>
  <unicode hex="0036"/>
  <outline>
    <contour>
      <point x="537" y="496" type="line"/>
      <point x="537" y="630"/>
      <point x="438" y="714"/>
      <point x="304" y="714" type="curve" smooth="yes"/>
      <point x="172" y="714"/>
      <point x="63" y="620"/>
      <point x="63" y="472" type="curve" smooth="yes"/>
      <point x="63" y="217" type="line" smooth="yes"/>
      <point x="63" y="81"/>
      <point x="168" y="-14"/>
      <point x="306" y="-14" type="curve" smooth="yes"/>
      <point x="444" y="-14"/>
      <point x="549" y="82"/>
      <point x="549" y="220" type="curve" smooth="yes"/>
      <point x="549" y="232" type="line" smooth="yes"/>
      <point x="549" y="376"/>
      <point x="456" y="462"/>
      <point x="327" y="462" type="curve" smooth="yes"/>
      <point x="254" y="462"/>
      <point x="191" y="426"/>
      <point x="159" y="368" type="curve"/>
      <point x="147" y="368" type="line"/>
      <point x="147" y="472" type="line" smooth="yes"/>
      <point x="147" y="572"/>
      <point x="212" y="640"/>
      <point x="302" y="640" type="curve" smooth="yes"/>
      <point x="396" y="640"/>
      <point x="453" y="582"/>
      <point x="453" y="496" type="curve"/>
    </contour>
    <contour>
      <point x="306" y="60" type="curve"/>
      <point x="209" y="60"/>
      <point x="147" y="126"/>
      <point x="147" y="215" type="curve" smooth="yes"/>
      <point x="147" y="234" type="line" smooth="yes"/>
      <point x="147" y="320"/>
      <point x="216" y="388"/>
      <point x="306" y="388" type="curve" smooth="yes"/>
      <point x="398" y="388"/>
      <point x="465" y="323"/>
      <point x="465" y="230" type="curve" smooth="yes"/>
      <point x="465" y="218" type="line" smooth="yes"/>
      <point x="465" y="126"/>
      <point x="403" y="60"/>
    </contour>
  </outline>
</glyph>
<glyph name="seven" format="1">
  <advance width="612"/>
  <unicode hex="0037"/>
  <outline>
    <contour>
      <point x="72" y="622" type="line"/>
      <point x="468" y="622" type="line"/>
      <point x="468" y="610" type="line"/>
      <point x="181" y="180" type="line" smooth="yes"/>
      <point x="139" y="117"/>
      <point x="120" y="84"/>
      <point x="120" y="36" type="curve" smooth="yes"/>
      <point x="120" y="0" type="line"/>
      <point x="202" y="0" type="line"/>
      <point x="202" y="30" type="line" smooth="yes"/>
      <point x="202" y="62"/>
      <point x="217" y="90"/>
      <point x="245" y="132" type="curve" smooth="yes"/>
      <point x="540" y="578" type="line"/>
      <point x="540" y="700" type="line"/>
      <point x="72" y="700" type="line"/>
    </contour>
  </outline>
</glyph>
<glyph name="eight" format="1">
  <advance width="612"/>
  <unicode hex="0038"/>
  <outline>
    <contour>
      <point x="297" y="-14" type="curve"/>
      <point x="297" y="-14"/>
      <point x="315" y="-14"/>
      <point x="315" y="-14" type="curve"/>
      <point x="456" y="-14"/>
      <point x="549" y="68"/>
      <point x="549" y="176" type="curve" smooth="yes"/>
      <point x="549" y="188" type="line" smooth="yes"/>
      <point x="549" y="284"/>
      <point x="485" y="338"/>
      <point x="419" y="357" type="curve"/>
      <point x="419" y="369" type="line"/>
      <point x="479" y="389"/>
      <point x="531" y="442"/>
      <point x="531" y="520" type="curve" smooth="yes"/>
      <point x="531" y="532" type="line" smooth="yes"/>
      <point x="531" y="638"/>
      <point x="441" y="714"/>
      <point x="309" y="714" type="curve" smooth="yes"/>
      <point x="309" y="714"/>
      <point x="303" y="714"/>
      <point x="303" y="714" type="curve" smooth="yes"/>
      <point x="171" y="714"/>
      <point x="81" y="638"/>
      <point x="81" y="532" type="curve" smooth="yes"/>
      <point x="81" y="520" type="line" smooth="yes"/>
      <point x="81" y="442"/>
      <point x="133" y="389"/>
      <point x="193" y="369" type="curve"/>
      <point x="193" y="357" type="line"/>
      <point x="127" y="338"/>
      <point x="63" y="284"/>
      <point x="63" y="188" type="curve" smooth="yes"/>
      <point x="63" y="176" type="line" smooth="yes"/>
      <point x="63" y="68"/>
      <point x="156" y="-14"/>
    </contour>
    <contour>
      <point x="300" y="62" type="line" smooth="yes"/>
      <point x="210" y="62"/>
      <point x="147" y="114"/>
      <point x="147" y="188" type="curve" smooth="yes"/>
      <point x="147" y="194" type="line" smooth="yes"/>
      <point x="147" y="276"/>
      <point x="211" y="324"/>
      <point x="303" y="324" type="curve" smooth="yes"/>
      <point x="303" y="324"/>
      <point x="309" y="324"/>
      <point x="309" y="324" type="curve" smooth="yes"/>
      <point x="401" y="324"/>
      <point x="465" y="276"/>
      <point x="465" y="194" type="curve" smooth="yes"/>
      <point x="465" y="188" type="line" smooth="yes"/>
      <point x="465" y="114"/>
      <point x="402" y="62"/>
      <point x="312" y="62" type="curve" smooth="yes"/>
    </contour>
    <contour>
      <point x="306" y="402" type="curve" smooth="yes"/>
      <point x="223" y="402"/>
      <point x="165" y="452"/>
      <point x="165" y="518" type="curve" smooth="yes"/>
      <point x="165" y="524" type="line" smooth="yes"/>
      <point x="165" y="592"/>
      <point x="221" y="638"/>
      <point x="306" y="638" type="curve" smooth="yes"/>
      <point x="391" y="638"/>
      <point x="447" y="592"/>
      <point x="447" y="524" type="curve" smooth="yes"/>
      <point x="447" y="518" type="line" smooth="yes"/>
      <point x="447" y="452"/>
      <point x="389" y="402"/>
    </contour>
  </outline>
</glyph>
<glyph name="less" format="1">
  <advance width="612"/>
  <unicode hex="003C"/>
  <outline>
    <contour>
      <point x="515" y="130" type="line"/>
      <point x="515" y="214" type="line"/>
      <point x="127" y="344" type="line"/>
      <point x="127" y="356" type="line"/>
      <point x="515" y="486" type="line"/>
      <point x="515" y="570" type="line"/>
      <point x="97" y="426" type="line"/>
      <point x="97" y="274" type="line"/>
    </contour>
  </outline>
</glyph>
<glyph name="B" format="1">
  <advance width="612"/>
  <unicode hex="0042"/>
  <outline>
    <contour>
      <point x="57" y="0" type="line"/>
      <point x="340" y="0" type="line" smooth="yes"/>
      <point x="474" y="0"/>
      <point x="547" y="78"/>
      <point x="547" y="183" type="curve" smooth="yes"/>
      <point x="547" y="195" type="line" smooth="yes"/>
      <point x="547" y="270"/>
      <point x="495" y="327"/>
      <point x="429" y="345" type="curve"/>
      <point x="429" y="357" type="line"/>
      <point x="495" y="375"/>
      <point x="547" y="430"/>
      <point x="547" y="506" type="curve" smooth="yes"/>
      <point x="547" y="518" type="line" smooth="yes"/>
      <point x="547" y="622"/>
      <point x="474" y="700"/>
      <point x="340" y="700" type="curve" smooth="yes"/>
      <point x="57" y="700" type="line"/>
      <point x="57" y="622" type="line"/>
      <point x="117" y="622" type="line"/>
      <point x="117" y="78" type="line"/>
      <point x="57" y="78" type="line"/>
    </contour>
    <contour>
      <point x="201" y="312" type="line"/>
      <point x="337" y="312" type="line" smooth="yes"/>
      <point x="417" y="312"/>
      <point x="467" y="266"/>
      <point x="467" y="195" type="curve" smooth="yes"/>
      <point x="467" y="189" type="line" smooth="yes"/>
      <point x="467" y="120"/>
      <point x="412" y="78"/>
      <point x="334" y="78" type="curve" smooth="yes"/>
      <point x="201" y="78" type="line"/>
    </contour>
    <contour>
      <point x="201" y="622" type="line"/>
      <point x="334" y="622" type="line" smooth="yes"/>
      <point x="412" y="622"/>
      <point x="467" y="580"/>
      <point x="467" y="512" type="curve" smooth="yes"/>
      <point x="467" y="506" type="line" smooth="yes"/>
      <point x="467" y="434"/>
      <point x="417" y="390"/>
      <point x="337" y="390" type="curve" smooth="yes"/>
      <point x="201" y="390" type="line"/>
    </contour>
  </outline>
</glyph>
<glyph name="C" format="1">
  <advance width="612"/>
  <unicode hex="0043"/>
  <outline>
    <contour>
      <point x="310" y="64" type="curve" smooth="yes"/>
      <point x="202" y="64"/>
      <point x="148" y="142"/>
      <point x="148" y="278" type="curve" smooth="yes"/>
      <point x="148" y="422" type="line" smooth="yes"/>
      <point x="148" y="550"/>
      <point x="202" y="636"/>
      <point x="310" y="636" type="curve" smooth="yes"/>
      <point x="424" y="636"/>
      <point x="470" y="552"/>
      <point x="472" y="460" type="curve"/>
      <point x="472" y="448" type="line"/>
      <point x="556" y="448" type="line"/>
      <point x="556" y="460" type="line"/>
      <point x="556" y="602"/>
      <point x="470" y="714"/>
      <point x="310" y="714" type="curve" smooth="yes"/>
      <point x="156" y="714"/>
      <point x="64" y="608"/>
      <point x="64" y="428" type="curve" smooth="yes"/>
      <point x="64" y="272" type="line" smooth="yes"/>
      <point x="64" y="86"/>
      <point x="156" y="-14"/>
      <point x="310" y="-14" type="curve" smooth="yes"/>
      <point x="470" y="-14"/>
      <point x="556" y="98"/>
      <point x="556" y="240" type="curve" smooth="yes"/>
      <point x="556" y="252" type="line"/>
      <point x="472" y="252" type="line"/>
      <point x="472" y="240" type="line" smooth="yes"/>
      <point x="472" y="148"/>
      <point x="424" y="64"/>
    </contour>
  </outline>
</glyph>
<glyph name="D" format="1">
  <advance width="612"/>
  <unicode hex="0044"/>
  <outline>
    <contour>
      <point x="73" y="622" type="line"/>
      <point x="133" y="622" type="line"/>
      <point x="133" y="79" type="line"/>
      <point x="73" y="79" type="line"/>
      <point x="73" y="0" type="line"/>
      <point x="303" y="0" type="line" smooth="yes"/>
      <point x="475" y="0"/>
      <point x="553" y="80"/>
      <point x="553" y="260" type="curve" smooth="yes"/>
      <point x="553" y="440" type="line" smooth="yes"/>
      <point x="553" y="620"/>
      <point x="475" y="700"/>
      <point x="303" y="700" type="curve" smooth="yes"/>
      <point x="73" y="700" type="line"/>
    </contour>
    <contour>
      <point x="291" y="78" type="curve"/>
      <point x="217" y="78" type="line"/>
      <point x="217" y="622" type="line"/>
      <point x="291" y="622" type="line" smooth="yes"/>
      <point x="413" y="622"/>
      <point x="469" y="580"/>
      <point x="469" y="434" type="curve" smooth="yes"/>
      <point x="469" y="266" type="line" smooth="yes"/>
      <point x="469" y="120"/>
      <point x="413" y="78"/>
    </contour>
  </outline>
</glyph>
<glyph name="E" format="1">
  <advance width="612"/>
  <unicode hex="0045"/>
  <outline>
    <contour>
      <point x="94" y="0" type="line"/>
      <point x="524" y="0" type="line"/>
      <point x="524" y="78" type="line"/>
      <point x="178" y="78" type="line"/>
      <point x="178" y="312" type="line"/>
      <point x="512" y="312" type="line"/>
      <point x="512" y="390" type="line"/>
      <point x="178" y="390" type="line"/>
      <point x="178" y="622" type="line"/>
      <point x="518" y="622" type="line"/>
      <point x="518" y="700" type="line"/>
      <point x="94" y="700" type="line"/>
    </contour>
  </outline>
</glyph>
<glyph name="H" format="1">
  <advance width="612"/>
  <unicode hex="0048"/>
  <outline>
    <contour>
      <point x="73" y="0" type="line"/>
      <point x="157" y="0" type="line"/>
      <point x="157" y="312" type="line"/>
      <point x="455" y="312" type="line"/>
      <point x="455" y="0" type="line"/>
      <point x="539" y="0" type="line"/>
      <point x="539" y="700" type="line"/>
      <point x="455" y="700" type="line"/>
      <point x="455" y="390" type="line"/>
      <point x="157" y="390" type="line"/>
      <point x="157" y="700" type="line"/>
      <point x="73" y="700" type="line"/>
    </contour>
  </outline>
</glyph>
<glyph name="L" format="1">
  <advance width="612"/>
  <unicode hex="004C"/>
  <outline>
    <contour>
      <point x="87" y="0" type="line"/>
      <point x="537" y="0" type="line"/>
      <point x="537" y="78" type="line"/>
      <point x="171" y="78" type="line"/>
      <point x="171" y="700" type="line"/>
      <point x="87" y="700" type="line"/>
    </contour>
  </outline>
</glyph>
<glyph name="N" format="1">
  <advance width="612"/>
  <unicode hex="004E"/>
  <outline>
    <contour>
      <point x="241" y="700" type="line"/>
      <point x="73" y="700" type="line"/>
      <point x="73" y="0" type="line"/>
      <point x="157" y="0" type="line"/>
      <point x="157" y="664" type="line"/>
      <point x="169" y="664" type="line"/>
      <point x="371" y="0" type="line"/>
      <point x="539" y="0" type="line"/>
      <point x="539" y="700" type="line"/>
      <point x="455" y="700" type="line"/>
      <point x="455" y="36" type="line"/>
      <point x="443" y="36" type="line"/>
    </contour>
  </outline>
</glyph>
<glyph name="S" format="1">
  <advance width="612"/>
  <unicode hex="0053"/>
  <outline>
    <contour>
      <point x="471" y="462" type="line"/>
      <point x="555" y="462" type="line"/>
      <point x="555" y="504" type="line" smooth="yes"/>
      <point x="555" y="617"/>
      <point x="464" y="714"/>
      <point x="306" y="714" type="curve" smooth="yes"/>
      <point x="170" y="714"/>
      <point x="75" y="637"/>
      <point x="75" y="528" type="curve" smooth="yes"/>
      <point x="75" y="516" type="line" smooth="yes"/>
      <point x="75" y="396"/>
      <point x="165" y="342"/>
      <point x="305" y="322" type="curve" smooth="yes"/>
      <point x="426" y="305"/>
      <point x="477" y="269"/>
      <point x="477" y="196" type="curve" smooth="yes"/>
      <point x="477" y="190" type="line" smooth="yes"/>
      <point x="477" y="115"/>
      <point x="424" y="64"/>
      <point x="320" y="64" type="curve" smooth="yes"/>
      <point x="201" y="64"/>
      <point x="129" y="126"/>
      <point x="129" y="248" type="curve" smooth="yes"/>
      <point x="129" y="272" type="line"/>
      <point x="45" y="272" type="line"/>
      <point x="45" y="242" type="line" smooth="yes"/>
      <point x="45" y="96"/>
      <point x="141" y="-14"/>
      <point x="320" y="-14" type="curve" smooth="yes"/>
      <point x="477" y="-14"/>
      <point x="561" y="69"/>
      <point x="561" y="190" type="curve" smooth="yes"/>
      <point x="561" y="202" type="line" smooth="yes"/>
      <point x="561" y="308"/>
      <point x="493" y="372"/>
      <point x="347" y="394" type="curve" smooth="yes"/>
      <point x="222" y="413"/>
      <point x="159" y="442"/>
      <point x="159" y="519" type="curve" smooth="yes"/>
      <point x="159" y="525" type="line" smooth="yes"/>
      <point x="159" y="596"/>
      <point x="229" y="636"/>
      <point x="305" y="636" type="curve" smooth="yes"/>
      <point x="393" y="636"/>
      <point x="471" y="589"/>
      <point x="471" y="498" type="curve" smooth="yes"/>
    </contour>
  </outline>
</glyph>
<glyph name="W" format="1">
  <advance width="612"/>
  <unicode hex="0057"/>
  <outline>
    <contour>
      <point x="601" y="700" type="line"/>
      <point x="525" y="700" type="line"/>
      <point x="458" y="36" type="line"/>
      <point x="446" y="36" type="line"/>
      <point x="383" y="700" type="line"/>
      <point x="229" y="700" type="line"/>
      <point x="166" y="36" type="line"/>
      <point x="154" y="36" type="line"/>
      <point x="87" y="700" type="line"/>
      <point x="11" y="700" type="line"/>
      <point x="82" y="0" type="line"/>
      <point x="235" y="0" type="line"/>
      <point x="300" y="664" type="line"/>
      <point x="312" y="664" type="line"/>
      <point x="377" y="0" type="line"/>
      <point x="530" y="0" type="line"/>
    </contour>
  </outline>
</glyph>
<glyph name="X" format="1">
  <advance width="612"/>
  <unicode hex="0058"/>
  <outline>
    <contour>
      <point x="48" y="700" type="line"/>
      <point x="223" y="357" type="line"/>
      <point x="223" y="345" type="line"/>
      <point x="48" y="0" type="line"/>
      <point x="140" y="0" type="line"/>
      <point x="297" y="312" type="line"/>
      <point x="315" y="312" type="line"/>
      <point x="472" y="0" type="line"/>
      <point x="564" y="0" type="line"/>
      <point x="389" y="345" type="line"/>
      <point x="389" y="357" type="line"/>
      <point x="564" y="700" type="line"/>
      <point x="472" y="700" type="line"/>
      <point x="315" y="390" type="line"/>
      <point x="297" y="390" type="line"/>
      <point x="140" y="700" type="line"/>
    </contour>
  </outline>
</glyph>
<glyph name="backslash" format="1">
  <advance width="612"/>
  <unicode hex="005C"/>
  <outline>
    <contour>
      <point x="195" y="806" type="line"/>
      <point x="125" y="784" type="line"/>
      <point x="416" y="-106" type="line"/>
      <point x="487" y="-84" type="line"/>
    </contour>
  </outline>
</glyph>
<glyph name="asciicircum" format="1">
  <advance width="612"/>
  <unicode hex="005E"/>
  <outline>
    <contour>
      <point x="382" y="700" type="line"/>
      <point x="230" y="700" type="line"/>
      <point x="72" y="424" type="line"/>
      <point x="164" y="424" type="line"/>
      <point x="300" y="670" type="line"/>
      <point x="312" y="670" type="line"/>
      <point x="448" y="424" type="line"/>
      <point x="540" y="424" type="line"/>
    </contour>
  </outline>
</glyph>
<glyph name="grave" format="1">
  <advance width="612"/>
  <unicode hex="0060"/>
  <outline>
    <contour>
      <point x="226" y="688" type="line"/>
      <point x="310" y="570" type="line"/>
      <point x="382" y="570" type="line"/>
      <point x="316" y="688" type="line"/>
    </contour>
  </outline>
</glyph>
<glyph name="c" format="1">
  <advance width="612"/>
  <unicode hex="0063"/>
  <outline>
    <contour>
      <point x="473" y="194" type="line"/>
      <point x="463" y="126"/>
      <point x="413" y="60"/>
      <point x="315" y="60" type="curve" smooth="yes"/>
      <point x="217" y="60"/>
      <point x="139" y="128"/>
      <point x="139" y="240" type="curve" smooth="yes"/>
      <point x="139" y="252" type="line" smooth="yes"/>
      <point x="139" y="360"/>
      <point x="217" y="436"/>
      <point x="313" y="436" type="curve" smooth="yes"/>
      <point x="411" y="436"/>
      <point x="463" y="372"/>
      <point x="471" y="302" type="curve"/>
      <point x="549" y="320" type="line"/>
      <point x="531" y="430"/>
      <point x="441" y="510"/>
      <point x="315" y="510" type="curve" smooth="yes"/>
      <point x="177" y="510"/>
      <point x="59" y="412"/>
      <point x="59" y="252" type="curve" smooth="yes"/>
      <point x="59" y="240" type="line" smooth="yes"/>
      <point x="59" y="78"/>
      <point x="177" y="-14"/>
      <point x="315" y="-14" type="curve" smooth="yes"/>
      <point x="445" y="-14"/>
      <point x="531" y="66"/>
      <point x="551" y="176" type="curve"/>
    </contour>
  </outline>
</glyph>
<glyph name="f" format="1">
  <advance width="612"/>
  <unicode hex="0066"/>
  <outline>
    <contour>
      <point x="82" y="424" type="line"/>
      <point x="235" y="424" type="line"/>
      <point x="235" y="0" type="line"/>
      <point x="313" y="0" type="line"/>
      <point x="313" y="424" type="line"/>
      <point x="520" y="424" type="line"/>
      <point x="520" y="496" type="line"/>
      <point x="313" y="496" type="line"/>
      <point x="313" y="598" type="line" smooth="yes"/>
      <point x="313" y="617"/>
      <point x="321" y="628"/>
      <point x="340" y="628" type="curve" smooth="yes"/>
      <point x="508" y="628" type="line"/>
      <point x="508" y="700" type="line"/>
      <point x="312" y="700" type="line" smooth="yes"/>
      <point x="267" y="700"/>
      <point x="235" y="667"/>
      <point x="235" y="622" type="curve" smooth="yes"/>
      <point x="235" y="496" type="line"/>
      <point x="82" y="496" type="line"/>
    </contour>
  </outline>
</glyph>
<glyph name="i" format="1">
  <advance width="612"/>
  <unicode hex="0069"/>
  <outline>
    <contour>
      <point x="241" y="644" type="curve" smooth="yes"/>
      <point x="241" y="606"/>
      <point x="273" y="574"/>
      <point x="311" y="574" type="curve" smooth="yes"/>
      <point x="349" y="574"/>
      <point x="381" y="606"/>
      <point x="381" y="644" type="curve" smooth="yes"/>
      <point x="381" y="682"/>
      <point x="349" y="714"/>
      <point x="311" y="714" type="curve" smooth="yes"/>
      <point x="273" y="714"/>
      <point x="241" y="682"/>
    </contour>
    <contour>
      <point x="99" y="0" type="line"/>
      <point x="513" y="0" type="line"/>
      <point x="513" y="72" type="line"/>
      <point x="351" y="72" type="line"/>
      <point x="351" y="496" type="line"/>
      <point x="117" y="496" type="line"/>
      <point x="117" y="424" type="line"/>
      <point x="273" y="424" type="line"/>
      <point x="273" y="72" type="line"/>
      <point x="99" y="72" type="line"/>
    </contour>
  </outline>
</glyph>
<glyph name="j" format="1">
  <advance width="612"/>
  <unicode hex="006A"/>
  <outline>
    <contour>
      <point x="307" y="644" type="curve" smooth="yes"/>
      <point x="307" y="606"/>
      <point x="339" y="574"/>
      <point x="377" y="574" type="curve" smooth="yes"/>
      <point x="415" y="574"/>
      <point x="447" y="606"/>
      <point x="447" y="644" type="curve" smooth="yes"/>
      <point x="447" y="682"/>
      <point x="415" y="714"/>
      <point x="377" y="714" type="curve" smooth="yes"/>
      <point x="339" y="714"/>
      <point x="307" y="682"/>
    </contour>
    <contour>
      <point x="141" y="424" type="line"/>
      <point x="339" y="424" type="line"/>
      <point x="339" y="-98" type="line" smooth="yes"/>
      <point x="339" y="-117"/>
      <point x="331" y="-128"/>
      <point x="312" y="-128" type="curve" smooth="yes"/>
      <point x="117" y="-128" type="line"/>
      <point x="117" y="-200" type="line"/>
      <point x="340" y="-200" type="line" smooth="yes"/>
      <point x="385" y="-200"/>
      <point x="417" y="-167"/>
      <point x="417" y="-122" type="curve" smooth="yes"/>
      <point x="417" y="496" type="line"/>
      <point x="141" y="496" type="line"/>
    </contour>
  </outline>
</glyph>
<glyph name="n" format="1">
  <advance width="612"/>
  <unicode hex="006E"/>
  <outline>
    <contour>
      <point x="165" y="258" type="line" smooth="yes"/>
      <point x="165" y="366"/>
      <point x="223" y="436"/>
      <point x="317" y="436" type="curve" smooth="yes"/>
      <point x="397" y="436"/>
      <point x="447" y="384"/>
      <point x="447" y="280" type="curve" smooth="yes"/>
      <point x="447" y="0" type="line"/>
      <point x="525" y="0" type="line"/>
      <point x="525" y="296" type="line" smooth="yes"/>
      <point x="525" y="438"/>
      <point x="451" y="510"/>
      <point x="337" y="510" type="curve" smooth="yes"/>
      <point x="261" y="510"/>
      <point x="207" y="476"/>
      <point x="177" y="412" type="curve"/>
      <point x="165" y="412" type="line"/>
      <point x="165" y="496" type="line"/>
      <point x="87" y="496" type="line"/>
      <point x="87" y="0" type="line"/>
      <point x="165" y="0" type="line"/>
    </contour>
  </outline>
</glyph>
<glyph name="p" format="1">
  <advance width="612"/>
  <unicode hex="0070"/>
  <outline>
    <contour>
      <point x="147" y="76" type="line"/>
      <point x="159" y="76" type="line"/>
      <point x="193" y="16"/>
      <point x="265" y="-14"/>
      <point x="329" y="-14" type="curve" smooth="yes"/>
      <point x="455" y="-14"/>
      <point x="559" y="76"/>
      <point x="559" y="238" type="curve" smooth="yes"/>
      <point x="559" y="258" type="line" smooth="yes"/>
      <point x="559" y="418"/>
      <point x="453" y="510"/>
      <point x="331" y="510" type="curve" smooth="yes"/>
      <point x="259" y="510"/>
      <point x="193" y="478"/>
      <point x="159" y="418" type="curve"/>
      <point x="147" y="418" type="line"/>
      <point x="147" y="496" type="line"/>
      <point x="69" y="496" type="line"/>
      <point x="69" y="-200" type="line"/>
      <point x="147" y="-200" type="line"/>
    </contour>
    <contour>
      <point x="313" y="60" type="curve" smooth="yes"/>
      <point x="220" y="60"/>
      <point x="147" y="132"/>
      <point x="147" y="242" type="curve" smooth="yes"/>
      <point x="147" y="254" type="line" smooth="yes"/>
      <point x="147" y="360"/>
      <point x="221" y="436"/>
      <point x="313" y="436" type="curve" smooth="yes"/>
      <point x="407" y="436"/>
      <point x="479" y="364"/>
      <point x="479" y="258" type="curve" smooth="yes"/>
      <point x="479" y="238" type="line" smooth="yes"/>
      <point x="479" y="128"/>
      <point x="408" y="60"/>
    </contour>
  </outline>
</glyph>
<glyph name="r" format="1">
  <advance width="612"/>
  <unicode hex="0072"/>
  <outline>
    <contour>
      <point x="59" y="424" type="line"/>
      <point x="161" y="424" type="line"/>
      <point x="161" y="72" type="line"/>
      <point x="47" y="72" type="line"/>
      <point x="47" y="0" type="line"/>
      <point x="365" y="0" type="line"/>
      <point x="365" y="72" type="line"/>
      <point x="239" y="72" type="line"/>
      <point x="239" y="282" type="line" smooth="yes"/>
      <point x="239" y="368"/>
      <point x="277" y="436"/>
      <point x="359" y="436" type="curve" smooth="yes"/>
      <point x="423" y="436"/>
      <point x="473" y="398"/>
      <point x="473" y="306" type="curve"/>
      <point x="555" y="318" type="line"/>
      <point x="551" y="443"/>
      <point x="484" y="510"/>
      <point x="385" y="510" type="curve" smooth="yes"/>
      <point x="326" y="510"/>
      <point x="276" y="484"/>
      <point x="251" y="430" type="curve"/>
      <point x="239" y="430" type="line"/>
      <point x="239" y="496" type="line"/>
      <point x="59" y="496" type="line"/>
    </contour>
  </outline>
</glyph>
<glyph name="s" format="1">
  <advance width="612"/>
  <unicode hex="0073"/>
  <outline>
    <contour>
      <point x="190" y="368" type="curve" smooth="yes"/>
      <point x="190" y="416"/>
      <point x="242" y="440"/>
      <point x="298" y="440" type="curve" smooth="yes"/>
      <point x="370" y="440"/>
      <point x="418" y="402"/>
      <point x="424" y="338" type="curve"/>
      <point x="498" y="356" type="line"/>
      <point x="488" y="432"/>
      <point x="426" y="510"/>
      <point x="294" y="510" type="curve" smooth="yes"/>
      <point x="202" y="510"/>
      <point x="114" y="462"/>
      <point x="114" y="368" type="curve" smooth="yes"/>
      <point x="114" y="362" type="line" smooth="yes"/>
      <point x="114" y="276"/>
      <point x="178" y="231"/>
      <point x="292" y="223" type="curve" smooth="yes"/>
      <point x="390" y="216"/>
      <point x="432" y="196"/>
      <point x="432" y="140" type="curve" smooth="yes"/>
      <point x="432" y="88"/>
      <point x="383" y="58"/>
      <point x="310" y="58" type="curve" smooth="yes"/>
      <point x="224" y="58"/>
      <point x="168" y="108"/>
      <point x="162" y="184" type="curve"/>
      <point x="88" y="166" type="line"/>
      <point x="94" y="78"/>
      <point x="160" y="-14"/>
      <point x="314" y="-14" type="curve" smooth="yes"/>
      <point x="430" y="-14"/>
      <point x="510" y="44"/>
      <point x="510" y="140" type="curve" smooth="yes"/>
      <point x="510" y="146" type="line" smooth="yes"/>
      <point x="510" y="234"/>
      <point x="447" y="279"/>
      <point x="332" y="288" type="curve" smooth="yes"/>
      <point x="224" y="296"/>
      <point x="190" y="320"/>
    </contour>
  </outline>
</glyph>
<glyph name="w" format="1">
  <advance width="612"/>
  <unicode hex="0077"/>
  <outline>
    <contour>
      <point x="594" y="496" type="line"/>
      <point x="514" y="496" type="line"/>
      <point x="448" y="36" type="line"/>
      <point x="436" y="36" type="line"/>
      <point x="378" y="496" type="line"/>
      <point x="234" y="496" type="line"/>
      <point x="176" y="36" type="line"/>
      <point x="164" y="36" type="line"/>
      <point x="98" y="496" type="line"/>
      <point x="18" y="496" type="line"/>
      <point x="96" y="0" type="line"/>
      <point x="240" y="0" type="line"/>
      <point x="300" y="460" type="line"/>
      <point x="312" y="460" type="line"/>
      <point x="372" y="0" type="line"/>
      <point x="516" y="0" type="line"/>
    </contour>
  </outline>
</glyph>
<glyph name="cent" format="1">
  <advance width="612"/>
  <unicode hex="00A2"/>
  <outline>
    <contour>
      <point x="351" y="672" type="line"/>
      <point x="279" y="672" type="line"/>
      <point x="279" y="609" type="line"/>
      <point x="157" y="593"/>
      <point x="60" y="499"/>
      <point x="60" y="354" type="curve" smooth="yes"/>
      <point x="60" y="342" type="line" smooth="yes"/>
      <point x="60" y="195"/>
      <point x="157" y="105"/>
      <point x="279" y="90" type="curve"/>
      <point x="279" y="28" type="line"/>
      <point x="351" y="28" type="line"/>
      <point x="351" y="90" type="line"/>
      <point x="461" y="103"/>
      <point x="534" y="178"/>
      <point x="552" y="278" type="curve"/>
      <point x="474" y="296" type="line"/>
      <point x="465" y="236"/>
      <point x="426" y="178"/>
      <point x="351" y="165" type="curve"/>
      <point x="351" y="534" type="line"/>
      <point x="425" y="520"/>
      <point x="465" y="464"/>
      <point x="472" y="404" type="curve"/>
      <point x="550" y="422" type="line"/>
      <point x="533" y="521"/>
      <point x="458" y="596"/>
      <point x="351" y="609" type="curve"/>
    </contour>
    <contour>
      <point x="140" y="342" type="curve"/>
      <point x="140" y="354" type="line" smooth="yes"/>
      <point x="140" y="448"/>
      <point x="200" y="518"/>
      <point x="279" y="534" type="curve"/>
      <point x="279" y="165" type="line"/>
      <point x="199" y="180"/>
      <point x="140" y="244"/>
    </contour>
  </outline>
</glyph>
<glyph name="sterling" format="1">
  <advance width="612"/>
  <unicode hex="00A3"/>
  <outline>
    <contour>
      <point x="248" y="440" type="line" smooth="yes"/>
      <point x="248" y="508"/>
      <point x="286" y="540"/>
      <point x="336" y="540" type="curve" smooth="yes"/>
      <point x="386" y="540"/>
      <point x="424" y="508"/>
      <point x="424" y="440" type="curve" smooth="yes"/>
      <point x="424" y="416" type="line"/>
      <point x="502" y="416" type="line"/>
      <point x="502" y="440" type="line" smooth="yes"/>
      <point x="502" y="550"/>
      <point x="436" y="612"/>
      <point x="336" y="612" type="curve" smooth="yes"/>
      <point x="232" y="612"/>
      <point x="170" y="550"/>
      <point x="170" y="440" type="curve" smooth="yes"/>
      <point x="170" y="366" type="line"/>
      <point x="110" y="366" type="line"/>
      <point x="110" y="294" type="line"/>
      <point x="170" y="294" type="line"/>
      <point x="170" y="174" type="line"/>
      <point x="110" y="174" type="line"/>
      <point x="110" y="102" type="line"/>
      <point x="490" y="102" type="line"/>
      <point x="490" y="174" type="line"/>
      <point x="248" y="174" type="line"/>
      <point x="248" y="294" type="line"/>
      <point x="338" y="294" type="line"/>
      <point x="338" y="366" type="line"/>
      <point x="248" y="366" type="line"/>
    </contour>
  </outline>
</glyph>
<glyph name="currency" format="1">
  <advance width="612"/>
  <unicode hex="00A4"/>
  <outline>
    <contour>
      <point x="56" y="350" type="curve" smooth="yes"/>
      <point x="56" y="295"/>
      <point x="73" y="245"/>
      <point x="103" y="204" type="curve"/>
      <point x="44" y="145" type="line"/>
      <point x="101" y="88" type="line"/>
      <point x="160" y="147" type="line"/>
      <point x="201" y="117"/>
      <point x="251" y="100"/>
      <point x="306" y="100" type="curve" smooth="yes"/>
      <point x="360" y="100"/>
      <point x="411" y="117"/>
      <point x="452" y="147" type="curve"/>
      <point x="511" y="88" type="line"/>
      <point x="568" y="145" type="line"/>
      <point x="509" y="204" type="line"/>
      <point x="538" y="245"/>
      <point x="556" y="295"/>
      <point x="556" y="350" type="curve" smooth="yes"/>
      <point x="556" y="404"/>
      <point x="538" y="455"/>
      <point x="509" y="496" type="curve"/>
      <point x="568" y="555" type="line"/>
      <point x="511" y="612" type="line"/>
      <point x="452" y="553" type="line"/>
      <point x="411" y="582"/>
      <point x="360" y="600"/>
      <point x="306" y="600" type="curve" smooth="yes"/>
      <point x="251" y="600"/>
      <point x="201" y="582"/>
      <point x="160" y="553" type="curve"/>
      <point x="101" y="612" type="line"/>
      <point x="44" y="555" type="line"/>
      <point x="103" y="496" type="line"/>
      <point x="73" y="455"/>
      <point x="56" y="404"/>
    </contour>
    <contour>
      <point x="134" y="350" type="curve" smooth="yes"/>
      <point x="134" y="446"/>
      <point x="210" y="522"/>
      <point x="306" y="522" type="curve" smooth="yes"/>
      <point x="402" y="522"/>
      <point x="478" y="446"/>
      <point x="478" y="350" type="curve" smooth="yes"/>
      <point x="478" y="254"/>
      <point x="402" y="178"/>
      <point x="306" y="178" type="curve" smooth="yes"/>
      <point x="210" y="178"/>
      <point x="134" y="254"/>
    </contour>
  </outline>
</glyph>
<glyph name="ordfeminine" format="1">
  <advance width="612"/>
  <unicode hex="00AA"/>
  <outline>
    <contour>
      <point x="379" y="452" type="line"/>
      <point x="381" y="426"/>
      <point x="401" y="412"/>
      <point x="427" y="412" type="curve" smooth="yes"/>
      <point x="475" y="412" type="line"/>
      <point x="475" y="472" type="line"/>
      <point x="461" y="472" type="line" smooth="yes"/>
      <point x="450" y="472"/>
      <point x="445" y="479"/>
      <point x="445" y="489" type="curve" smooth="yes"/>
      <point x="445" y="698" type="line"/>
      <point x="379" y="698" type="line"/>
      <point x="379" y="666" type="line"/>
      <point x="373" y="666" type="line"/>
      <point x="358" y="692"/>
      <point x="331" y="706"/>
      <point x="291" y="706" type="curve" smooth="yes"/>
      <point x="217" y="706"/>
      <point x="157" y="651"/>
      <point x="157" y="556" type="curve" smooth="yes"/>
      <point x="157" y="460"/>
      <point x="217" y="406"/>
      <point x="289" y="406" type="curve" smooth="yes"/>
      <point x="325" y="406"/>
      <point x="360" y="420"/>
      <point x="373" y="452" type="curve"/>
    </contour>
    <contour>
      <point x="301" y="466" type="curve" smooth="yes"/>
      <point x="253" y="466"/>
      <point x="223" y="498"/>
      <point x="223" y="556" type="curve" smooth="yes"/>
      <point x="223" y="608"/>
      <point x="253" y="646"/>
      <point x="301" y="646" type="curve" smooth="yes"/>
      <point x="348" y="646"/>
      <point x="379" y="616"/>
      <point x="379" y="556" type="curve" smooth="yes"/>
      <point x="379" y="494"/>
      <point x="343" y="466"/>
    </contour>
  </outline>
</glyph>
<glyph name="degree" format="1">
  <advance width="612"/>
  <unicode hex="00B0"/>
  <outline>
    <contour>
      <point x="161" y="569" type="curve" smooth="yes"/>
      <point x="161" y="489"/>
      <point x="226" y="424"/>
      <point x="306" y="424" type="curve" smooth="yes"/>
      <point x="386" y="424"/>
      <point x="451" y="489"/>
      <point x="451" y="569" type="curve" smooth="yes"/>
      <point x="451" y="649"/>
      <point x="386" y="714"/>
      <point x="306" y="714" type="curve" smooth="yes"/>
      <point x="226" y="714"/>
      <point x="161" y="649"/>
    </contour>
    <contour>
      <point x="233" y="569" type="curve"/>
      <point x="233" y="609"/>
      <point x="266" y="642"/>
      <point x="306" y="642" type="curve" smooth="yes"/>
      <point x="346" y="642"/>
      <point x="379" y="609"/>
      <point x="379" y="569" type="curve" smooth="yes"/>
      <point x="379" y="529"/>
      <point x="346" y="496"/>
      <point x="306" y="496" type="curve" smooth="yes"/>
      <point x="266" y="496"/>
      <point x="233" y="529"/>
    </contour>
  </outline>
</glyph>
<glyph name="plusminus" format="1">
  <advance width="612"/>
  <unicode hex="00B1"/>
  <outline>
    <contour>
      <point x="97" y="314" type="line"/>
      <point x="270" y="314" type="line"/>
      <point x="270" y="141" type="line"/>
      <point x="342" y="141" type="line"/>
      <point x="342" y="314" type="line"/>
      <point x="515" y="314" type="line"/>
      <point x="515" y="386" type="line"/>
      <point x="342" y="386" type="line"/>
      <point x="342" y="559" type="line"/>
      <point x="270" y="559" type="line"/>
      <point x="270" y="386" type="line"/>
      <point x="97" y="386" type="line"/>
    </contour>
    <contour>
      <point x="97" y="0" type="line"/>
      <point x="515" y="0" type="line"/>
      <point x="515" y="72" type="line"/>
      <point x="97" y="72" type="line"/>
    </contour>
  </outline>
</glyph>
<glyph name="twosuperior" format="1">
  <advance width="612"/>
  <unicode hex="00B2"/>
  <outline>
    <contour>
      <point x="264" y="460" type="line"/>
      <point x="264" y="466" type="line" smooth="yes"/>
      <point x="264" y="492"/>
      <point x="276" y="508"/>
      <point x="324" y="518" type="curve" smooth="yes"/>
      <point x="388" y="531"/>
      <point x="408" y="568"/>
      <point x="408" y="616" type="curve" smooth="yes"/>
      <point x="408" y="662"/>
      <point x="374" y="706"/>
      <point x="310" y="706" type="curve" smooth="yes"/>
      <point x="242" y="706"/>
      <point x="204" y="660"/>
      <point x="204" y="604" type="curve" smooth="yes"/>
      <point x="204" y="586" type="line"/>
      <point x="258" y="586" type="line"/>
      <point x="258" y="604" type="line" smooth="yes"/>
      <point x="258" y="638"/>
      <point x="278" y="658"/>
      <point x="308" y="658" type="curve" smooth="yes"/>
      <point x="340" y="658"/>
      <point x="354" y="636"/>
      <point x="354" y="614" type="curve" smooth="yes"/>
      <point x="354" y="595"/>
      <point x="350" y="574"/>
      <point x="306" y="564" type="curve" smooth="yes"/>
      <point x="242" y="550"/>
      <point x="210" y="522"/>
      <point x="210" y="466" type="curve" smooth="yes"/>
      <point x="210" y="412" type="line"/>
      <point x="405" y="412" type="line"/>
      <point x="405" y="460" type="line"/>
    </contour>
  </outline>
</glyph>
<glyph name="acute" format="1">
  <advance width="612"/>
  <unicode hex="00B4"/>
  <outline>
    <contour>
      <point x="296" y="688" type="line"/>
      <point x="230" y="570" type="line"/>
      <point x="302" y="570" type="line"/>
      <point x="386" y="688" type="line"/>
    </contour>
  </outline>
</glyph>
<glyph name="mu" format="1">
  <advance width="612"/>
  <unicode hex="00B5"/>
  <outline>
    <contour>
      <point x="447" y="0" type="line"/>
      <point x="525" y="0" type="line"/>
      <point x="525" y="496" type="line"/>
      <point x="447" y="496" type="line"/>
      <point x="447" y="216" type="line" smooth="yes"/>
      <point x="447" y="112"/>
      <point x="386" y="60"/>
      <point x="306" y="60" type="curve" smooth="yes"/>
      <point x="226" y="60"/>
      <point x="165" y="112"/>
      <point x="165" y="216" type="curve" smooth="yes"/>
      <point x="165" y="496" type="line"/>
      <point x="87" y="496" type="line"/>
      <point x="87" y="-200" type="line"/>
      <point x="165" y="-200" type="line"/>
      <point x="165" y="60" type="line"/>
      <point x="177" y="60" type="line"/>
      <point x="191" y="23"/>
      <point x="232" y="-14"/>
      <point x="306" y="-14" type="curve" smooth="yes"/>
      <point x="380" y="-14"/>
      <point x="421" y="23"/>
      <point x="435" y="60" type="curve"/>
      <point x="447" y="60" type="line"/>
    </contour>
  </outline>
</glyph>
<glyph name="cedilla" format="1">
  <advance width="612"/>
  <unicode hex="00B8"/>
  <outline>
    <contour>
      <point x="232" y="0" type="line"/>
      <point x="212" y="-92" type="line"/>
      <point x="212" y="-98" type="line"/>
      <point x="288" y="-98" type="line"/>
      <point x="292" y="-90"/>
      <point x="301" y="-84"/>
      <point x="313" y="-84" type="curve" smooth="yes"/>
      <point x="332" y="-84"/>
      <point x="348" y="-98"/>
      <point x="348" y="-122" type="curve" smooth="yes"/>
      <point x="348" y="-151"/>
      <point x="328" y="-164"/>
      <point x="308" y="-164" type="curve" smooth="yes"/>
      <point x="279" y="-164"/>
      <point x="264" y="-144"/>
      <point x="260" y="-124" type="curve"/>
      <point x="212" y="-142" type="line"/>
      <point x="222" y="-182"/>
      <point x="252" y="-212"/>
      <point x="309" y="-212" type="curve" smooth="yes"/>
      <point x="361" y="-212"/>
      <point x="402" y="-176"/>
      <point x="402" y="-121" type="curve" smooth="yes"/>
      <point x="402" y="-75"/>
      <point x="372" y="-36"/>
      <point x="326" y="-36" type="curve" smooth="yes"/>
      <point x="298" y="-36"/>
      <point x="280" y="-48"/>
      <point x="272" y="-68" type="curve"/>
      <point x="266" y="-68" type="line"/>
      <point x="281" y="0" type="line"/>
    </contour>
  </outline>
</glyph>
<glyph name="ordmasculine" format="1">
  <advance width="612"/>
  <unicode hex="00BA"/>
  <outline>
    <contour>
      <point x="157" y="556" type="curve" smooth="yes"/>
      <point x="157" y="458"/>
      <point x="230" y="406"/>
      <point x="306" y="406" type="curve" smooth="yes"/>
      <point x="382" y="406"/>
      <point x="455" y="458"/>
      <point x="455" y="556" type="curve" smooth="yes"/>
      <point x="455" y="654"/>
      <point x="382" y="706"/>
      <point x="306" y="706" type="curve" smooth="yes"/>
      <point x="230" y="706"/>
      <point x="157" y="654"/>
    </contour>
    <contour>
      <point x="306" y="466" type="curve" smooth="yes"/>
      <point x="261" y="466"/>
      <point x="223" y="498"/>
      <point x="223" y="556" type="curve" smooth="yes"/>
      <point x="223" y="614"/>
      <point x="261" y="646"/>
      <point x="306" y="646" type="curve" smooth="yes"/>
      <point x="351" y="646"/>
      <point x="389" y="614"/>
      <point x="389" y="556" type="curve" smooth="yes"/>
      <point x="389" y="498"/>
      <point x="351" y="466"/>
    </contour>
  </outline>
</glyph>
<glyph name="AE" format="1">
  <advance width="612"/>
  <unicode hex="00C6"/>
  <outline>
    <contour>
      <point x="300" y="0" type="line"/>
      <point x="546" y="0" type="line"/>
      <point x="546" y="78" type="line"/>
      <point x="384" y="78" type="line"/>
      <point x="384" y="312" type="line"/>
      <point x="534" y="312" type="line"/>
      <point x="534" y="390" type="line"/>
      <point x="384" y="390" type="line"/>
      <point x="384" y="622" type="line"/>
      <point x="540" y="622" type="line"/>
      <point x="540" y="700" type="line"/>
      <point x="227" y="700" type="line"/>
      <point x="15" y="0" type="line"/>
      <point x="105" y="0" type="line"/>
      <point x="156" y="174" type="line"/>
      <point x="300" y="174" type="line"/>
    </contour>
    <contour>
      <point x="288" y="622" type="line"/>
      <point x="300" y="622" type="line"/>
      <point x="300" y="252" type="line"/>
      <point x="179" y="252" type="line"/>
    </contour>
  </outline>
</glyph>
<glyph name="germandbls" format="1">
  <advance width="612"/>
  <unicode hex="00DF"/>
  <outline>
    <contour>
      <point x="343" y="367" type="line"/>
      <point x="417" y="376"/>
      <point x="493" y="427"/>
      <point x="493" y="531" type="curve" smooth="yes"/>
      <point x="493" y="537" type="line" smooth="yes"/>
      <point x="493" y="646"/>
      <point x="411" y="714"/>
      <point x="299" y="714" type="curve" smooth="yes"/>
      <point x="183" y="714"/>
      <point x="98" y="638"/>
      <point x="98" y="510" type="curve" smooth="yes"/>
      <point x="98" y="496" type="line"/>
      <point x="38" y="496" type="line"/>
      <point x="38" y="424" type="line"/>
      <point x="98" y="424" type="line"/>
      <point x="98" y="0" type="line"/>
      <point x="176" y="0" type="line"/>
      <point x="176" y="502" type="line" smooth="yes"/>
      <point x="176" y="590"/>
      <point x="225" y="642"/>
      <point x="299" y="642" type="curve" smooth="yes"/>
      <point x="363" y="642"/>
      <point x="415" y="600"/>
      <point x="415" y="537" type="curve" smooth="yes"/>
      <point x="415" y="532" type="line" smooth="yes"/>
      <point x="415" y="469"/>
      <point x="373" y="430"/>
      <point x="306" y="430" type="curve" smooth="yes"/>
      <point x="284" y="430" type="line"/>
      <point x="284" y="283" type="line"/>
      <point x="338" y="283" type="line" smooth="yes"/>
      <point x="421" y="283"/>
      <point x="485" y="251"/>
      <point x="485" y="167" type="curve" smooth="yes"/>
      <point x="485" y="91"/>
      <point x="441" y="58"/>
      <point x="382" y="58" type="curve" smooth="yes"/>
      <point x="324" y="58"/>
      <point x="286" y="97"/>
      <point x="286" y="158" type="curve"/>
      <point x="212" y="146" type="line"/>
      <point x="214" y="67"/>
      <point x="268" y="-14"/>
      <point x="386" y="-14" type="curve" smooth="yes"/>
      <point x="490" y="-14"/>
      <point x="563" y="58"/>
      <point x="563" y="164" type="curve" smooth="yes"/>
      <point x="563" y="170" type="line" smooth="yes"/>
      <point x="563" y="290"/>
      <point x="470" y="355"/>
      <point x="368" y="355" type="curve" smooth="yes"/>
      <point x="343" y="355" type="line"/>
    </contour>
  </outline>
</glyph>
<glyph name="ccedilla" format="1">
  <advance width="612"/>
  <unicode hex="00E7"/>
  <outline>
    <contour>
      <point x="473" y="194" type="line"/>
      <point x="463" y="126"/>
      <point x="413" y="60"/>
      <point x="315" y="60" type="curve" smooth="yes"/>
      <point x="217" y="60"/>
      <point x="139" y="128"/>
      <point x="139" y="240" type="curve" smooth="yes"/>
      <point x="139" y="252" type="line" smooth="yes"/>
      <point x="139" y="360"/>
      <point x="217" y="436"/>
      <point x="313" y="436" type="curve" smooth="yes"/>
      <point x="411" y="436"/>
      <point x="463" y="372"/>
      <point x="471" y="302" type="curve"/>
      <point x="549" y="320" type="line"/>
      <point x="531" y="430"/>
      <point x="441" y="510"/>
      <point x="315" y="510" type="curve" smooth="yes"/>
      <point x="177" y="510"/>
      <point x="59" y="412"/>
      <point x="59" y="252" type="curve" smooth="yes"/>
      <point x="59" y="240" type="line" smooth="yes"/>
      <point x="59" y="100"/>
      <point x="146" y="12"/>
      <point x="259" y="-9" type="curve"/>
      <point x="241" y="-92" type="line"/>
      <point x="241" y="-98" type="line"/>
      <point x="317" y="-98" type="line"/>
      <point x="321" y="-90"/>
      <point x="330" y="-84"/>
      <point x="342" y="-84" type="curve" smooth="yes"/>
      <point x="361" y="-84"/>
      <point x="377" y="-98"/>
      <point x="377" y="-122" type="curve" smooth="yes"/>
      <point x="377" y="-151"/>
      <point x="357" y="-164"/>
      <point x="337" y="-164" type="curve" smooth="yes"/>
      <point x="308" y="-164"/>
      <point x="293" y="-144"/>
      <point x="289" y="-124" type="curve"/>
      <point x="241" y="-142" type="line"/>
      <point x="251" y="-182"/>
      <point x="281" y="-212"/>
      <point x="338" y="-212" type="curve" smooth="yes"/>
      <point x="390" y="-212"/>
      <point x="431" y="-176"/>
      <point x="431" y="-121" type="curve" smooth="yes"/>
      <point x="431" y="-75"/>
      <point x="401" y="-36"/>
      <point x="355" y="-36" type="curve" smooth="yes"/>
      <point x="327" y="-36"/>
      <point x="309" y="-48"/>
      <point x="301" y="-68" type="curve"/>
      <point x="295" y="-68" type="line"/>
      <point x="307" y="-14" type="line"/>
      <point x="315" y="-14" type="line" smooth="yes"/>
      <point x="445" y="-14"/>
      <point x="531" y="66"/>
      <point x="551" y="176" type="curve"/>
    </contour>
  </outline>
</glyph>
<glyph name="oslash" format="1">
  <advance width="612"/>
  <unicode hex="00F8"/>
  <outline>
    <contour>
      <point x="555" y="254" type="line" smooth="yes"/>
      <point x="555" y="365"/>
      <point x="499" y="444"/>
      <point x="422" y="483" type="curve"/>
      <point x="439" y="536" type="line"/>
      <point x="369" y="558" type="line"/>
      <point x="352" y="506" type="line"/>
      <point x="337" y="508"/>
      <point x="321" y="510"/>
      <point x="306" y="510" type="curve" smooth="yes"/>
      <point x="175" y="510"/>
      <point x="57" y="416"/>
      <point x="57" y="254" type="curve" smooth="yes"/>
      <point x="57" y="242" type="line" smooth="yes"/>
      <point x="57" y="129"/>
      <point x="112" y="50"/>
      <point x="190" y="12" type="curve"/>
      <point x="171" y="-46" type="line"/>
      <point x="242" y="-68" type="line"/>
      <point x="261" y="-10" type="line"/>
      <point x="275" y="-13"/>
      <point x="290" y="-14"/>
      <point x="306" y="-14" type="curve" smooth="yes"/>
      <point x="438" y="-14"/>
      <point x="555" y="78"/>
      <point x="555" y="242" type="curve" smooth="yes"/>
    </contour>
    <contour>
      <point x="137" y="242" type="curve"/>
      <point x="137" y="254" type="line" smooth="yes"/>
      <point x="137" y="362"/>
      <point x="212" y="436"/>
      <point x="306" y="436" type="curve" smooth="yes"/>
      <point x="313" y="436"/>
      <point x="321" y="436"/>
      <point x="328" y="435" type="curve"/>
      <point x="214" y="86" type="line"/>
      <point x="167" y="116"/>
      <point x="137" y="170"/>
    </contour>
    <contour>
      <point x="306" y="60" type="curve" smooth="yes"/>
      <point x="298" y="60"/>
      <point x="291" y="60"/>
      <point x="284" y="61" type="curve"/>
      <point x="397" y="409" type="line"/>
      <point x="444" y="378"/>
      <point x="475" y="323"/>
      <point x="475" y="254" type="curve" smooth="yes"/>
      <point x="475" y="242" type="line" smooth="yes"/>
      <point x="475" y="130"/>
      <point x="401" y="60"/>
    </contour>
  </outline>
</glyph>
<glyph name="dcroat" format="1">
  <advance width="612"/>
  <unicode hex="0111"/>
  <outline>
    <contour>
      <point x="295" y="562" type="line"/>
      <point x="471" y="562" type="line"/>
      <point x="471" y="418" type="line"/>
      <point x="459" y="418" type="line"/>
      <point x="427" y="480"/>
      <point x="363" y="510"/>
      <point x="295" y="510" type="curve" smooth="yes"/>
      <point x="167" y="510"/>
      <point x="59" y="417"/>
      <point x="59" y="256" type="curve" smooth="yes"/>
      <point x="59" y="240" type="line" smooth="yes"/>
      <point x="59" y="77"/>
      <point x="165" y="-14"/>
      <point x="297" y="-14" type="curve" smooth="yes"/>
      <point x="357" y="-14"/>
      <point x="427" y="14"/>
      <point x="459" y="76" type="curve"/>
      <point x="471" y="76" type="line"/>
      <point x="471" y="0" type="line"/>
      <point x="549" y="0" type="line"/>
      <point x="549" y="562" type="line"/>
      <point x="609" y="562" type="line"/>
      <point x="609" y="634" type="line"/>
      <point x="549" y="634" type="line"/>
      <point x="549" y="700" type="line"/>
      <point x="471" y="700" type="line"/>
      <point x="471" y="634" type="line"/>
      <point x="295" y="634" type="line"/>
    </contour>
    <contour>
      <point x="305" y="60" type="curve" smooth="yes"/>
      <point x="210" y="60"/>
      <point x="139" y="129"/>
      <point x="139" y="240" type="curve" smooth="yes"/>
      <point x="139" y="256" type="line" smooth="yes"/>
      <point x="139" y="363"/>
      <point x="211" y="436"/>
      <point x="305" y="436" type="curve" smooth="yes"/>
      <point x="397" y="436"/>
      <point x="471" y="360"/>
      <point x="471" y="254" type="curve" smooth="yes"/>
      <point x="471" y="242" type="line" smooth="yes"/>
      <point x="471" y="132"/>
      <point x="398" y="60"/>
    </contour>
  </outline>
</glyph>
<glyph name="eogonek" format="1">
  <advance width="612"/>
  <unicode hex="0119"/>
  <outline>
    <contour>
      <point x="543" y="224" type="line"/>
      <point x="543" y="288" type="line" smooth="yes"/>
      <point x="543" y="376"/>
      <point x="472" y="510"/>
      <point x="309" y="510" type="curve" smooth="yes"/>
      <point x="170" y="510"/>
      <point x="65" y="406"/>
      <point x="65" y="266" type="curve" smooth="yes"/>
      <point x="65" y="242" type="line" smooth="yes"/>
      <point x="65" y="103"/>
      <point x="148" y="4"/>
      <point x="271" y="-12" type="curve"/>
      <point x="259" y="-66" type="line" smooth="yes"/>
      <point x="257" y="-76"/>
      <point x="256" y="-83"/>
      <point x="256" y="-90" type="curve" smooth="yes"/>
      <point x="256" y="-139"/>
      <point x="295" y="-164"/>
      <point x="334" y="-164" type="curve" smooth="yes"/>
      <point x="390" y="-164" type="line"/>
      <point x="390" y="-98" type="line"/>
      <point x="348" y="-98" type="line" smooth="yes"/>
      <point x="334" y="-98"/>
      <point x="325" y="-90"/>
      <point x="325" y="-76" type="curve" smooth="yes"/>
      <point x="325" y="-75"/>
      <point x="325" y="-73"/>
      <point x="326" y="-68" type="curve" smooth="yes"/>
      <point x="339" y="-12" type="line"/>
      <point x="447" y="-2"/>
      <point x="511" y="58"/>
      <point x="537" y="142" type="curve"/>
      <point x="463" y="162" type="line"/>
      <point x="445" y="106"/>
      <point x="403" y="60"/>
      <point x="309" y="60" type="curve" smooth="yes"/>
      <point x="207" y="60"/>
      <point x="147" y="126"/>
      <point x="143" y="224" type="curve"/>
    </contour>
    <contour>
      <point x="309" y="436" type="curve" smooth="yes"/>
      <point x="387" y="436"/>
      <point x="461" y="382"/>
      <point x="465" y="296" type="curve"/>
      <point x="145" y="296" type="line"/>
      <point x="155" y="376"/>
      <point x="221" y="436"/>
    </contour>
  </outline>
</glyph>
<glyph name="hbar" format="1">
  <advance width="612"/>
  <unicode hex="0127"/>
  <outline>
    <contour>
      <point x="27" y="562" type="line"/>
      <point x="87" y="562" type="line"/>
      <point x="87" y="0" type="line"/>
      <point x="165" y="0" type="line"/>
      <point x="165" y="258" type="line" smooth="yes"/>
      <point x="165" y="366"/>
      <point x="223" y="436"/>
      <point x="317" y="436" type="curve" smooth="yes"/>
      <point x="397" y="436"/>
      <point x="447" y="384"/>
      <point x="447" y="280" type="curve" smooth="yes"/>
      <point x="447" y="0" type="line"/>
      <point x="525" y="0" type="line"/>
      <point x="525" y="296" type="line" smooth="yes"/>
      <point x="525" y="438"/>
      <point x="451" y="510"/>
      <point x="343" y="510" type="curve" smooth="yes"/>
      <point x="263" y="510"/>
      <point x="207" y="470"/>
      <point x="177" y="406" type="curve"/>
      <point x="165" y="406" type="line"/>
      <point x="165" y="562" type="line"/>
      <point x="343" y="562" type="line"/>
      <point x="343" y="634" type="line"/>
      <point x="165" y="634" type="line"/>
      <point x="165" y="700" type="line"/>
      <point x="87" y="700" type="line"/>
      <point x="87" y="634" type="line"/>
      <point x="27" y="634" type="line"/>
    </contour>
  </outline>
</glyph>
<glyph name="iogonek" format="1">
  <advance width="612"/>
  <unicode hex="012F"/>
  <outline>
    <contour>
      <point x="99" y="0" type="line"/>
      <point x="444" y="0" type="line"/>
      <point x="430" y="-66" type="line" smooth="yes"/>
      <point x="428" y="-76"/>
      <point x="427" y="-83"/>
      <point x="427" y="-90" type="curve" smooth="yes"/>
      <point x="427" y="-139"/>
      <point x="465" y="-164"/>
      <point x="505" y="-164" type="curve" smooth="yes"/>
      <point x="561" y="-164" type="line"/>
      <point x="561" y="-98" type="line"/>
      <point x="519" y="-98" type="line" smooth="yes"/>
      <point x="505" y="-98"/>
      <point x="496" y="-90"/>
      <point x="496" y="-76" type="curve" smooth="yes"/>
      <point x="496" y="-75"/>
      <point x="496" y="-73"/>
      <point x="497" y="-68" type="curve" smooth="yes"/>
      <point x="513" y="0" type="line"/>
      <point x="513" y="72" type="line"/>
      <point x="351" y="72" type="line"/>
      <point x="351" y="496" type="line"/>
      <point x="117" y="496" type="line"/>
      <point x="117" y="424" type="line"/>
      <point x="273" y="424" type="line"/>
      <point x="273" y="72" type="line"/>
      <point x="99" y="72" type="line"/>
    </contour>
    <contour>
      <point x="241" y="644" type="curve" smooth="yes"/>
      <point x="241" y="606"/>
      <point x="273" y="574"/>
      <point x="311" y="574" type="curve" smooth="yes"/>
      <point x="349" y="574"/>
      <point x="381" y="606"/>
      <point x="381" y="644" type="curve" smooth="yes"/>
      <point x="381" y="682"/>
      <point x="349" y="714"/>
      <point x="311" y="714" type="curve" smooth="yes"/>
      <point x="273" y="714"/>
      <point x="241" y="682"/>
    </contour>
  </outline>
</glyph>
<glyph name="dotlessi" format="1">
  <advance width="612"/>
  <unicode hex="0131"/>
  <outline>
    <contour>
      <point x="99" y="0" type="line"/>
      <point x="513" y="0" type="line"/>
      <point x="513" y="72" type="line"/>
      <point x="351" y="72" type="line"/>
      <point x="351" y="496" type="line"/>
      <point x="117" y="496" type="line"/>
      <point x="117" y="424" type="line"/>
      <point x="273" y="424" type="line"/>
      <point x="273" y="72" type="line"/>
      <point x="99" y="72" type="line"/>
    </contour>
  </outline>
</glyph>
<glyph name="IJ" format="1">
  <advance width="612"/>
  <unicode hex="0132"/>
  <outline>
    <contour>
      <point x="73" y="342" type="line"/>
      <point x="157" y="342" type="line"/>
      <point x="157" y="700" type="line"/>
      <point x="73" y="700" type="line"/>
    </contour>
    <contour>
      <point x="505" y="622" type="line"/>
      <point x="565" y="622" type="line"/>
      <point x="565" y="700" type="line"/>
      <point x="349" y="700" type="line"/>
      <point x="349" y="622" type="line"/>
      <point x="421" y="622" type="line"/>
      <point x="421" y="210" type="line" smooth="yes"/>
      <point x="421" y="122"/>
      <point x="388" y="64"/>
      <point x="295" y="64" type="curve" smooth="yes"/>
      <point x="202" y="64"/>
      <point x="157" y="122"/>
      <point x="157" y="210" type="curve" smooth="yes"/>
      <point x="157" y="264" type="line"/>
      <point x="73" y="264" type="line"/>
      <point x="73" y="210" type="line" smooth="yes"/>
      <point x="73" y="66"/>
      <point x="159" y="-14"/>
      <point x="295" y="-14" type="curve" smooth="yes"/>
      <point x="431" y="-14"/>
      <point x="505" y="66"/>
      <point x="505" y="210" type="curve"/>
    </contour>
  </outline>
</glyph>
<glyph name="Lslash" format="1">
  <advance width="612"/>
  <unicode hex="0141"/>
  <outline>
    <contour>
      <point x="24" y="311" type="line"/>
      <point x="59" y="243" type="line"/>
      <point x="120" y="274" type="line"/>
      <point x="120" y="0" type="line"/>
      <point x="552" y="0" type="line"/>
      <point x="552" y="78" type="line"/>
      <point x="204" y="78" type="line"/>
      <point x="204" y="317" type="line"/>
      <point x="299" y="366" type="line"/>
      <point x="265" y="433" type="line"/>
      <point x="204" y="402" type="line"/>
      <point x="204" y="700" type="line"/>
      <point x="120" y="700" type="line"/>
      <point x="120" y="359" type="line"/>
    </contour>
  </outline>
</glyph>
<glyph name="lslash" format="1">
  <advance width="612"/>
  <unicode hex="0142"/>
  <outline>
    <contour>
      <point x="87" y="0" type="line"/>
      <point x="525" y="0" type="line"/>
      <point x="525" y="72" type="line"/>
      <point x="345" y="72" type="line"/>
      <point x="345" y="315" type="line"/>
      <point x="444" y="366" type="line"/>
      <point x="410" y="433" type="line"/>
      <point x="345" y="400" type="line"/>
      <point x="345" y="700" type="line"/>
      <point x="93" y="700" type="line"/>
      <point x="93" y="628" type="line"/>
      <point x="267" y="628" type="line"/>
      <point x="267" y="360" type="line"/>
      <point x="169" y="311" type="line"/>
      <point x="204" y="243" type="line"/>
      <point x="267" y="275" type="line"/>
      <point x="267" y="72" type="line"/>
      <point x="87" y="72" type="line"/>
    </contour>
  </outline>
</glyph>
<glyph name="uni0146" format="1">
  <advance width="612"/>
  <unicode hex="0146"/>
  <outline>
    <contour>
      <point x="165" y="258" type="line" smooth="yes"/>
      <point x="165" y="366"/>
      <point x="223" y="436"/>
      <point x="317" y="436" type="curve" smooth="yes"/>
      <point x="397" y="436"/>
      <point x="447" y="384"/>
      <point x="447" y="280" type="curve" smooth="yes"/>
      <point x="447" y="0" type="line"/>
      <point x="525" y="0" type="line"/>
      <point x="525" y="296" type="line" smooth="yes"/>
      <point x="525" y="438"/>
      <point x="451" y="510"/>
      <point x="337" y="510" type="curve" smooth="yes"/>
      <point x="261" y="510"/>
      <point x="207" y="476"/>
      <point x="177" y="412" type="curve"/>
      <point x="165" y="412" type="line"/>
      <point x="165" y="496" type="line"/>
      <point x="87" y="496" type="line"/>
      <point x="87" y="0" type="line"/>
      <point x="165" y="0" type="line"/>
    </contour>
    <component base="comma" xOffset="11" yOffset="-170"/>
  </outline>
</glyph>
<glyph name="OE" format="1">
  <advance width="612"/>
  <unicode hex="0152"/>
  <outline>
    <contour>
      <point x="300" y="0" type="curve"/>
      <point x="546" y="0" type="line"/>
      <point x="546" y="78" type="line"/>
      <point x="384" y="78" type="line"/>
      <point x="384" y="312" type="line"/>
      <point x="534" y="312" type="line"/>
      <point x="534" y="390" type="line"/>
      <point x="384" y="390" type="line"/>
      <point x="384" y="622" type="line"/>
      <point x="540" y="622" type="line"/>
      <point x="540" y="700" type="line"/>
      <point x="300" y="700" type="line" smooth="yes"/>
      <point x="146" y="700"/>
      <point x="54" y="594"/>
      <point x="54" y="414" type="curve" smooth="yes"/>
      <point x="54" y="286" type="line" smooth="yes"/>
      <point x="54" y="100"/>
      <point x="146" y="0"/>
    </contour>
    <contour>
      <point x="300" y="78" type="line"/>
      <point x="192" y="78"/>
      <point x="138" y="156"/>
      <point x="138" y="292" type="curve" smooth="yes"/>
      <point x="138" y="408" type="line" smooth="yes"/>
      <point x="138" y="536"/>
      <point x="192" y="622"/>
      <point x="300" y="622" type="curve"/>
    </contour>
  </outline>
</glyph>
<glyph name="Scedilla" format="1">
  <advance width="612"/>
  <unicode hex="015E"/>
  <outline>
    <contour>
      <point x="471" y="462" type="line"/>
      <point x="555" y="462" type="line"/>
      <point x="555" y="504" type="line" smooth="yes"/>
      <point x="555" y="617"/>
      <point x="464" y="714"/>
      <point x="306" y="714" type="curve" smooth="yes"/>
      <point x="170" y="714"/>
      <point x="75" y="637"/>
      <point x="75" y="528" type="curve" smooth="yes"/>
      <point x="75" y="516" type="line" smooth="yes"/>
      <point x="75" y="396"/>
      <point x="165" y="342"/>
      <point x="305" y="322" type="curve" smooth="yes"/>
      <point x="426" y="305"/>
      <point x="477" y="269"/>
      <point x="477" y="196" type="curve" smooth="yes"/>
      <point x="477" y="190" type="line" smooth="yes"/>
      <point x="477" y="115"/>
      <point x="424" y="64"/>
      <point x="320" y="64" type="curve" smooth="yes"/>
      <point x="201" y="64"/>
      <point x="129" y="126"/>
      <point x="129" y="248" type="curve" smooth="yes"/>
      <point x="129" y="272" type="line"/>
      <point x="45" y="272" type="line"/>
      <point x="45" y="242" type="line" smooth="yes"/>
      <point x="45" y="112"/>
      <point x="121" y="11"/>
      <point x="264" y="-10" type="curve"/>
      <point x="246" y="-92" type="line"/>
      <point x="246" y="-98" type="line"/>
      <point x="322" y="-98" type="line"/>
      <point x="326" y="-90"/>
      <point x="335" y="-84"/>
      <point x="347" y="-84" type="curve" smooth="yes"/>
      <point x="366" y="-84"/>
      <point x="382" y="-98"/>
      <point x="382" y="-122" type="curve" smooth="yes"/>
      <point x="382" y="-151"/>
      <point x="362" y="-164"/>
      <point x="342" y="-164" type="curve" smooth="yes"/>
      <point x="313" y="-164"/>
      <point x="298" y="-144"/>
      <point x="294" y="-124" type="curve"/>
      <point x="246" y="-142" type="line"/>
      <point x="256" y="-182"/>
      <point x="286" y="-212"/>
      <point x="343" y="-212" type="curve" smooth="yes"/>
      <point x="395" y="-212"/>
      <point x="436" y="-176"/>
      <point x="436" y="-121" type="curve" smooth="yes"/>
      <point x="436" y="-75"/>
      <point x="406" y="-36"/>
      <point x="360" y="-36" type="curve" smooth="yes"/>
      <point x="332" y="-36"/>
      <point x="314" y="-48"/>
      <point x="306" y="-68" type="curve"/>
      <point x="300" y="-68" type="line"/>
      <point x="312" y="-14" type="line"/>
      <point x="320" y="-14" type="line" smooth="yes"/>
      <point x="477" y="-14"/>
      <point x="561" y="69"/>
      <point x="561" y="190" type="curve" smooth="yes"/>
      <point x="561" y="202" type="line" smooth="yes"/>
      <point x="561" y="308"/>
      <point x="493" y="372"/>
      <point x="347" y="394" type="curve" smooth="yes"/>
      <point x="222" y="413"/>
      <point x="159" y="442"/>
      <point x="159" y="519" type="curve" smooth="yes"/>
      <point x="159" y="525" type="line" smooth="yes"/>
      <point x="159" y="596"/>
      <point x="229" y="636"/>
      <point x="305" y="636" type="curve" smooth="yes"/>
      <point x="393" y="636"/>
      <point x="471" y="589"/>
      <point x="471" y="498" type="curve" smooth="yes"/>
    </contour>
  </outline>
</glyph>
<glyph name="scedilla" format="1">
  <advance width="612"/>
  <unicode hex="015F"/>
  <outline>
    <contour>
      <point x="190" y="368" type="curve" smooth="yes"/>
      <point x="190" y="416"/>
      <point x="242" y="440"/>
      <point x="298" y="440" type="curve" smooth="yes"/>
      <point x="370" y="440"/>
      <point x="418" y="402"/>
      <point x="424" y="338" type="curve"/>
      <point x="498" y="356" type="line"/>
      <point x="488" y="432"/>
      <point x="426" y="510"/>
      <point x="294" y="510" type="curve" smooth="yes"/>
      <point x="202" y="510"/>
      <point x="114" y="462"/>
      <point x="114" y="368" type="curve" smooth="yes"/>
      <point x="114" y="362" type="line" smooth="yes"/>
      <point x="114" y="276"/>
      <point x="178" y="231"/>
      <point x="292" y="223" type="curve" smooth="yes"/>
      <point x="390" y="216"/>
      <point x="432" y="196"/>
      <point x="432" y="140" type="curve" smooth="yes"/>
      <point x="432" y="88"/>
      <point x="383" y="58"/>
      <point x="310" y="58" type="curve" smooth="yes"/>
      <point x="224" y="58"/>
      <point x="168" y="108"/>
      <point x="162" y="184" type="curve"/>
      <point x="88" y="166" type="line"/>
      <point x="93" y="89"/>
      <point x="144" y="10"/>
      <point x="258" y="-9" type="curve"/>
      <point x="240" y="-92" type="line"/>
      <point x="240" y="-98" type="line"/>
      <point x="316" y="-98" type="line"/>
      <point x="320" y="-90"/>
      <point x="329" y="-84"/>
      <point x="341" y="-84" type="curve" smooth="yes"/>
      <point x="360" y="-84"/>
      <point x="376" y="-98"/>
      <point x="376" y="-122" type="curve" smooth="yes"/>
      <point x="376" y="-151"/>
      <point x="356" y="-164"/>
      <point x="336" y="-164" type="curve" smooth="yes"/>
      <point x="307" y="-164"/>
      <point x="292" y="-144"/>
      <point x="288" y="-124" type="curve"/>
      <point x="240" y="-142" type="line"/>
      <point x="250" y="-182"/>
      <point x="280" y="-212"/>
      <point x="337" y="-212" type="curve" smooth="yes"/>
      <point x="389" y="-212"/>
      <point x="430" y="-176"/>
      <point x="430" y="-121" type="curve" smooth="yes"/>
      <point x="430" y="-75"/>
      <point x="400" y="-36"/>
      <point x="354" y="-36" type="curve" smooth="yes"/>
      <point x="326" y="-36"/>
      <point x="308" y="-48"/>
      <point x="300" y="-68" type="curve"/>
      <point x="294" y="-68" type="line"/>
      <point x="306" y="-14" type="line"/>
      <point x="314" y="-14" type="line" smooth="yes"/>
      <point x="430" y="-14"/>
      <point x="510" y="44"/>
      <point x="510" y="140" type="curve" smooth="yes"/>
      <point x="510" y="146" type="line" smooth="yes"/>
      <point x="510" y="234"/>
      <point x="447" y="279"/>
      <point x="332" y="288" type="curve" smooth="yes"/>
      <point x="224" y="296"/>
      <point x="190" y="320"/>
    </contour>
  </outline>
</glyph>
<glyph name="uni0163" format="1">
  <advance width="612"/>
  <unicode hex="0163"/>
  <outline>
    <contour>
      <point x="303" y="0" type="curve"/>
      <point x="283" y="-92" type="line"/>
      <point x="283" y="-98" type="line"/>
      <point x="359" y="-98" type="line"/>
      <point x="363" y="-90"/>
      <point x="372" y="-84"/>
      <point x="384" y="-84" type="curve" smooth="yes"/>
      <point x="403" y="-84"/>
      <point x="419" y="-98"/>
      <point x="419" y="-122" type="curve" smooth="yes"/>
      <point x="419" y="-151"/>
      <point x="399" y="-164"/>
      <point x="379" y="-164" type="curve" smooth="yes"/>
      <point x="350" y="-164"/>
      <point x="335" y="-144"/>
      <point x="331" y="-124" type="curve"/>
      <point x="283" y="-142" type="line"/>
      <point x="293" y="-182"/>
      <point x="323" y="-212"/>
      <point x="380" y="-212" type="curve" smooth="yes"/>
      <point x="432" y="-212"/>
      <point x="473" y="-176"/>
      <point x="473" y="-121" type="curve" smooth="yes"/>
      <point x="473" y="-75"/>
      <point x="443" y="-36"/>
      <point x="397" y="-36" type="curve" smooth="yes"/>
      <point x="369" y="-36"/>
      <point x="351" y="-48"/>
      <point x="343" y="-68" type="curve"/>
      <point x="337" y="-68" type="line"/>
      <point x="352" y="0" type="line"/>
      <point x="472" y="0" type="line"/>
      <point x="472" y="72" type="line"/>
      <point x="331" y="72" type="line" smooth="yes"/>
      <point x="312" y="72"/>
      <point x="304" y="83"/>
      <point x="304" y="102" type="curve" smooth="yes"/>
      <point x="304" y="424" type="line"/>
      <point x="496" y="424" type="line"/>
      <point x="496" y="496" type="line"/>
      <point x="304" y="496" type="line"/>
      <point x="304" y="700" type="line"/>
      <point x="226" y="700" type="line"/>
      <point x="226" y="496" type="line"/>
      <point x="70" y="496" type="line"/>
      <point x="70" y="424" type="line"/>
      <point x="226" y="424" type="line"/>
      <point x="226" y="78" type="line" smooth="yes"/>
      <point x="226" y="33"/>
      <point x="258" y="0"/>
    </contour>
  </outline>
</glyph>
<glyph name="Uogonek" format="1">
  <advance width="612"/>
  <unicode hex="0172"/>
  <outline>
    <contour>
      <point x="66" y="700" type="line"/>
      <point x="66" y="236" type="line" smooth="yes"/>
      <point x="66" y="87"/>
      <point x="143" y="1"/>
      <point x="270" y="-12" type="curve"/>
      <point x="258" y="-66" type="line" smooth="yes"/>
      <point x="256" y="-76"/>
      <point x="255" y="-83"/>
      <point x="255" y="-90" type="curve" smooth="yes"/>
      <point x="255" y="-139"/>
      <point x="294" y="-164"/>
      <point x="333" y="-164" type="curve" smooth="yes"/>
      <point x="389" y="-164" type="line"/>
      <point x="389" y="-98" type="line"/>
      <point x="347" y="-98" type="line" smooth="yes"/>
      <point x="333" y="-98"/>
      <point x="324" y="-90"/>
      <point x="324" y="-76" type="curve" smooth="yes"/>
      <point x="324" y="-75"/>
      <point x="324" y="-73"/>
      <point x="325" y="-68" type="curve" smooth="yes"/>
      <point x="338" y="-12" type="line"/>
      <point x="467" y="0"/>
      <point x="546" y="86"/>
      <point x="546" y="236" type="curve" smooth="yes"/>
      <point x="546" y="700" type="line"/>
      <point x="462" y="700" type="line"/>
      <point x="462" y="236" type="line" smooth="yes"/>
      <point x="462" y="124"/>
      <point x="408" y="64"/>
      <point x="306" y="64" type="curve" smooth="yes"/>
      <point x="204" y="64"/>
      <point x="150" y="124"/>
      <point x="150" y="236" type="curve" smooth="yes"/>
      <point x="150" y="700" type="line"/>
    </contour>
  </outline>
</glyph>
<glyph name="longs" format="1">
  <advance width="612"/>
  <unicode hex="017F"/>
  <outline>
    <contour>
      <point x="180" y="424" type="line"/>
      <point x="240" y="424" type="line"/>
      <point x="240" y="0" type="line"/>
      <point x="318" y="0" type="line"/>
      <point x="318" y="598" type="line" smooth="yes"/>
      <point x="318" y="617"/>
      <point x="326" y="628"/>
      <point x="345" y="628" type="curve" smooth="yes"/>
      <point x="513" y="628" type="line"/>
      <point x="513" y="700" type="line"/>
      <point x="317" y="700" type="line" smooth="yes"/>
      <point x="272" y="700"/>
      <point x="240" y="667"/>
      <point x="240" y="622" type="curve" smooth="yes"/>
      <point x="240" y="496" type="line"/>
      <point x="180" y="496" type="line"/>
    </contour>
  </outline>
</glyph>
<glyph name="uni018F" format="1">
  <advance width="612"/>
  <unicode hex="018F"/>
  <outline>
    <contour>
      <point x="60" y="240" type="line" smooth="yes"/>
      <point x="60" y="98"/>
      <point x="146" y="-14"/>
      <point x="306" y="-14" type="curve" smooth="yes"/>
      <point x="460" y="-14"/>
      <point x="552" y="86"/>
      <point x="552" y="272" type="curve" smooth="yes"/>
      <point x="552" y="428" type="line" smooth="yes"/>
      <point x="552" y="608"/>
      <point x="460" y="714"/>
      <point x="306" y="714" type="curve" smooth="yes"/>
      <point x="146" y="714"/>
      <point x="60" y="602"/>
      <point x="60" y="460" type="curve" smooth="yes"/>
      <point x="60" y="448" type="line"/>
      <point x="144" y="448" type="line"/>
      <point x="144" y="460" type="line" smooth="yes"/>
      <point x="146" y="552"/>
      <point x="192" y="638"/>
      <point x="306" y="638" type="curve" smooth="yes"/>
      <point x="414" y="638"/>
      <point x="468" y="550"/>
      <point x="468" y="422" type="curve" smooth="yes"/>
      <point x="468" y="362" type="line"/>
      <point x="60" y="362" type="line"/>
    </contour>
    <contour>
      <point x="306" y="62" type="curve" smooth="yes"/>
      <point x="192" y="62"/>
      <point x="144" y="148"/>
      <point x="144" y="240" type="curve" smooth="yes"/>
      <point x="144" y="284" type="line"/>
      <point x="468" y="284" type="line"/>
      <point x="468" y="278" type="line" smooth="yes"/>
      <point x="468" y="142"/>
      <point x="414" y="62"/>
    </contour>
  </outline>
</glyph>
<glyph name="florin" format="1">
  <advance width="612"/>
  <unicode hex="0192"/>
  <outline>
    <contour>
      <point x="177" y="438" type="line"/>
      <point x="177" y="366" type="line"/>
      <point x="267" y="366" type="line"/>
      <point x="267" y="204" type="line" smooth="yes"/>
      <point x="267" y="185"/>
      <point x="259" y="174"/>
      <point x="240" y="174" type="curve" smooth="yes"/>
      <point x="126" y="174" type="line"/>
      <point x="126" y="102" type="line"/>
      <point x="268" y="102" type="line" smooth="yes"/>
      <point x="313" y="102"/>
      <point x="345" y="135"/>
      <point x="345" y="180" type="curve" smooth="yes"/>
      <point x="345" y="366" type="line"/>
      <point x="435" y="366" type="line"/>
      <point x="435" y="438" type="line"/>
      <point x="345" y="438" type="line"/>
      <point x="345" y="496" type="line" smooth="yes"/>
      <point x="345" y="515"/>
      <point x="353" y="526"/>
      <point x="372" y="526" type="curve" smooth="yes"/>
      <point x="486" y="526" type="line"/>
      <point x="486" y="598" type="line"/>
      <point x="344" y="598" type="line" smooth="yes"/>
      <point x="299" y="598"/>
      <point x="267" y="565"/>
      <point x="267" y="520" type="curve" smooth="yes"/>
      <point x="267" y="438" type="line"/>
    </contour>
  </outline>
</glyph>
<glyph name="uni01A1" format="1">
  <advance width="612"/>
  <unicode hex="01A1"/>
  <outline>
    <contour>
      <point x="466" y="426" type="curve" smooth="yes"/>
      <point x="466" y="388"/>
      <point x="498" y="356"/>
      <point x="535" y="356" type="curve" smooth="yes"/>
      <point x="541" y="356"/>
      <point x="547" y="357"/>
      <point x="552" y="359" type="curve"/>
      <point x="552" y="334" type="line" smooth="yes"/>
      <point x="552" y="315"/>
      <point x="544" y="304"/>
      <point x="525" y="304" type="curve" smooth="yes"/>
      <point x="463" y="304" type="line"/>
      <point x="447" y="434"/>
      <point x="366" y="510"/>
      <point x="253" y="510" type="curve" smooth="yes"/>
      <point x="126" y="510"/>
      <point x="40" y="414"/>
      <point x="40" y="254" type="curve" smooth="yes"/>
      <point x="40" y="242" type="line" smooth="yes"/>
      <point x="40" y="80"/>
      <point x="125" y="-14"/>
      <point x="253" y="-14" type="curve" smooth="yes"/>
      <point x="381" y="-14"/>
      <point x="466" y="80"/>
      <point x="466" y="242" type="curve" smooth="yes"/>
      <point x="466" y="250" type="line"/>
      <point x="529" y="250" type="line" smooth="yes"/>
      <point x="574" y="250"/>
      <point x="606" y="283"/>
      <point x="606" y="328" type="curve" smooth="yes"/>
      <point x="606" y="426" type="line" smooth="yes"/>
      <point x="606" y="464"/>
      <point x="574" y="496"/>
      <point x="536" y="496" type="curve" smooth="yes"/>
      <point x="498" y="496"/>
      <point x="466" y="464"/>
    </contour>
    <contour>
      <point x="253" y="60" type="curve" smooth="yes"/>
      <point x="164" y="60"/>
      <point x="120" y="130"/>
      <point x="120" y="242" type="curve" smooth="yes"/>
      <point x="120" y="254" type="line" smooth="yes"/>
      <point x="120" y="362"/>
      <point x="165" y="436"/>
      <point x="253" y="436" type="curve" smooth="yes"/>
      <point x="341" y="436"/>
      <point x="386" y="362"/>
      <point x="386" y="254" type="curve" smooth="yes"/>
      <point x="386" y="242" type="line" smooth="yes"/>
      <point x="386" y="130"/>
      <point x="342" y="60"/>
    </contour>
  </outline>
</glyph>
<glyph name="uni01B0" format="1">
  <advance width="612"/>
  <unicode hex="01B0"/>
  <outline>
    <contour>
      <point x="352" y="208" type="line" smooth="yes"/>
      <point x="352" y="118"/>
      <point x="312" y="60"/>
      <point x="226" y="60" type="curve" smooth="yes"/>
      <point x="156" y="60"/>
      <point x="118" y="96"/>
      <point x="118" y="180" type="curve" smooth="yes"/>
      <point x="118" y="496" type="line"/>
      <point x="40" y="496" type="line"/>
      <point x="40" y="166" type="line" smooth="yes"/>
      <point x="40" y="50"/>
      <point x="104" y="-14"/>
      <point x="208" y="-14" type="curve" smooth="yes"/>
      <point x="282" y="-14"/>
      <point x="318" y="20"/>
      <point x="340" y="68" type="curve"/>
      <point x="352" y="68" type="line"/>
      <point x="352" y="0" type="line"/>
      <point x="430" y="0" type="line"/>
      <point x="430" y="250" type="line"/>
      <point x="529" y="250" type="line" smooth="yes"/>
      <point x="574" y="250"/>
      <point x="606" y="283"/>
      <point x="606" y="328" type="curve" smooth="yes"/>
      <point x="606" y="426" type="line" smooth="yes"/>
      <point x="606" y="464"/>
      <point x="574" y="496"/>
      <point x="536" y="496" type="curve" smooth="yes"/>
      <point x="498" y="496"/>
      <point x="466" y="464"/>
      <point x="466" y="426" type="curve" smooth="yes"/>
      <point x="466" y="388"/>
      <point x="498" y="356"/>
      <point x="535" y="356" type="curve" smooth="yes"/>
      <point x="541" y="356"/>
      <point x="547" y="357"/>
      <point x="552" y="359" type="curve"/>
      <point x="552" y="334" type="line" smooth="yes"/>
      <point x="552" y="315"/>
      <point x="544" y="304"/>
      <point x="525" y="304" type="curve" smooth="yes"/>
      <point x="430" y="304" type="line"/>
      <point x="430" y="496" type="line"/>
      <point x="352" y="496" type="line"/>
    </contour>
  </outline>
</glyph>
<glyph name="uni01D5" format="1">
  <advance width="612"/>
  <unicode hex="01D5"/>
  <outline>
    <contour>
      <point x="476" y="966" type="line"/>
      <point x="136" y="966" type="line"/>
      <point x="136" y="900" type="line"/>
      <point x="476" y="900" type="line"/>
    </contour>
    <component base="U"/>
    <component base="dieresis" yOffset="156"/>
  </outline>
</glyph>
<glyph name="uni01E7" format="1">
  <advance width="612"/>
  <unicode hex="01E7"/>
  <outline>
    <contour>
      <point x="464" y="-98" type="line" smooth="yes"/>
      <point x="464" y="-117"/>
      <point x="456" y="-128"/>
      <point x="437" y="-128" type="curve" smooth="yes"/>
      <point x="142" y="-128" type="line"/>
      <point x="142" y="-200" type="line"/>
      <point x="465" y="-200" type="line" smooth="yes"/>
      <point x="510" y="-200"/>
      <point x="542" y="-167"/>
      <point x="542" y="-122" type="curve" smooth="yes"/>
      <point x="542" y="496" type="line"/>
      <point x="464" y="496" type="line"/>
      <point x="464" y="418" type="line"/>
      <point x="452" y="418" type="line"/>
      <point x="422" y="478"/>
      <point x="366" y="510"/>
      <point x="294" y="510" type="curve" smooth="yes"/>
      <point x="166" y="510"/>
      <point x="52" y="417"/>
      <point x="52" y="256" type="curve" smooth="yes"/>
      <point x="52" y="240" type="line" smooth="yes"/>
      <point x="52" y="77"/>
      <point x="164" y="-14"/>
      <point x="296" y="-14" type="curve" smooth="yes"/>
      <point x="361" y="-14"/>
      <point x="420" y="16"/>
      <point x="452" y="76" type="curve"/>
      <point x="464" y="76" type="line"/>
    </contour>
    <contour>
      <point x="298" y="60" type="curve" smooth="yes"/>
      <point x="203" y="60"/>
      <point x="132" y="129"/>
      <point x="132" y="240" type="curve" smooth="yes"/>
      <point x="132" y="256" type="line" smooth="yes"/>
      <point x="132" y="363"/>
      <point x="204" y="436"/>
      <point x="298" y="436" type="curve" smooth="yes"/>
      <point x="390" y="436"/>
      <point x="464" y="360"/>
      <point x="464" y="254" type="curve" smooth="yes"/>
      <point x="464" y="242" type="line" smooth="yes"/>
      <point x="464" y="132"/>
      <point x="391" y="60"/>
    </contour>
    <component base="caron" xOffset="-12"/>
  </outline>
</glyph>
<glyph name="uni0237" format="1">
  <advance width="612"/>
  <unicode hex="0237"/>
  <outline>
    <contour>
      <point x="141" y="424" type="line"/>
      <point x="339" y="424" type="line"/>
      <point x="339" y="-98" type="line" smooth="yes"/>
      <point x="339" y="-117"/>
      <point x="331" y="-128"/>
      <point x="312" y="-128" type="curve" smooth="yes"/>
      <point x="117" y="-128" type="line"/>
      <point x="117" y="-200" type="line"/>
      <point x="340" y="-200" type="line" smooth="yes"/>
      <point x="385" y="-200"/>
      <point x="417" y="-167"/>
      <point x="417" y="-122" type="curve" smooth="yes"/>
      <point x="417" y="496" type="line"/>
      <point x="141" y="496" type="line"/>
    </contour>
  </outline>
</glyph>
<glyph name="circumflex" format="1">
  <advance width="612"/>
  <unicode hex="02C6"/>
  <outline>
    <contour>
      <point x="448" y="570" type="line"/>
      <point x="368" y="688" type="line"/>
      <point x="244" y="688" type="line"/>
      <point x="164" y="570" type="line"/>
      <point x="248" y="570" type="line"/>
      <point x="300" y="658" type="line"/>
      <point x="312" y="658" type="line"/>
      <point x="364" y="570" type="line"/>
    </contour>
  </outline>
</glyph>
<glyph name="breve" format="1">
  <advance width="612"/>
  <unicode hex="02D8"/>
  <outline>
    <contour>
      <point x="345" y="688" type="line"/>
      <point x="345" y="676" type="line"/>
      <point x="345" y="655"/>
      <point x="331" y="637"/>
      <point x="306" y="637" type="curve" smooth="yes"/>
      <point x="281" y="637"/>
      <point x="267" y="655"/>
      <point x="267" y="676" type="curve"/>
      <point x="267" y="688" type="line"/>
      <point x="198" y="688" type="line"/>
      <point x="198" y="678" type="line"/>
      <point x="198" y="614"/>
      <point x="240" y="570"/>
      <point x="306" y="570" type="curve" smooth="yes"/>
      <point x="372" y="570"/>
      <point x="414" y="614"/>
      <point x="414" y="678" type="curve"/>
      <point x="414" y="688" type="line"/>
    </contour>
  </outline>
</glyph>
<glyph name="ogonek" format="1">
  <advance width="612"/>
  <unicode hex="02DB"/>
  <outline>
    <contour>
      <point x="280" y="30" type="line"/>
      <point x="259" y="-66" type="line" smooth="yes"/>
      <point x="257" y="-76"/>
      <point x="256" y="-83"/>
      <point x="256" y="-90" type="curve" smooth="yes"/>
      <point x="256" y="-139"/>
      <point x="295" y="-164"/>
      <point x="334" y="-164" type="curve" smooth="yes"/>
      <point x="390" y="-164" type="line"/>
      <point x="390" y="-98" type="line"/>
      <point x="348" y="-98" type="line" smooth="yes"/>
      <point x="334" y="-98"/>
      <point x="325" y="-90"/>
      <point x="325" y="-76" type="curve" smooth="yes"/>
      <point x="325" y="-75"/>
      <point x="325" y="-73"/>
      <point x="326" y="-68" type="curve" smooth="yes"/>
      <point x="349" y="30" type="line"/>
    </contour>
  </outline>
</glyph>
<glyph name="tilde" format="1">
  <advance width="612"/>
  <unicode hex="02DC"/>
  <outline>
    <contour>
      <point x="337" y="639" type="curve" smooth="yes"/>
      <point x="313" y="682"/>
      <point x="295" y="700"/>
      <point x="256" y="700" type="curve" smooth="yes"/>
      <point x="220" y="700"/>
      <point x="196" y="681"/>
      <point x="177" y="658" type="curve" smooth="yes"/>
      <point x="136" y="609" type="line"/>
      <point x="185" y="567" type="line"/>
      <point x="231" y="620" type="line" smooth="yes"/>
      <point x="239" y="629"/>
      <point x="245" y="632"/>
      <point x="253" y="632" type="curve" smooth="yes"/>
      <point x="264" y="632"/>
      <point x="268" y="626"/>
      <point x="277" y="610" type="curve" smooth="yes"/>
      <point x="299" y="569"/>
      <point x="317" y="551"/>
      <point x="358" y="551" type="curve" smooth="yes"/>
      <point x="393" y="551"/>
      <point x="417" y="570"/>
      <point x="436" y="593" type="curve" smooth="yes"/>
      <point x="477" y="642" type="line"/>
      <point x="428" y="684" type="line"/>
      <point x="380" y="629" type="line" smooth="yes"/>
      <point x="374" y="622"/>
      <point x="368" y="619"/>
      <point x="361" y="619" type="curve" smooth="yes"/>
      <point x="349" y="619"/>
      <point x="344" y="626"/>
    </contour>
  </outline>
</glyph>
<glyph name="acutecomb" format="1">
  <advance width="612"/>
  <unicode hex="0301"/>
  <outline>
    <contour>
      <point x="294" y="818" type="line"/>
      <point x="228" y="700" type="line"/>
      <point x="300" y="700" type="line"/>
      <point x="384" y="818" type="line"/>
    </contour>
  </outline>
</glyph>
<glyph name="uni0309" format="1">
  <advance width="612"/>
  <unicode hex="0309"/>
  <outline>
    <contour>
      <point x="231" y="546" type="line"/>
      <point x="211" y="638" type="line"/>
      <point x="211" y="644" type="line"/>
      <point x="287" y="644" type="line"/>
      <point x="291" y="636"/>
      <point x="300" y="630"/>
      <point x="312" y="630" type="curve" smooth="yes"/>
      <point x="331" y="630"/>
      <point x="347" y="644"/>
      <point x="347" y="668" type="curve" smooth="yes"/>
      <point x="347" y="697"/>
      <point x="327" y="710"/>
      <point x="307" y="710" type="curve" smooth="yes"/>
      <point x="278" y="710"/>
      <point x="263" y="690"/>
      <point x="259" y="670" type="curve"/>
      <point x="211" y="688" type="line"/>
      <point x="221" y="728"/>
      <point x="251" y="758"/>
      <point x="308" y="758" type="curve" smooth="yes"/>
      <point x="360" y="758"/>
      <point x="401" y="722"/>
      <point x="401" y="667" type="curve" smooth="yes"/>
      <point x="401" y="621"/>
      <point x="371" y="582"/>
      <point x="325" y="582" type="curve" smooth="yes"/>
      <point x="297" y="582"/>
      <point x="279" y="594"/>
      <point x="271" y="614" type="curve"/>
      <point x="265" y="614" type="line"/>
      <point x="280" y="546" type="line"/>
    </contour>
  </outline>
</glyph>
<glyph name="uni0323" format="1">
  <advance width="612"/>
  <unicode hex="0323"/>
  <outline>
    <contour>
      <point x="236" y="-134" type="curve" smooth="yes"/>
      <point x="236" y="-172"/>
      <point x="268" y="-204"/>
      <point x="306" y="-204" type="curve" smooth="yes"/>
      <point x="344" y="-204"/>
      <point x="376" y="-172"/>
      <point x="376" y="-134" type="curve" smooth="yes"/>
      <point x="376" y="-96"/>
      <point x="344" y="-64"/>
      <point x="306" y="-64" type="curve" smooth="yes"/>
      <point x="268" y="-64"/>
      <point x="236" y="-96"/>
    </contour>
  </outline>
</glyph>
<glyph name="pi" format="1">
  <advance width="612"/>
  <unicode hex="03C0"/>
  <outline>
    <contour>
      <point x="218" y="0" type="line"/>
      <point x="218" y="424" type="line"/>
      <point x="396" y="424" type="line"/>
      <point x="396" y="78" type="line" smooth="yes"/>
      <point x="396" y="33"/>
      <point x="428" y="0"/>
      <point x="473" y="0" type="curve" smooth="yes"/>
      <point x="546" y="0" type="line"/>
      <point x="546" y="72" type="line"/>
      <point x="501" y="72" type="line" smooth="yes"/>
      <point x="482" y="72"/>
      <point x="474" y="83"/>
      <point x="474" y="102" type="curve" smooth="yes"/>
      <point x="474" y="424" type="line"/>
      <point x="546" y="424" type="line"/>
      <point x="546" y="496" type="line"/>
      <point x="68" y="496" type="line"/>
      <point x="68" y="424" type="line"/>
      <point x="140" y="424" type="line"/>
      <point x="140" y="0" type="line"/>
    </contour>
  </outline>
</glyph>
<glyph name="uni1E39" format="1">
  <advance width="612"/>
  <unicode hex="1E39"/>
  <outline>
    <contour>
      <point x="345" y="840" type="line"/>
      <point x="93" y="840" type="line"/>
      <point x="93" y="774" type="line"/>
      <point x="345" y="774" type="line"/>
    </contour>
    <component base="l"/>
    <component base="period" yOffset="-190"/>
  </outline>
</glyph>
<glyph name="uni1E6F" format="1">
  <advance width="612"/>
  <unicode hex="1E6F"/>
  <outline>
    <contour>
      <point x="472" y="-64" type="line"/>
      <point x="226" y="-64" type="line"/>
      <point x="226" y="-130" type="line"/>
      <point x="472" y="-130" type="line"/>
    </contour>
    <component base="t"/>
  </outline>
</glyph>
<glyph name="uni1E9E" format="1">
  <advance width="612"/>
  <unicode hex="1E9E"/>
  <outline>
    <contour>
      <point x="343" y="348" type="line" smooth="yes"/>
      <point x="423" y="348"/>
      <point x="483" y="300"/>
      <point x="483" y="221" type="curve" smooth="yes"/>
      <point x="483" y="215" type="line" smooth="yes"/>
      <point x="483" y="136"/>
      <point x="415" y="78"/>
      <point x="327" y="78" type="curve" smooth="yes"/>
      <point x="249" y="78" type="line"/>
      <point x="249" y="0" type="line"/>
      <point x="329" y="0" type="line" smooth="yes"/>
      <point x="465" y="0"/>
      <point x="567" y="94"/>
      <point x="567" y="210" type="curve" smooth="yes"/>
      <point x="567" y="222" type="line" smooth="yes"/>
      <point x="567" y="346"/>
      <point x="470" y="414"/>
      <point x="361" y="414" type="curve" smooth="yes"/>
      <point x="321" y="414" type="line"/>
      <point x="321" y="426" type="line"/>
      <point x="513" y="570" type="line"/>
      <point x="513" y="700" type="line"/>
      <point x="297" y="700" type="line" smooth="yes"/>
      <point x="178" y="700"/>
      <point x="96" y="628"/>
      <point x="96" y="496" type="curve"/>
      <point x="36" y="496" type="line"/>
      <point x="36" y="418" type="line"/>
      <point x="96" y="418" type="line"/>
      <point x="96" y="0" type="line"/>
      <point x="180" y="0" type="line"/>
      <point x="180" y="496" type="line" smooth="yes"/>
      <point x="180" y="582"/>
      <point x="230" y="622"/>
      <point x="303" y="622" type="curve" smooth="yes"/>
      <point x="441" y="622" type="line"/>
      <point x="441" y="610" type="line"/>
      <point x="249" y="466" type="line"/>
      <point x="249" y="348" type="line"/>
    </contour>
  </outline>
</glyph>
<glyph name="uni1EA3" format="1">
  <advance width="612"/>
  <unicode hex="1EA3"/>
  <outline>
    <contour>
      <point x="243" y="546" type="line"/>
      <point x="223" y="638" type="line"/>
      <point x="223" y="644" type="line"/>
      <point x="299" y="644" type="line"/>
      <point x="303" y="636"/>
      <point x="312" y="630"/>
      <point x="324" y="630" type="curve" smooth="yes"/>
      <point x="343" y="630"/>
      <point x="359" y="644"/>
      <point x="359" y="668" type="curve" smooth="yes"/>
      <point x="359" y="697"/>
      <point x="339" y="710"/>
      <point x="319" y="710" type="curve" smooth="yes"/>
      <point x="290" y="710"/>
      <point x="275" y="690"/>
      <point x="271" y="670" type="curve"/>
      <point x="223" y="688" type="line"/>
      <point x="233" y="728"/>
      <point x="263" y="758"/>
      <point x="320" y="758" type="curve" smooth="yes"/>
      <point x="372" y="758"/>
      <point x="413" y="722"/>
      <point x="413" y="667" type="curve" smooth="yes"/>
      <point x="413" y="621"/>
      <point x="383" y="582"/>
      <point x="337" y="582" type="curve" smooth="yes"/>
      <point x="309" y="582"/>
      <point x="291" y="594"/>
      <point x="283" y="614" type="curve"/>
      <point x="277" y="614" type="line"/>
      <point x="292" y="546" type="line"/>
    </contour>
    <component base="a"/>
  </outline>
</glyph>
<glyph name="uni1EE6" format="1">
  <advance width="612"/>
  <unicode hex="1EE6"/>
  <outline>
    <contour>
      <point x="266" y="750" type="line"/>
      <point x="246" y="842" type="line"/>
      <point x="246" y="848" type="line"/>
      <point x="322" y="848" type="line"/>
      <point x="326" y="840"/>
      <point x="335" y="834"/>
      <point x="347" y="834" type="curve" smooth="yes"/>
      <point x="366" y="834"/>
      <point x="382" y="848"/>
      <point x="382" y="872" type="curve" smooth="yes"/>
      <point x="382" y="901"/>
      <point x="362" y="914"/>
      <point x="342" y="914" type="curve" smooth="yes"/>
      <point x="313" y="914"/>
      <point x="298" y="894"/>
      <point x="294" y="874" type="curve"/>
      <point x="246" y="892" type="line"/>
      <point x="256" y="932"/>
      <point x="286" y="962"/>
      <point x="343" y="962" type="curve" smooth="yes"/>
      <point x="395" y="962"/>
      <point x="436" y="926"/>
      <point x="436" y="871" type="curve" smooth="yes"/>
      <point x="436" y="825"/>
      <point x="406" y="786"/>
      <point x="360" y="786" type="curve" smooth="yes"/>
      <point x="332" y="786"/>
      <point x="314" y="798"/>
      <point x="306" y="818" type="curve"/>
      <point x="300" y="818" type="line"/>
      <point x="315" y="750" type="line"/>
    </contour>
    <component base="U"/>
  </outline>
</glyph>
<glyph name="uni1EEC" format="1">
  <advance width="612"/>
  <unicode hex="1EEC"/>
  <outline>
    <contour>
      <point x="210" y="750" type="line"/>
      <point x="190" y="842" type="line"/>
      <point x="190" y="848" type="line"/>
      <point x="266" y="848" type="line"/>
      <point x="270" y="840"/>
      <point x="279" y="834"/>
      <point x="291" y="834" type="curve" smooth="yes"/>
      <point x="310" y="834"/>
      <point x="326" y="848"/>
      <point x="326" y="872" type="curve" smooth="yes"/>
      <point x="326" y="901"/>
      <point x="306" y="914"/>
      <point x="286" y="914" type="curve" smooth="yes"/>
      <point x="257" y="914"/>
      <point x="242" y="894"/>
      <point x="238" y="874" type="curve"/>
      <point x="190" y="892" type="line"/>
      <point x="200" y="932"/>
      <point x="230" y="962"/>
      <point x="287" y="962" type="curve" smooth="yes"/>
      <point x="339" y="962"/>
      <point x="380" y="926"/>
      <point x="380" y="871" type="curve" smooth="yes"/>
      <point x="380" y="825"/>
      <point x="350" y="786"/>
      <point x="304" y="786" type="curve" smooth="yes"/>
      <point x="276" y="786"/>
      <point x="258" y="798"/>
      <point x="250" y="818" type="curve"/>
      <point x="244" y="818" type="line"/>
      <point x="259" y="750" type="line"/>
    </contour>
    <component base="uni01AF"/>
  </outline>
</glyph>
<glyph name="uni1EF5" format="1">
  <advance width="612"/>
  <unicode hex="1EF5"/>
  <outline>
    <contour>
      <point x="447" y="-68" type="line" smooth="yes"/>
      <point x="447" y="-87"/>
      <point x="439" y="-98"/>
      <point x="420" y="-98" type="curve" smooth="yes"/>
      <point x="275" y="-98" type="line"/>
      <point x="275" y="-170" type="line"/>
      <point x="448" y="-170" type="line" smooth="yes"/>
      <point x="493" y="-170"/>
      <point x="525" y="-137"/>
      <point x="525" y="-92" type="curve" smooth="yes"/>
      <point x="525" y="496" type="line"/>
      <point x="447" y="496" type="line"/>
      <point x="447" y="238" type="line" smooth="yes"/>
      <point x="447" y="130"/>
      <point x="389" y="60"/>
      <point x="295" y="60" type="curve" smooth="yes"/>
      <point x="207" y="60"/>
      <point x="165" y="106"/>
      <point x="165" y="210" type="curve" smooth="yes"/>
      <point x="165" y="496" type="line"/>
      <point x="87" y="496" type="line"/>
      <point x="87" y="200" type="line" smooth="yes"/>
      <point x="87" y="58"/>
      <point x="163" y="-14"/>
      <point x="273" y="-14" type="curve" smooth="yes"/>
      <point x="353" y="-14"/>
      <point x="403" y="26"/>
      <point x="435" y="90" type="curve"/>
      <point x="447" y="90" type="line"/>
    </contour>
    <component base="period" xOffset="-149" yOffset="-190"/>
  </outline>
</glyph>
<glyph name="uni1EF7" format="1">
  <advance width="612"/>
  <unicode hex="1EF7"/>
  <outline>
    <contour>
      <point x="267" y="546" type="line"/>
      <point x="247" y="638" type="line"/>
      <point x="247" y="644" type="line"/>
      <point x="323" y="644" type="line"/>
      <point x="327" y="636"/>
      <point x="336" y="630"/>
      <point x="348" y="630" type="curve" smooth="yes"/>
      <point x="367" y="630"/>
      <point x="383" y="644"/>
      <point x="383" y="668" type="curve" smooth="yes"/>
      <point x="383" y="697"/>
      <point x="363" y="710"/>
      <point x="343" y="710" type="curve" smooth="yes"/>
      <point x="314" y="710"/>
      <point x="299" y="690"/>
      <point x="295" y="670" type="curve"/>
      <point x="247" y="688" type="line"/>
      <point x="257" y="728"/>
      <point x="287" y="758"/>
      <point x="344" y="758" type="curve" smooth="yes"/>
      <point x="396" y="758"/>
      <point x="437" y="722"/>
      <point x="437" y="667" type="curve" smooth="yes"/>
      <point x="437" y="621"/>
      <point x="407" y="582"/>
      <point x="361" y="582" type="curve" smooth="yes"/>
      <point x="333" y="582"/>
      <point x="315" y="594"/>
      <point x="307" y="614" type="curve"/>
      <point x="301" y="614" type="line"/>
      <point x="316" y="546" type="line"/>
    </contour>
    <component base="y"/>
  </outline>
</glyph>
<glyph name="quoteleft" format="1">
  <advance width="612"/>
  <unicode hex="2018"/>
  <outline>
    <contour>
      <point x="376" y="538" type="curve"/>
      <point x="376" y="576"/>
      <point x="344" y="608"/>
      <point x="307" y="608" type="curve" smooth="yes"/>
      <point x="301" y="608"/>
      <point x="295" y="607"/>
      <point x="290" y="605" type="curve"/>
      <point x="290" y="630" type="line" smooth="yes"/>
      <point x="290" y="649"/>
      <point x="298" y="660"/>
      <point x="317" y="660" type="curve" smooth="yes"/>
      <point x="364" y="660" type="line"/>
      <point x="364" y="714" type="line"/>
      <point x="313" y="714" type="line" smooth="yes"/>
      <point x="268" y="714"/>
      <point x="236" y="681"/>
      <point x="236" y="636" type="curve" smooth="yes"/>
      <point x="236" y="538" type="line" smooth="yes"/>
      <point x="236" y="500"/>
      <point x="268" y="468"/>
      <point x="306" y="468" type="curve" smooth="yes"/>
      <point x="344" y="468"/>
      <point x="376" y="500"/>
    </contour>
  </outline>
</glyph>
<glyph name="quotedblright" format="1">
  <advance width="612"/>
  <unicode hex="201D"/>
  <outline>
    <contour>
      <point x="327" y="644" type="curve"/>
      <point x="327" y="606"/>
      <point x="359" y="574"/>
      <point x="396" y="574" type="curve" smooth="yes"/>
      <point x="402" y="574"/>
      <point x="408" y="575"/>
      <point x="413" y="577" type="curve"/>
      <point x="413" y="552" type="line" smooth="yes"/>
      <point x="413" y="533"/>
      <point x="405" y="522"/>
      <point x="386" y="522" type="curve" smooth="yes"/>
      <point x="339" y="522" type="line"/>
      <point x="339" y="468" type="line"/>
      <point x="390" y="468" type="line" smooth="yes"/>
      <point x="435" y="468"/>
      <point x="467" y="501"/>
      <point x="467" y="546" type="curve" smooth="yes"/>
      <point x="467" y="644" type="line" smooth="yes"/>
      <point x="467" y="682"/>
      <point x="435" y="714"/>
      <point x="397" y="714" type="curve" smooth="yes"/>
      <point x="359" y="714"/>
      <point x="327" y="682"/>
    </contour>
    <contour>
      <point x="145" y="644" type="curve"/>
      <point x="145" y="606"/>
      <point x="177" y="574"/>
      <point x="214" y="574" type="curve" smooth="yes"/>
      <point x="220" y="574"/>
      <point x="226" y="575"/>
      <point x="231" y="577" type="curve"/>
      <point x="231" y="552" type="line" smooth="yes"/>
      <point x="231" y="533"/>
      <point x="223" y="522"/>
      <point x="204" y="522" type="curve" smooth="yes"/>
      <point x="157" y="522" type="line"/>
      <point x="157" y="468" type="line"/>
      <point x="208" y="468" type="line" smooth="yes"/>
      <point x="253" y="468"/>
      <point x="285" y="501"/>
      <point x="285" y="546" type="curve" smooth="yes"/>
      <point x="285" y="644" type="line" smooth="yes"/>
      <point x="285" y="682"/>
      <point x="253" y="714"/>
      <point x="215" y="714" type="curve" smooth="yes"/>
      <point x="177" y="714"/>
      <point x="145" y="682"/>
    </contour>
  </outline>
</glyph>
<glyph name="bullet" format="1">
  <advance width="612"/>
  <unicode hex="2022"/>
  <outline>
    <contour>
      <point x="188" y="350" type="curve" smooth="yes"/>
      <point x="188" y="286"/>
      <point x="242" y="232"/>
      <point x="306" y="232" type="curve" smooth="yes"/>
      <point x="370" y="232"/>
      <point x="424" y="286"/>
      <point x="424" y="350" type="curve" smooth="yes"/>
      <point x="424" y="414"/>
      <point x="370" y="468"/>
      <point x="306" y="468" type="curve" smooth="yes"/>
      <point x="242" y="468"/>
      <point x="188" y="414"/>
    </contour>
  </outline>
</glyph>
<glyph name="perthousand" format="1">
  <advance width="612"/>
  <unicode hex="2030"/>
  <outline>
    <contour>
      <point x="268" y="90" type="line" smooth="yes"/>
      <point x="268" y="32"/>
      <point x="298" y="-6"/>
      <point x="356" y="-6" type="curve" smooth="yes"/>
      <point x="383" y="-6"/>
      <point x="406" y="6"/>
      <point x="417" y="24" type="curve"/>
      <point x="423" y="24" type="line"/>
      <point x="434" y="6"/>
      <point x="456" y="-6"/>
      <point x="484" y="-6" type="curve" smooth="yes"/>
      <point x="542" y="-6"/>
      <point x="572" y="32"/>
      <point x="572" y="90" type="curve" smooth="yes"/>
      <point x="572" y="198" type="line" smooth="yes"/>
      <point x="572" y="256"/>
      <point x="542" y="294"/>
      <point x="484" y="294" type="curve" smooth="yes"/>
      <point x="456" y="294"/>
      <point x="434" y="282"/>
      <point x="423" y="264" type="curve"/>
      <point x="417" y="264" type="line"/>
      <point x="406" y="282"/>
      <point x="383" y="294"/>
      <point x="356" y="294" type="curve" smooth="yes"/>
      <point x="298" y="294"/>
      <point x="268" y="256"/>
      <point x="268" y="198" type="curve" smooth="yes"/>
    </contour>
    <contour>
      <point x="359" y="240" type="curve" smooth="yes"/>
      <point x="385" y="240"/>
      <point x="390" y="218"/>
      <point x="390" y="196" type="curve" smooth="yes"/>
      <point x="390" y="92" type="line" smooth="yes"/>
      <point x="390" y="70"/>
      <point x="385" y="48"/>
      <point x="359" y="48" type="curve" smooth="yes"/>
      <point x="333" y="48"/>
      <point x="328" y="70"/>
      <point x="328" y="92" type="curve" smooth="yes"/>
      <point x="328" y="196" type="line" smooth="yes"/>
      <point x="328" y="218"/>
      <point x="333" y="240"/>
    </contour>
    <contour>
      <point x="338" y="556" type="curve" smooth="yes"/>
      <point x="338" y="651"/>
      <point x="268" y="706"/>
      <point x="191" y="706" type="curve" smooth="yes"/>
      <point x="114" y="706"/>
      <point x="44" y="651"/>
      <point x="44" y="556" type="curve" smooth="yes"/>
      <point x="44" y="461"/>
      <point x="114" y="406"/>
      <point x="191" y="406" type="curve" smooth="yes"/>
      <point x="268" y="406"/>
      <point x="338" y="461"/>
    </contour>
    <contour>
      <point x="191" y="460" type="curve" smooth="yes"/>
      <point x="139" y="460"/>
      <point x="104" y="493"/>
      <point x="104" y="556" type="curve" smooth="yes"/>
      <point x="104" y="613"/>
      <point x="139" y="652"/>
      <point x="191" y="652" type="curve" smooth="yes"/>
      <point x="243" y="652"/>
      <point x="278" y="613"/>
      <point x="278" y="556" type="curve" smooth="yes"/>
      <point x="278" y="499"/>
      <point x="243" y="460"/>
    </contour>
    <contour>
      <point x="481" y="240" type="curve" smooth="yes"/>
      <point x="507" y="240"/>
      <point x="512" y="218"/>
      <point x="512" y="196" type="curve" smooth="yes"/>
      <point x="512" y="92" type="line" smooth="yes"/>
      <point x="512" y="70"/>
      <point x="507" y="48"/>
      <point x="481" y="48" type="curve" smooth="yes"/>
      <point x="455" y="48"/>
      <point x="450" y="70"/>
      <point x="450" y="92" type="curve" smooth="yes"/>
      <point x="450" y="196" type="line" smooth="yes"/>
      <point x="450" y="218"/>
      <point x="455" y="240"/>
    </contour>
    <component base="fraction" xOffset="-8"/>
  </outline>
</glyph>
<glyph name="fraction" format="1">
  <advance width="612"/>
  <unicode hex="2044"/>
  <outline>
    <contour>
      <point x="58" y="253" type="line"/>
      <point x="82" y="207" type="line"/>
      <point x="555" y="448" type="line"/>
      <point x="531" y="494" type="line"/>
    </contour>
  </outline>
</glyph>
<glyph name="uni2074" format="1">
  <advance width="612"/>
  <unicode hex="2074"/>
  <outline>
    <contour>
      <point x="287" y="700" type="line"/>
      <point x="386" y="700" type="line"/>
      <point x="386" y="514" type="line"/>
      <point x="426" y="514" type="line"/>
      <point x="426" y="466" type="line"/>
      <point x="386" y="466" type="line"/>
      <point x="386" y="412" type="line"/>
      <point x="332" y="412" type="line"/>
      <point x="332" y="466" type="line"/>
      <point x="202" y="466" type="line"/>
      <point x="202" y="532" type="line"/>
    </contour>
    <contour>
      <point x="250" y="520" type="line"/>
      <point x="250" y="514" type="line"/>
      <point x="332" y="514" type="line"/>
      <point x="332" y="670" type="line"/>
      <point x="326" y="670" type="line"/>
    </contour>
  </outline>
</glyph>
<glyph name="uni2075" format="1">
  <advance width="612"/>
  <unicode hex="2075"/>
  <outline>
    <contour>
      <point x="212" y="539" type="line"/>
      <point x="212" y="700" type="line"/>
      <point x="400" y="700" type="line"/>
      <point x="400" y="652" type="line"/>
      <point x="266" y="652" type="line"/>
      <point x="266" y="572" type="line"/>
      <point x="272" y="572" type="line"/>
      <point x="283" y="594"/>
      <point x="305" y="607"/>
      <point x="334" y="607" type="curve" smooth="yes"/>
      <point x="384" y="607"/>
      <point x="418" y="572"/>
      <point x="418" y="514" type="curve" smooth="yes"/>
      <point x="418" y="452"/>
      <point x="384" y="406"/>
      <point x="312" y="406" type="curve" smooth="yes"/>
      <point x="236" y="406"/>
      <point x="206" y="452"/>
      <point x="206" y="499" type="curve" smooth="yes"/>
      <point x="206" y="505" type="line"/>
      <point x="260" y="505" type="line"/>
      <point x="260" y="472"/>
      <point x="279" y="454"/>
      <point x="314" y="454" type="curve" smooth="yes"/>
      <point x="346" y="454"/>
      <point x="364" y="476"/>
      <point x="364" y="514" type="curve" smooth="yes"/>
      <point x="364" y="544"/>
      <point x="346" y="559"/>
      <point x="326" y="559" type="curve" smooth="yes"/>
      <point x="309" y="559"/>
      <point x="299" y="549"/>
      <point x="296" y="539" type="curve"/>
    </contour>
  </outline>
</glyph>
<glyph name="uni2078" format="1">
  <advance width="612"/>
  <unicode hex="2078"/>
  <outline>
    <contour>
      <point x="306" y="406" type="curve"/>
      <point x="358" y="406"/>
      <point x="406" y="432"/>
      <point x="406" y="490" type="curve" smooth="yes"/>
      <point x="406" y="530"/>
      <point x="379" y="552"/>
      <point x="353" y="558" type="curve"/>
      <point x="353" y="564" type="line"/>
      <point x="376" y="570"/>
      <point x="400" y="590"/>
      <point x="400" y="630" type="curve" smooth="yes"/>
      <point x="400" y="676"/>
      <point x="360" y="706"/>
      <point x="306" y="706" type="curve" smooth="yes"/>
      <point x="252" y="706"/>
      <point x="212" y="676"/>
      <point x="212" y="630" type="curve" smooth="yes"/>
      <point x="212" y="590"/>
      <point x="236" y="570"/>
      <point x="259" y="564" type="curve"/>
      <point x="259" y="558" type="line"/>
      <point x="233" y="552"/>
      <point x="206" y="530"/>
      <point x="206" y="490" type="curve" smooth="yes"/>
      <point x="206" y="432"/>
      <point x="254" y="406"/>
    </contour>
    <contour>
      <point x="306" y="454" type="curve"/>
      <point x="280" y="454"/>
      <point x="260" y="470"/>
      <point x="260" y="496" type="curve" smooth="yes"/>
      <point x="260" y="522"/>
      <point x="280" y="538"/>
      <point x="306" y="538" type="curve" smooth="yes"/>
      <point x="332" y="538"/>
      <point x="352" y="522"/>
      <point x="352" y="496" type="curve"/>
      <point x="352" y="470"/>
      <point x="332" y="454"/>
    </contour>
    <contour>
      <point x="306" y="586" type="curve"/>
      <point x="281" y="586"/>
      <point x="260" y="598"/>
      <point x="260" y="622" type="curve" smooth="yes"/>
      <point x="260" y="646"/>
      <point x="281" y="658"/>
      <point x="306" y="658" type="curve" smooth="yes"/>
      <point x="331" y="658"/>
      <point x="352" y="646"/>
      <point x="352" y="622" type="curve" smooth="yes"/>
      <point x="352" y="598"/>
      <point x="331" y="586"/>
    </contour>
  </outline>
</glyph>
<glyph name="uni2079" format="1">
  <advance width="612"/>
  <unicode hex="2079"/>
  <outline>
    <contour>
      <point x="211" y="496" type="line"/>
      <point x="211" y="440"/>
      <point x="250" y="406"/>
      <point x="308" y="406" type="curve" smooth="yes"/>
      <point x="365" y="406"/>
      <point x="406" y="442"/>
      <point x="406" y="502" type="curve" smooth="yes"/>
      <point x="406" y="610" type="line" smooth="yes"/>
      <point x="406" y="668"/>
      <point x="365" y="706"/>
      <point x="306" y="706" type="curve" smooth="yes"/>
      <point x="249" y="706"/>
      <point x="206" y="668"/>
      <point x="206" y="606" type="curve" smooth="yes"/>
      <point x="206" y="552"/>
      <point x="239" y="510"/>
      <point x="291" y="510" type="curve" smooth="yes"/>
      <point x="324" y="510"/>
      <point x="339" y="524"/>
      <point x="346" y="540" type="curve"/>
      <point x="352" y="540" type="line"/>
      <point x="352" y="502" type="line" smooth="yes"/>
      <point x="352" y="473"/>
      <point x="337" y="454"/>
      <point x="309" y="454" type="curve" smooth="yes"/>
      <point x="280" y="454"/>
      <point x="265" y="472"/>
      <point x="265" y="496" type="curve"/>
    </contour>
    <contour>
      <point x="306" y="558" type="curve" smooth="yes"/>
      <point x="278" y="558"/>
      <point x="260" y="578"/>
      <point x="260" y="608" type="curve" smooth="yes"/>
      <point x="260" y="638"/>
      <point x="278" y="658"/>
      <point x="306" y="658" type="curve" smooth="yes"/>
      <point x="334" y="658"/>
      <point x="352" y="638"/>
      <point x="352" y="608" type="curve" smooth="yes"/>
      <point x="352" y="578"/>
      <point x="334" y="558"/>
    </contour>
  </outline>
</glyph>
<glyph name="uni207E" format="1">
  <advance width="612"/>
  <unicode hex="207E"/>
  <outline>
    <contour>
      <point x="208" y="351" type="line"/>
      <point x="208" y="303" type="line"/>
      <point x="226" y="303" type="line" smooth="yes"/>
      <point x="322" y="303"/>
      <point x="404" y="374"/>
      <point x="404" y="493" type="curve" smooth="yes"/>
      <point x="404" y="619" type="line" smooth="yes"/>
      <point x="404" y="738"/>
      <point x="322" y="809"/>
      <point x="226" y="809" type="curve" smooth="yes"/>
      <point x="208" y="809" type="line"/>
      <point x="208" y="761" type="line"/>
      <point x="226" y="761" type="line" smooth="yes"/>
      <point x="298" y="761"/>
      <point x="356" y="702"/>
      <point x="356" y="617" type="curve" smooth="yes"/>
      <point x="356" y="495" type="line" smooth="yes"/>
      <point x="356" y="410"/>
      <point x="298" y="351"/>
      <point x="226" y="351" type="curve" smooth="yes"/>
    </contour>
  </outline>
</glyph>
<glyph name="uni20A1" format="1">
  <advance width="612"/>
  <unicode hex="20A1"/>
  <outline>
    <contour>
      <point x="468" y="296" type="line"/>
      <point x="459" y="238"/>
      <point x="422" y="182"/>
      <point x="351" y="166" type="curve"/>
      <point x="422" y="496" type="line"/>
      <point x="447" y="472"/>
      <point x="462" y="438"/>
      <point x="466" y="404" type="curve"/>
      <point x="544" y="422" type="line"/>
      <point x="533" y="489"/>
      <point x="495" y="544"/>
      <point x="439" y="578" type="curve"/>
      <point x="456" y="657" type="line"/>
      <point x="386" y="672" type="line"/>
      <point x="372" y="605" type="line"/>
      <point x="361" y="607"/>
      <point x="349" y="609"/>
      <point x="337" y="610" type="curve"/>
      <point x="347" y="657" type="line"/>
      <point x="277" y="672" type="line"/>
      <point x="263" y="608" type="line"/>
      <point x="146" y="588"/>
      <point x="54" y="495"/>
      <point x="54" y="354" type="curve" smooth="yes"/>
      <point x="54" y="342" type="line" smooth="yes"/>
      <point x="54" y="244"/>
      <point x="97" y="172"/>
      <point x="161" y="130" type="curve"/>
      <point x="143" y="43" type="line"/>
      <point x="213" y="28" type="line"/>
      <point x="228" y="99" type="line"/>
      <point x="239" y="96"/>
      <point x="251" y="93"/>
      <point x="262" y="91" type="curve"/>
      <point x="252" y="43" type="line"/>
      <point x="322" y="28" type="line"/>
      <point x="335" y="89" type="line"/>
      <point x="451" y="98"/>
      <point x="527" y="175"/>
      <point x="546" y="278" type="curve"/>
    </contour>
    <contour>
      <point x="134" y="342" type="curve"/>
      <point x="134" y="354" type="line" smooth="yes"/>
      <point x="134" y="437"/>
      <point x="180" y="502"/>
      <point x="246" y="527" type="curve"/>
      <point x="180" y="215" type="line"/>
      <point x="151" y="246"/>
      <point x="134" y="289"/>
    </contour>
    <contour>
      <point x="244" y="173" type="curve"/>
      <point x="321" y="537" type="line"/>
      <point x="334" y="536"/>
      <point x="345" y="535"/>
      <point x="356" y="532" type="curve"/>
      <point x="278" y="164" type="line"/>
      <point x="266" y="166"/>
      <point x="254" y="169"/>
    </contour>
  </outline>
</glyph>
<glyph name="uni20B2" format="1">
  <advance width="612"/>
  <unicode hex="20B2"/>
  <outline>
    <contour>
      <point x="338" y="672" type="line"/>
      <point x="266" y="672" type="line"/>
      <point x="266" y="609" type="line"/>
      <point x="176" y="594"/>
      <point x="123" y="521"/>
      <point x="123" y="408" type="curve" smooth="yes"/>
      <point x="123" y="292" type="line" smooth="yes"/>
      <point x="123" y="168"/>
      <point x="173" y="99"/>
      <point x="266" y="89" type="curve"/>
      <point x="266" y="28" type="line"/>
      <point x="338" y="28" type="line"/>
      <point x="338" y="96" type="line"/>
      <point x="367" y="108"/>
      <point x="387" y="131"/>
      <point x="394" y="158" type="curve"/>
      <point x="406" y="158" type="line"/>
      <point x="406" y="102" type="line"/>
      <point x="478" y="102" type="line"/>
      <point x="478" y="348" type="line"/>
      <point x="338" y="348" type="line"/>
      <point x="338" y="534" type="line"/>
      <point x="381" y="519"/>
      <point x="400" y="477"/>
      <point x="400" y="432" type="curve" smooth="yes"/>
      <point x="400" y="420" type="line"/>
      <point x="478" y="420" type="line"/>
      <point x="478" y="432" type="line" smooth="yes"/>
      <point x="478" y="521"/>
      <point x="431" y="594"/>
      <point x="338" y="609" type="curve"/>
    </contour>
    <contour>
      <point x="201" y="286" type="curve"/>
      <point x="201" y="412" type="line" smooth="yes"/>
      <point x="201" y="475"/>
      <point x="220" y="520"/>
      <point x="266" y="534" type="curve"/>
      <point x="266" y="165" type="line"/>
      <point x="222" y="180"/>
      <point x="201" y="224"/>
    </contour>
    <contour>
      <point x="405" y="276" type="line"/>
      <point x="405" y="270" type="line" smooth="yes"/>
      <point x="405" y="213"/>
      <point x="378" y="177"/>
      <point x="338" y="165" type="curve"/>
      <point x="338" y="276" type="line"/>
    </contour>
  </outline>
</glyph>
<glyph name="uni20B9" format="1">
  <advance width="612"/>
  <unicode hex="20B9"/>
  <outline>
    <contour>
      <point x="128" y="526" type="line"/>
      <point x="270" y="526" type="line" smooth="yes"/>
      <point x="311" y="526"/>
      <point x="338" y="511"/>
      <point x="349" y="485" type="curve"/>
      <point x="128" y="485" type="line"/>
      <point x="128" y="413" type="line"/>
      <point x="349" y="413" type="line"/>
      <point x="338" y="387"/>
      <point x="311" y="372"/>
      <point x="270" y="372" type="curve" smooth="yes"/>
      <point x="128" y="372" type="line"/>
      <point x="128" y="300" type="line"/>
      <point x="300" y="300" type="line" smooth="yes"/>
      <point x="329" y="300"/>
      <point x="338" y="286"/>
      <point x="338" y="262" type="curve" smooth="yes"/>
      <point x="338" y="102" type="line"/>
      <point x="416" y="102" type="line"/>
      <point x="416" y="283" type="line" smooth="yes"/>
      <point x="416" y="314"/>
      <point x="398" y="332"/>
      <point x="370" y="336" type="curve"/>
      <point x="370" y="348" type="line"/>
      <point x="401" y="361"/>
      <point x="421" y="385"/>
      <point x="429" y="413" type="curve"/>
      <point x="494" y="413" type="line"/>
      <point x="494" y="485" type="line"/>
      <point x="432" y="485" type="line"/>
      <point x="430" y="500"/>
      <point x="424" y="511"/>
      <point x="415" y="520" type="curve"/>
      <point x="415" y="526" type="line"/>
      <point x="494" y="526" type="line"/>
      <point x="494" y="598" type="line"/>
      <point x="128" y="598" type="line"/>
    </contour>
  </outline>
</glyph>
<glyph name="uni2120" format="1">
  <advance width="612"/>
  <unicode hex="2120"/>
  <outline>
    <contour>
      <point x="304" y="412" type="line"/>
      <point x="358" y="412" type="line"/>
      <point x="358" y="670" type="line"/>
      <point x="364" y="670" type="line"/>
      <point x="381" y="412" type="line"/>
      <point x="471" y="412" type="line"/>
      <point x="489" y="670" type="line"/>
      <point x="495" y="670" type="line"/>
      <point x="495" y="412" type="line"/>
      <point x="549" y="412" type="line"/>
      <point x="549" y="700" type="line"/>
      <point x="445" y="700" type="line"/>
      <point x="429" y="448" type="line"/>
      <point x="423" y="448" type="line"/>
      <point x="408" y="700" type="line"/>
      <point x="304" y="700" type="line"/>
    </contour>
    <contour>
      <point x="217" y="604" type="line"/>
      <point x="271" y="604" type="line"/>
      <point x="271" y="618" type="line" smooth="yes"/>
      <point x="271" y="668"/>
      <point x="235" y="706"/>
      <point x="169" y="706" type="curve" smooth="yes"/>
      <point x="113" y="706"/>
      <point x="74" y="672"/>
      <point x="74" y="624" type="curve" smooth="yes"/>
      <point x="74" y="564"/>
      <point x="114" y="544"/>
      <point x="168" y="535" type="curve" smooth="yes"/>
      <point x="206" y="529"/>
      <point x="220" y="517"/>
      <point x="220" y="492" type="curve" smooth="yes"/>
      <point x="220" y="472"/>
      <point x="206" y="454"/>
      <point x="174" y="454" type="curve" smooth="yes"/>
      <point x="134" y="454"/>
      <point x="116" y="478"/>
      <point x="116" y="514" type="curve" smooth="yes"/>
      <point x="116" y="522" type="line"/>
      <point x="62" y="522" type="line"/>
      <point x="62" y="512" type="line" smooth="yes"/>
      <point x="62" y="452"/>
      <point x="102" y="406"/>
      <point x="175" y="406" type="curve" smooth="yes"/>
      <point x="242" y="406"/>
      <point x="274" y="441"/>
      <point x="274" y="496" type="curve" smooth="yes"/>
      <point x="274" y="542"/>
      <point x="250" y="571"/>
      <point x="188" y="582" type="curve" smooth="yes"/>
      <point x="139" y="591"/>
      <point x="128" y="602"/>
      <point x="128" y="624" type="curve" smooth="yes"/>
      <point x="128" y="644"/>
      <point x="145" y="658"/>
      <point x="170" y="658" type="curve" smooth="yes"/>
      <point x="198" y="658"/>
      <point x="217" y="642"/>
      <point x="217" y="614" type="curve" smooth="yes"/>
    </contour>
  </outline>
</glyph>
<glyph name="trademark" format="1">
  <advance width="612"/>
  <unicode hex="2122"/>
  <outline>
    <contour>
      <point x="62" y="652" type="line"/>
      <point x="137" y="652" type="line"/>
      <point x="137" y="412" type="line"/>
      <point x="191" y="412" type="line"/>
      <point x="191" y="652" type="line"/>
      <point x="266" y="652" type="line"/>
      <point x="266" y="700" type="line"/>
      <point x="62" y="700" type="line"/>
    </contour>
    <contour>
      <point x="290" y="412" type="line"/>
      <point x="344" y="412" type="line"/>
      <point x="344" y="670" type="line"/>
      <point x="350" y="670" type="line"/>
      <point x="367" y="412" type="line"/>
      <point x="457" y="412" type="line"/>
      <point x="475" y="670" type="line"/>
      <point x="481" y="670" type="line"/>
      <point x="481" y="412" type="line"/>
      <point x="535" y="412" type="line"/>
      <point x="535" y="700" type="line"/>
      <point x="431" y="700" type="line"/>
      <point x="415" y="448" type="line"/>
      <point x="409" y="448" type="line"/>
      <point x="394" y="700" type="line"/>
      <point x="290" y="700" type="line"/>
    </contour>
  </outline>
</glyph>
<glyph name="uni2126" format="1">
  <advance width="612"/>
  <unicode hex="2126"/>
  <outline>
    <contour>
      <point x="564" y="78" type="line"/>
      <point x="466" y="78" type="line"/>
      <point x="466" y="90" type="line"/>
      <point x="518" y="117"/>
      <point x="552" y="182"/>
      <point x="552" y="284" type="curve" smooth="yes"/>
      <point x="552" y="434" type="line" smooth="yes"/>
      <point x="552" y="608"/>
      <point x="454" y="714"/>
      <point x="306" y="714" type="curve" smooth="yes"/>
      <point x="158" y="714"/>
      <point x="60" y="608"/>
      <point x="60" y="434" type="curve" smooth="yes"/>
      <point x="60" y="284" type="line" smooth="yes"/>
      <point x="60" y="182"/>
      <point x="94" y="117"/>
      <point x="146" y="90" type="curve"/>
      <point x="146" y="78" type="line"/>
      <point x="48" y="78" type="line"/>
      <point x="48" y="0" type="line"/>
      <point x="264" y="0" type="line"/>
      <point x="264" y="84" type="line"/>
      <point x="184" y="110"/>
      <point x="144" y="164"/>
      <point x="144" y="290" type="curve" smooth="yes"/>
      <point x="144" y="426" type="line" smooth="yes"/>
      <point x="144" y="548"/>
      <point x="198" y="636"/>
      <point x="306" y="636" type="curve" smooth="yes"/>
      <point x="414" y="636"/>
      <point x="468" y="548"/>
      <point x="468" y="426" type="curve" smooth="yes"/>
      <point x="468" y="290" type="line" smooth="yes"/>
      <point x="468" y="164"/>
      <point x="428" y="110"/>
      <point x="348" y="84" type="curve"/>
      <point x="348" y="0" type="line"/>
      <point x="564" y="0" type="line"/>
    </contour>
  </outline>
</glyph>
<glyph name="uni2196" format="1">
  <advance width="612"/>
  <unicode hex="2196"/>
  <outline>
    <contour>
      <point x="81" y="291" type="line"/>
      <point x="153" y="291" type="line"/>
      <point x="153" y="415" type="line"/>
      <point x="138" y="470" type="line"/>
      <point x="150" y="475" type="line"/>
      <point x="172" y="433" type="line"/>
      <point x="471" y="134" type="line"/>
      <point x="522" y="185" type="line"/>
      <point x="223" y="484" type="line"/>
      <point x="181" y="506" type="line"/>
      <point x="186" y="518" type="line"/>
      <point x="241" y="503" type="line"/>
      <point x="365" y="503" type="line"/>
      <point x="365" y="575" type="line"/>
      <point x="149" y="575" type="line"/>
      <point x="81" y="507" type="line"/>
    </contour>
  </outline>
</glyph>
<glyph name="uni2219" format="1">
  <advance width="612"/>
  <unicode hex="2219"/>
  <outline>
    <contour>
      <point x="212" y="350" type="curve" smooth="yes"/>
      <point x="212" y="299"/>
      <point x="255" y="256"/>
      <point x="306" y="256" type="curve" smooth="yes"/>
      <point x="357" y="256"/>
      <point x="400" y="299"/>
      <point x="400" y="350" type="curve" smooth="yes"/>
      <point x="400" y="401"/>
      <point x="357" y="444"/>
      <point x="306" y="444" type="curve" smooth="yes"/>
      <point x="255" y="444"/>
      <point x="212" y="401"/>
    </contour>
  </outline>
</glyph>
<glyph name="radical" format="1">
  <advance width="612"/>
  <unicode hex="221A"/>
  <outline>
    <contour>
      <point x="43" y="314" type="line"/>
      <point x="139" y="314" type="line"/>
      <point x="215" y="0" type="line"/>
      <point x="371" y="0" type="line"/>
      <point x="576" y="856" type="line"/>
      <point x="495" y="856" type="line"/>
      <point x="299" y="36" type="line"/>
      <point x="287" y="36" type="line"/>
      <point x="203" y="386" type="line"/>
      <point x="43" y="386" type="line"/>
    </contour>
  </outline>
</glyph>
<glyph name="infinity" format="1">
  <advance width="612"/>
  <unicode hex="221E"/>
  <outline>
    <contour>
      <point x="52" y="350" type="curve"/>
      <point x="52" y="270"/>
      <point x="118" y="205"/>
      <point x="194" y="205" type="curve" smooth="yes"/>
      <point x="240" y="205"/>
      <point x="277" y="228"/>
      <point x="297" y="259" type="curve"/>
      <point x="315" y="259" type="line"/>
      <point x="335" y="228"/>
      <point x="372" y="205"/>
      <point x="418" y="205" type="curve" smooth="yes"/>
      <point x="494" y="205"/>
      <point x="560" y="270"/>
      <point x="560" y="350" type="curve" smooth="yes"/>
      <point x="560" y="430"/>
      <point x="494" y="495"/>
      <point x="418" y="495" type="curve" smooth="yes"/>
      <point x="372" y="495"/>
      <point x="335" y="472"/>
      <point x="315" y="441" type="curve"/>
      <point x="297" y="441" type="line"/>
      <point x="277" y="472"/>
      <point x="240" y="495"/>
      <point x="194" y="495" type="curve" smooth="yes"/>
      <point x="118" y="495"/>
      <point x="52" y="430"/>
    </contour>
    <contour>
      <point x="270" y="350" type="curve"/>
      <point x="270" y="310"/>
      <point x="237" y="277"/>
      <point x="197" y="277" type="curve" smooth="yes"/>
      <point x="157" y="277"/>
      <point x="124" y="310"/>
      <point x="124" y="350" type="curve" smooth="yes"/>
      <point x="124" y="390"/>
      <point x="157" y="423"/>
      <point x="197" y="423" type="curve" smooth="yes"/>
      <point x="237" y="423"/>
      <point x="270" y="390"/>
    </contour>
    <contour>
      <point x="342" y="350" type="curve"/>
      <point x="342" y="390"/>
      <point x="375" y="423"/>
      <point x="415" y="423" type="curve" smooth="yes"/>
      <point x="455" y="423"/>
      <point x="488" y="390"/>
      <point x="488" y="350" type="curve" smooth="yes"/>
      <point x="488" y="310"/>
      <point x="455" y="277"/>
      <point x="415" y="277" type="curve" smooth="yes"/>
      <point x="375" y="277"/>
      <point x="342" y="310"/>
    </contour>
  </outline>
</glyph>
<glyph name="integral" format="1">
  <advance width="612"/>
  <unicode hex="222B"/>
  <outline>
    <contour>
      <point x="345" y="598" type="line" smooth="yes"/>
      <point x="345" y="617"/>
      <point x="353" y="628"/>
      <point x="372" y="628" type="curve" smooth="yes"/>
      <point x="465" y="628" type="line"/>
      <point x="465" y="700" type="line"/>
      <point x="344" y="700" type="line" smooth="yes"/>
      <point x="299" y="700"/>
      <point x="267" y="667"/>
      <point x="267" y="622" type="curve" smooth="yes"/>
      <point x="267" y="-98" type="line" smooth="yes"/>
      <point x="267" y="-117"/>
      <point x="259" y="-128"/>
      <point x="240" y="-128" type="curve" smooth="yes"/>
      <point x="147" y="-128" type="line"/>
      <point x="147" y="-200" type="line"/>
      <point x="268" y="-200" type="line" smooth="yes"/>
      <point x="313" y="-200"/>
      <point x="345" y="-167"/>
      <point x="345" y="-122" type="curve" smooth="yes"/>
    </contour>
  </outline>
</glyph>
<glyph name="approxequal" format="1">
  <advance width="612"/>
  <unicode hex="2248"/>
  <outline>
    <contour>
      <point x="338" y="252" type="curve" smooth="yes"/>
      <point x="324" y="300"/>
      <point x="305" y="331"/>
      <point x="254" y="331" type="curve" smooth="yes"/>
      <point x="226" y="331"/>
      <point x="206" y="320"/>
      <point x="186" y="304" type="curve" smooth="yes"/>
      <point x="85" y="227" type="line"/>
      <point x="124" y="177" type="line"/>
      <point x="227" y="253" type="line" smooth="yes"/>
      <point x="237" y="261"/>
      <point x="243" y="264"/>
      <point x="250" y="264" type="curve" smooth="yes"/>
      <point x="266" y="264"/>
      <point x="270" y="248"/>
      <point x="273" y="236" type="curve" smooth="yes"/>
      <point x="287" y="190"/>
      <point x="305" y="160"/>
      <point x="357" y="160" type="curve" smooth="yes"/>
      <point x="388" y="160"/>
      <point x="407" y="173"/>
      <point x="425" y="187" type="curve" smooth="yes"/>
      <point x="527" y="265" type="line"/>
      <point x="488" y="315" type="line"/>
      <point x="381" y="236" type="line" smooth="yes"/>
      <point x="373" y="230"/>
      <point x="368" y="227"/>
      <point x="361" y="227" type="curve" smooth="yes"/>
      <point x="347" y="227"/>
      <point x="341" y="241"/>
    </contour>
    <contour>
      <point x="338" y="423" type="curve" smooth="yes"/>
      <point x="324" y="471"/>
      <point x="305" y="502"/>
      <point x="254" y="502" type="curve" smooth="yes"/>
      <point x="226" y="502"/>
      <point x="206" y="491"/>
      <point x="186" y="475" type="curve" smooth="yes"/>
      <point x="85" y="398" type="line"/>
      <point x="124" y="348" type="line"/>
      <point x="227" y="424" type="line" smooth="yes"/>
      <point x="237" y="432"/>
      <point x="243" y="435"/>
      <point x="250" y="435" type="curve" smooth="yes"/>
      <point x="266" y="435"/>
      <point x="270" y="419"/>
      <point x="273" y="407" type="curve" smooth="yes"/>
      <point x="287" y="361"/>
      <point x="305" y="331"/>
      <point x="357" y="331" type="curve" smooth="yes"/>
      <point x="388" y="331"/>
      <point x="407" y="344"/>
      <point x="425" y="358" type="curve" smooth="yes"/>
      <point x="527" y="436" type="line"/>
      <point x="488" y="486" type="line"/>
      <point x="381" y="407" type="line" smooth="yes"/>
      <point x="373" y="401"/>
      <point x="368" y="398"/>
      <point x="361" y="398" type="curve" smooth="yes"/>
      <point x="347" y="398"/>
      <point x="341" y="412"/>
    </contour>
  </outline>
</glyph>
<glyph name="fi" format="1">
  <advance width="612"/>
  <unicode hex="FB01"/>
  <outline>
    <contour>
      <point x="384" y="644" type="curve" smooth="yes"/>
      <point x="384" y="606"/>
      <point x="416" y="574"/>
      <point x="454" y="574" type="curve" smooth="yes"/>
      <point x="492" y="574"/>
      <point x="524" y="606"/>
      <point x="524" y="644" type="curve" smooth="yes"/>
      <point x="524" y="682"/>
      <point x="492" y="714"/>
      <point x="454" y="714" type="curve" smooth="yes"/>
      <point x="416" y="714"/>
      <point x="384" y="682"/>
    </contour>
    <contour>
      <point x="494" y="0" type="line"/>
      <point x="494" y="496" type="line"/>
      <point x="243" y="496" type="line"/>
      <point x="243" y="578" type="line" smooth="yes"/>
      <point x="243" y="597"/>
      <point x="251" y="608"/>
      <point x="270" y="608" type="curve" smooth="yes"/>
      <point x="348" y="608" type="line"/>
      <point x="348" y="680" type="line"/>
      <point x="242" y="680" type="line" smooth="yes"/>
      <point x="197" y="680"/>
      <point x="165" y="647"/>
      <point x="165" y="602" type="curve" smooth="yes"/>
      <point x="165" y="496" type="line"/>
      <point x="48" y="496" type="line"/>
      <point x="48" y="424" type="line"/>
      <point x="165" y="424" type="line"/>
      <point x="165" y="0" type="line"/>
      <point x="243" y="0" type="line"/>
      <point x="243" y="424" type="line"/>
      <point x="416" y="424" type="line"/>
      <point x="416" y="0" type="line"/>
    </contour>
  </outline>
</glyph>
<glyph name="fl" format="1">
  <advance width="612"/>
  <unicode hex="FB02"/>
  <outline>
    <contour>
      <point x="416" y="0" type="line"/>
      <point x="494" y="0" type="line"/>
      <point x="494" y="700" type="line"/>
      <point x="242" y="700" type="line" smooth="yes"/>
      <point x="197" y="700"/>
      <point x="165" y="667"/>
      <point x="165" y="622" type="curve" smooth="yes"/>
      <point x="165" y="496" type="line"/>
      <point x="48" y="496" type="line"/>
      <point x="48" y="424" type="line"/>
      <point x="165" y="424" type="line"/>
      <point x="165" y="0" type="line"/>
      <point x="243" y="0" type="line"/>
      <point x="243" y="424" type="line"/>
      <point x="368" y="424" type="line"/>
      <point x="368" y="496" type="line"/>
      <point x="243" y="496" type="line"/>
      <point x="243" y="598" type="line" smooth="yes"/>
      <point x="243" y="617"/>
      <point x="251" y="628"/>
      <point x="270" y="628" type="curve" smooth="yes"/>
      <point x="416" y="628" type="line"/>
    </contour>
  </outline>
</glyph>
<glyph name="B.alt" format="1">
  <advance width="612"/>
  <outline>
    <contour>
      <point x="90" y="0" type="line"/>
      <point x="325" y="0" type="line" smooth="yes"/>
      <point x="459" y="0"/>
      <point x="532" y="78"/>
      <point x="532" y="183" type="curve" smooth="yes"/>
      <point x="532" y="195" type="line" smooth="yes"/>
      <point x="532" y="270"/>
      <point x="480" y="327"/>
      <point x="414" y="345" type="curve"/>
      <point x="414" y="357" type="line"/>
      <point x="480" y="375"/>
      <point x="532" y="430"/>
      <point x="532" y="506" type="curve" smooth="yes"/>
      <point x="532" y="518" type="line" smooth="yes"/>
      <point x="532" y="622"/>
      <point x="459" y="700"/>
      <point x="325" y="700" type="curve" smooth="yes"/>
      <point x="90" y="700" type="line"/>
    </contour>
    <contour>
      <point x="174" y="312" type="line"/>
      <point x="322" y="312" type="line" smooth="yes"/>
      <point x="402" y="312"/>
      <point x="452" y="266"/>
      <point x="452" y="195" type="curve" smooth="yes"/>
      <point x="452" y="189" type="line" smooth="yes"/>
      <point x="452" y="120"/>
      <point x="397" y="78"/>
      <point x="319" y="78" type="curve" smooth="yes"/>
      <point x="174" y="78" type="line"/>
    </contour>
    <contour>
      <point x="174" y="622" type="line"/>
      <point x="319" y="622" type="line" smooth="yes"/>
      <point x="397" y="622"/>
      <point x="452" y="580"/>
      <point x="452" y="512" type="curve" smooth="yes"/>
      <point x="452" y="506" type="line" smooth="yes"/>
      <point x="452" y="434"/>
      <point x="402" y="390"/>
      <point x="322" y="390" type="curve" smooth="yes"/>
      <point x="174" y="390" type="line"/>
    </contour>
  </outline>
</glyph>
<glyph name="Dcroat.alt" format="1">
  <advance width="612"/>
  <outline>
    <contour>
      <point x="48" y="311" type="line"/>
      <point x="108" y="311" type="line"/>
      <point x="108" y="0" type="line"/>
      <point x="290" y="0" type="line" smooth="yes"/>
      <point x="462" y="0"/>
      <point x="540" y="80"/>
      <point x="540" y="260" type="curve" smooth="yes"/>
      <point x="540" y="440" type="line" smooth="yes"/>
      <point x="540" y="620"/>
      <point x="462" y="700"/>
      <point x="290" y="700" type="curve" smooth="yes"/>
      <point x="108" y="700" type="line"/>
      <point x="108" y="389" type="line"/>
      <point x="48" y="389" type="line"/>
    </contour>
    <contour>
      <point x="278" y="78" type="curve"/>
      <point x="192" y="78" type="line"/>
      <point x="192" y="311" type="line"/>
      <point x="300" y="311" type="line"/>
      <point x="300" y="389" type="line"/>
      <point x="192" y="389" type="line"/>
      <point x="192" y="622" type="line"/>
      <point x="278" y="622" type="line" smooth="yes"/>
      <point x="400" y="622"/>
      <point x="456" y="580"/>
      <point x="456" y="434" type="curve" smooth="yes"/>
      <point x="456" y="266" type="line" smooth="yes"/>
      <point x="456" y="120"/>
      <point x="400" y="78"/>
    </contour>
  </outline>
</glyph>
<glyph name="Delta" format="1">
  <advance width="612"/>
  <outline>
    <contour>
      <point x="597" y="0" type="line"/>
      <point x="385" y="700" type="line"/>
      <point x="227" y="700" type="line"/>
      <point x="15" y="0" type="line"/>
    </contour>
    <contour>
      <point x="300" y="663" type="line"/>
      <point x="312" y="663" type="line"/>
      <point x="484" y="78" type="line"/>
      <point x="128" y="78" type="line"/>
    </contour>
  </outline>
</glyph>
<glyph name="IJ.alt" format="1">
  <advance width="612"/>
  <outline>
    <contour>
      <point x="90" y="342" type="line"/>
      <point x="174" y="342" type="line"/>
      <point x="174" y="700" type="line"/>
      <point x="90" y="700" type="line"/>
    </contour>
    <contour>
      <point x="522" y="700" type="line"/>
      <point x="438" y="700" type="line"/>
      <point x="438" y="210" type="line" smooth="yes"/>
      <point x="438" y="122"/>
      <point x="405" y="64"/>
      <point x="312" y="64" type="curve" smooth="yes"/>
      <point x="219" y="64"/>
      <point x="174" y="122"/>
      <point x="174" y="210" type="curve" smooth="yes"/>
      <point x="174" y="264" type="line"/>
      <point x="90" y="264" type="line"/>
      <point x="90" y="210" type="line" smooth="yes"/>
      <point x="90" y="66"/>
      <point x="176" y="-14"/>
      <point x="312" y="-14" type="curve" smooth="yes"/>
      <point x="448" y="-14"/>
      <point x="522" y="66"/>
      <point x="522" y="210" type="curve"/>
    </contour>
  </outline>
</glyph>
<glyph name="IJacute.alt" format="1">
  <advance width="612"/>
  <outline>
    <contour>
      <point x="73" y="342" type="line"/>
      <point x="157" y="342" type="line"/>
      <point x="157" y="700" type="line"/>
      <point x="73" y="700" type="line"/>
    </contour>
    <contour>
      <point x="505" y="700" type="line"/>
      <point x="421" y="700" type="line"/>
      <point x="421" y="210" type="line" smooth="yes"/>
      <point x="421" y="122"/>
      <point x="388" y="64"/>
      <point x="295" y="64" type="curve" smooth="yes"/>
      <point x="202" y="64"/>
      <point x="157" y="122"/>
      <point x="157" y="210" type="curve" smooth="yes"/>
      <point x="157" y="264" type="line"/>
      <point x="73" y="264" type="line"/>
      <point x="73" y="210" type="line" smooth="yes"/>
      <point x="73" y="66"/>
      <point x="159" y="-14"/>
      <point x="295" y="-14" type="curve" smooth="yes"/>
      <point x="431" y="-14"/>
      <point x="505" y="66"/>
      <point x="505" y="210" type="curve" smooth="yes"/>
    </contour>
    <component base="acute" xOffset="-151" yOffset="204"/>
    <component base="acute" xOffset="197" yOffset="204"/>
  </outline>
</glyph>
<glyph name="J.alt" format="1">
  <advance width="612"/>
  <outline>
    <contour>
      <point x="514" y="700" type="line"/>
      <point x="430" y="700" type="line"/>
      <point x="430" y="210" type="line" smooth="yes"/>
      <point x="430" y="122"/>
      <point x="397" y="62"/>
      <point x="304" y="62" type="curve" smooth="yes"/>
      <point x="211" y="62"/>
      <point x="166" y="122"/>
      <point x="166" y="210" type="curve" smooth="yes"/>
      <point x="166" y="264" type="line"/>
      <point x="82" y="264" type="line"/>
      <point x="82" y="210" type="line" smooth="yes"/>
      <point x="82" y="66"/>
      <point x="168" y="-14"/>
      <point x="304" y="-14" type="curve" smooth="yes"/>
      <point x="440" y="-14"/>
      <point x="514" y="66"/>
      <point x="514" y="210" type="curve"/>
    </contour>
  </outline>
</glyph>
<glyph name="a.alt" format="1">
  <advance width="612"/>
  <outline>
    <contour>
      <point x="420" y="78" type="line" smooth="yes"/>
      <point x="420" y="33"/>
      <point x="452" y="0"/>
      <point x="497" y="0" type="curve" smooth="yes"/>
      <point x="550" y="0" type="line"/>
      <point x="550" y="72" type="line"/>
      <point x="525" y="72" type="line" smooth="yes"/>
      <point x="506" y="72"/>
      <point x="498" y="83"/>
      <point x="498" y="102" type="curve" smooth="yes"/>
      <point x="498" y="321" type="line" smooth="yes"/>
      <point x="498" y="430"/>
      <point x="414" y="510"/>
      <point x="292" y="510" type="curve" smooth="yes"/>
      <point x="174" y="510"/>
      <point x="108" y="435"/>
      <point x="93" y="348" type="curve"/>
      <point x="167" y="330" type="line"/>
      <point x="178" y="400"/>
      <point x="223" y="438"/>
      <point x="292" y="438" type="curve" smooth="yes"/>
      <point x="382" y="438"/>
      <point x="420" y="378"/>
      <point x="420" y="320" type="curve" smooth="yes"/>
      <point x="420" y="300" type="line"/>
      <point x="257" y="300" type="line" smooth="yes"/>
      <point x="157" y="300"/>
      <point x="81" y="242"/>
      <point x="81" y="148" type="curve" smooth="yes"/>
      <point x="81" y="136" type="line" smooth="yes"/>
      <point x="81" y="54"/>
      <point x="145" y="-14"/>
      <point x="255" y="-14" type="curve" smooth="yes"/>
      <point x="331" y="-14"/>
      <point x="382" y="24"/>
      <point x="408" y="84" type="curve"/>
      <point x="420" y="84" type="line"/>
    </contour>
    <contour>
      <point x="262" y="58" type="curve" smooth="yes"/>
      <point x="196" y="58"/>
      <point x="158" y="93"/>
      <point x="158" y="142" type="curve" smooth="yes"/>
      <point x="158" y="200"/>
      <point x="199" y="228"/>
      <point x="266" y="228" type="curve" smooth="yes"/>
      <point x="419" y="228" type="line"/>
      <point x="419" y="216" type="line" smooth="yes"/>
      <point x="419" y="122"/>
      <point x="364" y="58"/>
    </contour>
  </outline>
</glyph>
<glyph name="aogonek.alt" format="1">
  <advance width="612"/>
  <outline>
    <contour>
      <point x="420" y="78" type="line" smooth="yes"/>
      <point x="420" y="57"/>
      <point x="427" y="38"/>
      <point x="439" y="25" type="curve"/>
      <point x="419" y="-66" type="line" smooth="yes"/>
      <point x="417" y="-76"/>
      <point x="416" y="-83"/>
      <point x="416" y="-90" type="curve" smooth="yes"/>
      <point x="416" y="-139"/>
      <point x="455" y="-164"/>
      <point x="494" y="-164" type="curve" smooth="yes"/>
      <point x="550" y="-164" type="line"/>
      <point x="550" y="-98" type="line"/>
      <point x="508" y="-98" type="line" smooth="yes"/>
      <point x="494" y="-98"/>
      <point x="485" y="-90"/>
      <point x="485" y="-76" type="curve" smooth="yes"/>
      <point x="485" y="-75"/>
      <point x="485" y="-73"/>
      <point x="486" y="-68" type="curve" smooth="yes"/>
      <point x="502" y="0" type="line"/>
      <point x="550" y="0" type="line"/>
      <point x="550" y="72" type="line"/>
      <point x="525" y="72" type="line" smooth="yes"/>
      <point x="506" y="72"/>
      <point x="498" y="83"/>
      <point x="498" y="102" type="curve" smooth="yes"/>
      <point x="498" y="321" type="line" smooth="yes"/>
      <point x="498" y="430"/>
      <point x="414" y="510"/>
      <point x="292" y="510" type="curve" smooth="yes"/>
      <point x="174" y="510"/>
      <point x="108" y="435"/>
      <point x="93" y="348" type="curve"/>
      <point x="167" y="330" type="line"/>
      <point x="178" y="400"/>
      <point x="223" y="438"/>
      <point x="292" y="438" type="curve" smooth="yes"/>
      <point x="382" y="438"/>
      <point x="420" y="378"/>
      <point x="420" y="320" type="curve" smooth="yes"/>
      <point x="420" y="300" type="line"/>
      <point x="257" y="300" type="line" smooth="yes"/>
      <point x="157" y="300"/>
      <point x="81" y="242"/>
      <point x="81" y="148" type="curve" smooth="yes"/>
      <point x="81" y="136" type="line" smooth="yes"/>
      <point x="81" y="54"/>
      <point x="145" y="-14"/>
      <point x="255" y="-14" type="curve" smooth="yes"/>
      <point x="331" y="-14"/>
      <point x="382" y="24"/>
      <point x="408" y="84" type="curve"/>
      <point x="420" y="84" type="line"/>
    </contour>
    <contour>
      <point x="262" y="58" type="curve" smooth="yes"/>
      <point x="196" y="58"/>
      <point x="158" y="93"/>
      <point x="158" y="142" type="curve" smooth="yes"/>
      <point x="158" y="200"/>
      <point x="199" y="228"/>
      <point x="266" y="228" type="curve" smooth="yes"/>
      <point x="419" y="228" type="line"/>
      <point x="419" y="216" type="line" smooth="yes"/>
      <point x="419" y="122"/>
      <point x="364" y="58"/>
    </contour>
  </outline>
</glyph>
<glyph name="dollar.cap" format="1">
  <advance width="612"/>
  <outline>
    <contour>
      <point x="471" y="462" type="line"/>
      <point x="555" y="462" type="line"/>
      <point x="555" y="504" type="line" smooth="yes"/>
      <point x="555" y="605"/>
      <point x="481" y="694"/>
      <point x="352" y="711" type="curve"/>
      <point x="352" y="792" type="line"/>
      <point x="274" y="792" type="line"/>
      <point x="274" y="712" type="line"/>
      <point x="155" y="701"/>
      <point x="75" y="628"/>
      <point x="75" y="528" type="curve" smooth="yes"/>
      <point x="75" y="516" type="line" smooth="yes"/>
      <point x="75" y="405"/>
      <point x="152" y="350"/>
      <point x="274" y="327" type="curve"/>
      <point x="274" y="67" type="line"/>
      <point x="182" y="82"/>
      <point x="129" y="142"/>
      <point x="129" y="248" type="curve" smooth="yes"/>
      <point x="129" y="272" type="line"/>
      <point x="45" y="272" type="line"/>
      <point x="45" y="242" type="line" smooth="yes"/>
      <point x="45" y="109"/>
      <point x="124" y="6"/>
      <point x="274" y="-11" type="curve"/>
      <point x="274" y="-92" type="line"/>
      <point x="352" y="-92" type="line"/>
      <point x="352" y="-12" type="line"/>
      <point x="488" y="-2"/>
      <point x="561" y="77"/>
      <point x="561" y="190" type="curve" smooth="yes"/>
      <point x="561" y="202" type="line" smooth="yes"/>
      <point x="561" y="307"/>
      <point x="494" y="371"/>
      <point x="352" y="393" type="curve"/>
      <point x="352" y="631" type="line"/>
      <point x="419" y="617"/>
      <point x="471" y="572"/>
      <point x="471" y="498" type="curve" smooth="yes"/>
    </contour>
    <contour>
      <point x="477" y="196" type="curve"/>
      <point x="477" y="190" type="line" smooth="yes"/>
      <point x="477" y="123"/>
      <point x="434" y="75"/>
      <point x="352" y="66" type="curve"/>
      <point x="352" y="313" type="line"/>
      <point x="439" y="294"/>
      <point x="477" y="258"/>
    </contour>
    <contour>
      <point x="159" y="519" type="curve"/>
      <point x="159" y="525" type="line" smooth="yes"/>
      <point x="159" y="586"/>
      <point x="211" y="624"/>
      <point x="274" y="634" type="curve"/>
      <point x="274" y="408" type="line"/>
      <point x="197" y="428"/>
      <point x="159" y="459"/>
    </contour>
  </outline>
</glyph>
<glyph name="five.tosn" format="1">
  <advance width="612"/>
  <outline>
    <contour>
      <point x="84" y="156" type="line"/>
      <point x="84" y="496" type="line"/>
      <point x="516" y="496" type="line"/>
      <point x="516" y="418" type="line"/>
      <point x="166" y="418" type="line"/>
      <point x="166" y="198" type="line"/>
      <point x="178" y="198" type="line"/>
      <point x="203" y="253"/>
      <point x="254" y="300"/>
      <point x="345" y="300" type="curve" smooth="yes"/>
      <point x="474" y="300"/>
      <point x="558" y="200"/>
      <point x="558" y="68" type="curve" smooth="yes"/>
      <point x="558" y="56" type="line" smooth="yes"/>
      <point x="558" y="-80"/>
      <point x="480" y="-200"/>
      <point x="318" y="-200" type="curve" smooth="yes"/>
      <point x="158" y="-200"/>
      <point x="76" y="-100"/>
      <point x="70" y="30" type="curve"/>
      <point x="154" y="42" type="line"/>
      <point x="158" y="-64"/>
      <point x="218" y="-122"/>
      <point x="320" y="-122" type="curve" smooth="yes"/>
      <point x="428" y="-122"/>
      <point x="474" y="-34"/>
      <point x="474" y="60" type="curve" smooth="yes"/>
      <point x="474" y="152"/>
      <point x="428" y="222"/>
      <point x="341" y="222" type="curve" smooth="yes"/>
      <point x="282" y="222"/>
      <point x="251" y="185"/>
      <point x="242" y="156" type="curve"/>
    </contour>
  </outline>
</glyph>
<glyph name="g.alt" format="1">
  <advance width="612"/>
  <outline>
    <contour>
      <point x="256" y="72" type="line" smooth="yes"/>
      <point x="208" y="72"/>
      <point x="180" y="86"/>
      <point x="180" y="126" type="curve" smooth="yes"/>
      <point x="180" y="142"/>
      <point x="189" y="159"/>
      <point x="199" y="165" type="curve"/>
      <point x="229" y="148"/>
      <point x="259" y="138"/>
      <point x="307" y="138" type="curve" smooth="yes"/>
      <point x="418" y="138"/>
      <point x="496" y="212"/>
      <point x="496" y="310" type="curve" smooth="yes"/>
      <point x="496" y="354"/>
      <point x="479" y="394"/>
      <point x="449" y="411" type="curve"/>
      <point x="449" y="423" type="line"/>
      <point x="533" y="423" type="line"/>
      <point x="533" y="496" type="line"/>
      <point x="378" y="496" type="line"/>
      <point x="360" y="504"/>
      <point x="330" y="510"/>
      <point x="305" y="510" type="curve" smooth="yes"/>
      <point x="197" y="510"/>
      <point x="113" y="437"/>
      <point x="113" y="330" type="curve" smooth="yes"/>
      <point x="113" y="318" type="line" smooth="yes"/>
      <point x="113" y="268"/>
      <point x="136" y="222"/>
      <point x="163" y="196" type="curve"/>
      <point x="163" y="184" type="line"/>
      <point x="141" y="175"/>
      <point x="106" y="150"/>
      <point x="106" y="103" type="curve" smooth="yes"/>
      <point x="106" y="60"/>
      <point x="130" y="40"/>
      <point x="154" y="29" type="curve"/>
      <point x="154" y="17" type="line"/>
      <point x="124" y="4"/>
      <point x="98" y="-33"/>
      <point x="98" y="-77" type="curve" smooth="yes"/>
      <point x="98" y="-150"/>
      <point x="150" y="-200"/>
      <point x="251" y="-200" type="curve" smooth="yes"/>
      <point x="378" y="-200" type="line" smooth="yes"/>
      <point x="480" y="-200"/>
      <point x="533" y="-140"/>
      <point x="533" y="-68" type="curve" smooth="yes"/>
      <point x="533" y="-62" type="line" smooth="yes"/>
      <point x="533" y="14"/>
      <point x="480" y="72"/>
      <point x="378" y="72" type="curve" smooth="yes"/>
    </contour>
    <contour>
      <point x="305" y="437" type="curve" smooth="yes"/>
      <point x="368" y="437"/>
      <point x="422" y="396"/>
      <point x="422" y="327" type="curve" smooth="yes"/>
      <point x="422" y="321" type="line" smooth="yes"/>
      <point x="422" y="253"/>
      <point x="372" y="211"/>
      <point x="305" y="211" type="curve" smooth="yes"/>
      <point x="239" y="211"/>
      <point x="188" y="253"/>
      <point x="188" y="321" type="curve" smooth="yes"/>
      <point x="188" y="327" type="line" smooth="yes"/>
      <point x="188" y="396"/>
      <point x="243" y="437"/>
    </contour>
    <contour>
      <point x="380" y="0" type="line" smooth="yes"/>
      <point x="424" y="0"/>
      <point x="455" y="-23"/>
      <point x="455" y="-64" type="curve" smooth="yes"/>
      <point x="455" y="-105"/>
      <point x="424" y="-128"/>
      <point x="380" y="-128" type="curve" smooth="yes"/>
      <point x="251" y="-128" type="line" smooth="yes"/>
      <point x="207" y="-128"/>
      <point x="176" y="-105"/>
      <point x="176" y="-64" type="curve" smooth="yes"/>
      <point x="176" y="-23"/>
      <point x="207" y="0"/>
      <point x="251" y="0" type="curve" smooth="yes"/>
    </contour>
  </outline>
</glyph>
<glyph name="i.alt" format="1">
  <advance width="612"/>
  <outline>
    <contour>
      <point x="258" y="644" type="curve" smooth="yes"/>
      <point x="258" y="606"/>
      <point x="290" y="574"/>
      <point x="328" y="574" type="curve" smooth="yes"/>
      <point x="366" y="574"/>
      <point x="398" y="606"/>
      <point x="398" y="644" type="curve" smooth="yes"/>
      <point x="398" y="682"/>
      <point x="366" y="714"/>
      <point x="328" y="714" type="curve" smooth="yes"/>
      <point x="290" y="714"/>
      <point x="258" y="682"/>
    </contour>
    <contour>
      <point x="368" y="0" type="line"/>
      <point x="368" y="496" type="line"/>
      <point x="120" y="496" type="line"/>
      <point x="120" y="424" type="line"/>
      <point x="290" y="424" type="line"/>
      <point x="290" y="0" type="line"/>
    </contour>
  </outline>
</glyph>
<glyph name="imacron.alt" format="1">
  <advance width="612"/>
  <outline>
    <contour>
      <point x="368" y="636" type="line"/>
      <point x="120" y="636" type="line"/>
      <point x="120" y="570" type="line"/>
      <point x="368" y="570" type="line"/>
    </contour>
    <component base="dotlessi.alt"/>
  </outline>
</glyph>
<glyph name="iogonek.alt" format="1">
  <advance width="612"/>
  <outline>
    <contour>
      <point x="350" y="0" type="line"/>
      <point x="368" y="0" type="line"/>
      <point x="368" y="496" type="line"/>
      <point x="120" y="496" type="line"/>
      <point x="120" y="424" type="line"/>
      <point x="290" y="424" type="line"/>
      <point x="290" y="42" type="line"/>
      <point x="267" y="-66" type="line" smooth="yes"/>
      <point x="265" y="-76"/>
      <point x="264" y="-83"/>
      <point x="264" y="-90" type="curve" smooth="yes"/>
      <point x="264" y="-139"/>
      <point x="303" y="-164"/>
      <point x="342" y="-164" type="curve" smooth="yes"/>
      <point x="398" y="-164" type="line"/>
      <point x="398" y="-98" type="line"/>
      <point x="356" y="-98" type="line" smooth="yes"/>
      <point x="342" y="-98"/>
      <point x="333" y="-90"/>
      <point x="333" y="-76" type="curve" smooth="yes"/>
      <point x="333" y="-75"/>
      <point x="333" y="-73"/>
      <point x="334" y="-68" type="curve" smooth="yes"/>
    </contour>
    <contour>
      <point x="258" y="644" type="curve" smooth="yes"/>
      <point x="258" y="606"/>
      <point x="290" y="574"/>
      <point x="328" y="574" type="curve" smooth="yes"/>
      <point x="366" y="574"/>
      <point x="398" y="606"/>
      <point x="398" y="644" type="curve" smooth="yes"/>
      <point x="398" y="682"/>
      <point x="366" y="714"/>
      <point x="328" y="714" type="curve" smooth="yes"/>
      <point x="290" y="714"/>
      <point x="258" y="682"/>
    </contour>
  </outline>
</glyph>
<glyph name="jcircumflex.alt" format="1">
  <advance width="612"/>
  <outline>
    <contour>
      <point x="129" y="424" type="line"/>
      <point x="339" y="424" type="line"/>
      <point x="339" y="-200" type="line"/>
      <point x="417" y="-200" type="line"/>
      <point x="417" y="496" type="line"/>
      <point x="129" y="496" type="line"/>
    </contour>
    <component base="circumflex" xOffset="72"/>
  </outline>
</glyph>
<glyph name="l.alt" format="1">
  <advance width="612"/>
  <outline>
    <contour>
      <point x="348" y="0" type="line"/>
      <point x="348" y="700" type="line"/>
      <point x="100" y="700" type="line"/>
      <point x="100" y="628" type="line"/>
      <point x="270" y="628" type="line"/>
      <point x="270" y="0" type="line"/>
    </contour>
  </outline>
</glyph>
<glyph name="nine.tosn" format="1">
  <advance width="612"/>
  <outline>
    <contour>
      <point x="84" y="-13" type="line"/>
      <point x="98" y="-124"/>
      <point x="176" y="-200"/>
      <point x="310" y="-200" type="curve" smooth="yes"/>
      <point x="450" y="-200"/>
      <point x="549" y="-112"/>
      <point x="549" y="36" type="curve" smooth="yes"/>
      <point x="549" y="276" type="line" smooth="yes"/>
      <point x="549" y="412"/>
      <point x="447" y="510"/>
      <point x="306" y="510" type="curve" smooth="yes"/>
      <point x="165" y="510"/>
      <point x="63" y="411"/>
      <point x="63" y="273" type="curve" smooth="yes"/>
      <point x="63" y="261" type="line" smooth="yes"/>
      <point x="63" y="117"/>
      <point x="157" y="34"/>
      <point x="287" y="34" type="curve" smooth="yes"/>
      <point x="363" y="34"/>
      <point x="423" y="70"/>
      <point x="453" y="128" type="curve"/>
      <point x="465" y="128" type="line"/>
      <point x="465" y="36" type="line" smooth="yes"/>
      <point x="465" y="-66"/>
      <point x="402" y="-126"/>
      <point x="310" y="-126" type="curve" smooth="yes"/>
      <point x="220" y="-126"/>
      <point x="172" y="-78"/>
      <point x="163" y="0" type="curve"/>
    </contour>
    <contour>
      <point x="306" y="436" type="curve"/>
      <point x="403" y="436"/>
      <point x="465" y="367"/>
      <point x="465" y="278" type="curve" smooth="yes"/>
      <point x="465" y="259" type="line" smooth="yes"/>
      <point x="465" y="173"/>
      <point x="396" y="108"/>
      <point x="306" y="108" type="curve" smooth="yes"/>
      <point x="214" y="108"/>
      <point x="147" y="170"/>
      <point x="147" y="263" type="curve" smooth="yes"/>
      <point x="147" y="275" type="line" smooth="yes"/>
      <point x="147" y="367"/>
      <point x="209" y="436"/>
    </contour>
  </outline>
</glyph>
<glyph name="numbersign.cap" format="1">
  <advance width="612"/>
  <outline>
    <contour>
      <point x="452" y="0" type="line"/>
      <point x="452" y="204" type="line"/>
      <point x="584" y="204" type="line"/>
      <point x="584" y="276" type="line"/>
      <point x="452" y="276" type="line"/>
      <point x="452" y="424" type="line"/>
      <point x="584" y="424" type="line"/>
      <point x="584" y="496" type="line"/>
      <point x="452" y="496" type="line"/>
      <point x="452" y="700" type="line"/>
      <point x="380" y="700" type="line"/>
      <point x="380" y="496" type="line"/>
      <point x="232" y="496" type="line"/>
      <point x="232" y="700" type="line"/>
      <point x="160" y="700" type="line"/>
      <point x="160" y="496" type="line"/>
      <point x="28" y="496" type="line"/>
      <point x="28" y="424" type="line"/>
      <point x="160" y="424" type="line"/>
      <point x="160" y="276" type="line"/>
      <point x="28" y="276" type="line"/>
      <point x="28" y="204" type="line"/>
      <point x="160" y="204" type="line"/>
      <point x="160" y="0" type="line"/>
      <point x="232" y="0" type="line"/>
      <point x="232" y="204" type="line"/>
      <point x="380" y="204" type="line"/>
      <point x="380" y="0" type="line"/>
    </contour>
    <contour>
      <point x="380" y="276" type="line"/>
      <point x="232" y="276" type="line"/>
      <point x="232" y="424" type="line"/>
      <point x="380" y="424" type="line"/>
    </contour>
  </outline>
</glyph>
<glyph name="sterling.cap" format="1">
  <advance width="612"/>
  <outline>
    <contour>
      <point x="60" y="366" type="line"/>
      <point x="60" y="288" type="line"/>
      <point x="120" y="288" type="line"/>
      <point x="120" y="78" type="line"/>
      <point x="60" y="78" type="line"/>
      <point x="60" y="0" type="line"/>
      <point x="552" y="0" type="line"/>
      <point x="552" y="78" type="line"/>
      <point x="204" y="78" type="line"/>
      <point x="204" y="288" type="line"/>
      <point x="324" y="288" type="line"/>
      <point x="324" y="366" type="line"/>
      <point x="204" y="366" type="line"/>
      <point x="204" y="490" type="line" smooth="yes"/>
      <point x="204" y="576"/>
      <point x="247" y="636"/>
      <point x="332" y="636" type="curve" smooth="yes"/>
      <point x="425" y="636"/>
      <point x="468" y="578"/>
      <point x="468" y="490" type="curve" smooth="yes"/>
      <point x="468" y="436" type="line"/>
      <point x="552" y="436" type="line"/>
      <point x="552" y="490" type="line" smooth="yes"/>
      <point x="552" y="630"/>
      <point x="466" y="714"/>
      <point x="332" y="714" type="curve" smooth="yes"/>
      <point x="204" y="714"/>
      <point x="120" y="632"/>
      <point x="120" y="490" type="curve" smooth="yes"/>
      <point x="120" y="366" type="line"/>
    </contour>
  </outline>
</glyph>
<glyph name="three.tosn" format="1">
  <advance width="612"/>
  <outline>
    <contour>
      <point x="228" y="162" type="line"/>
      <point x="228" y="278" type="line"/>
      <point x="438" y="406" type="line"/>
      <point x="438" y="418" type="line"/>
      <point x="76" y="418" type="line"/>
      <point x="76" y="496" type="line"/>
      <point x="510" y="496" type="line"/>
      <point x="510" y="368" type="line"/>
      <point x="300" y="240" type="line"/>
      <point x="300" y="228" type="line"/>
      <point x="334" y="228" type="line" smooth="yes"/>
      <point x="437" y="228"/>
      <point x="528" y="157"/>
      <point x="528" y="30" type="curve" smooth="yes"/>
      <point x="528" y="18" type="line" smooth="yes"/>
      <point x="528" y="-104"/>
      <point x="440" y="-200"/>
      <point x="304" y="-200" type="curve" smooth="yes"/>
      <point x="144" y="-200"/>
      <point x="66" y="-98"/>
      <point x="58" y="28" type="curve"/>
      <point x="142" y="42" type="line"/>
      <point x="148" y="-62"/>
      <point x="202" y="-122"/>
      <point x="300" y="-122" type="curve" smooth="yes"/>
      <point x="388" y="-122"/>
      <point x="444" y="-64"/>
      <point x="444" y="25" type="curve" smooth="yes"/>
      <point x="444" y="112"/>
      <point x="396" y="162"/>
      <point x="316" y="162" type="curve" smooth="yes"/>
    </contour>
  </outline>
</glyph>
<glyph name="uni20A1.cap" format="1">
  <advance width="612"/>
  <outline>
    <contour>
      <point x="229" y="-76" type="line"/>
      <point x="305" y="-92" type="line"/>
      <point x="322" y="-13" type="line"/>
      <point x="469" y="-4"/>
      <point x="548" y="104"/>
      <point x="548" y="240" type="curve" smooth="yes"/>
      <point x="548" y="252" type="line"/>
      <point x="464" y="252" type="line"/>
      <point x="464" y="240" type="line" smooth="yes"/>
      <point x="464" y="159"/>
      <point x="426" y="84"/>
      <point x="339" y="67" type="curve"/>
      <point x="443" y="553" type="line"/>
      <point x="457" y="525"/>
      <point x="463" y="493"/>
      <point x="464" y="460" type="curve" smooth="yes"/>
      <point x="464" y="448" type="line"/>
      <point x="548" y="448" type="line"/>
      <point x="548" y="460" type="line" smooth="yes"/>
      <point x="548" y="541"/>
      <point x="520" y="612"/>
      <point x="466" y="658" type="curve"/>
      <point x="491" y="776" type="line"/>
      <point x="415" y="792" type="line"/>
      <point x="395" y="699" type="line"/>
      <point x="384" y="702"/>
      <point x="373" y="706"/>
      <point x="361" y="708" type="curve"/>
      <point x="376" y="776" type="line"/>
      <point x="300" y="792" type="line"/>
      <point x="283" y="713" type="line"/>
      <point x="140" y="705"/>
      <point x="56" y="600"/>
      <point x="56" y="428" type="curve" smooth="yes"/>
      <point x="56" y="272" type="line" smooth="yes"/>
      <point x="56" y="166"/>
      <point x="85" y="88"/>
      <point x="139" y="41" type="curve"/>
      <point x="114" y="-76" type="line"/>
      <point x="190" y="-92" type="line"/>
      <point x="210" y="0" type="line"/>
      <point x="243" y="-9" type="line"/>
    </contour>
    <contour>
      <point x="140" y="278" type="curve"/>
      <point x="140" y="422" type="line" smooth="yes"/>
      <point x="140" y="534"/>
      <point x="182" y="615"/>
      <point x="265" y="632" type="curve"/>
      <point x="162" y="151" type="line"/>
      <point x="147" y="185"/>
      <point x="140" y="227"/>
    </contour>
    <contour>
      <point x="227" y="80" type="curve"/>
      <point x="345" y="631" type="line"/>
      <point x="357" y="629"/>
      <point x="368" y="625"/>
      <point x="378" y="620" type="curve"/>
      <point x="260" y="68" type="line"/>
      <point x="248" y="71"/>
      <point x="237" y="75"/>
    </contour>
  </outline>
</glyph>
<glyph name="uni20B2.cap" format="1">
  <advance width="612"/>
  <outline>
    <contour>
      <point x="344" y="792" type="line"/>
      <point x="266" y="792" type="line"/>
      <point x="266" y="711" type="line"/>
      <point x="135" y="695"/>
      <point x="59" y="592"/>
      <point x="59" y="428" type="curve" smooth="yes"/>
      <point x="59" y="272" type="line" smooth="yes"/>
      <point x="59" y="101"/>
      <point x="136" y="2"/>
      <point x="266" y="-12" type="curve"/>
      <point x="266" y="-92" type="line"/>
      <point x="344" y="-92" type="line"/>
      <point x="344" y="-9" type="line"/>
      <point x="399" y="2"/>
      <point x="443" y="37"/>
      <point x="461" y="84" type="curve"/>
      <point x="473" y="84" type="line"/>
      <point x="473" y="0" type="line"/>
      <point x="551" y="0" type="line"/>
      <point x="551" y="336" type="line"/>
      <point x="344" y="336" type="line"/>
      <point x="344" y="632" type="line"/>
      <point x="430" y="614"/>
      <point x="467" y="540"/>
      <point x="467" y="460" type="curve" smooth="yes"/>
      <point x="467" y="448" type="line"/>
      <point x="551" y="448" type="line"/>
      <point x="551" y="460" type="line" smooth="yes"/>
      <point x="551" y="590"/>
      <point x="479" y="694"/>
      <point x="344" y="711" type="curve"/>
    </contour>
    <contour>
      <point x="143" y="278" type="curve"/>
      <point x="143" y="422" type="line" smooth="yes"/>
      <point x="143" y="533"/>
      <point x="184" y="612"/>
      <point x="266" y="631" type="curve"/>
      <point x="266" y="68" type="line"/>
      <point x="183" y="86"/>
      <point x="143" y="160"/>
    </contour>
    <contour>
      <point x="467" y="258" type="line"/>
      <point x="467" y="246" type="line" smooth="yes"/>
      <point x="467" y="147"/>
      <point x="421" y="83"/>
      <point x="344" y="67" type="curve"/>
      <point x="344" y="258" type="line"/>
    </contour>
  </outline>
</glyph>
<glyph name="uni20B9.cap" format="1">
  <advance width="612"/>
  <outline>
    <contour>
      <point x="56" y="455" type="line"/>
      <point x="409" y="455" type="line"/>
      <point x="398" y="397"/>
      <point x="352" y="366"/>
      <point x="272" y="366" type="curve" smooth="yes"/>
      <point x="56" y="366" type="line"/>
      <point x="56" y="288" type="line"/>
      <point x="334" y="288" type="line" smooth="yes"/>
      <point x="374" y="288"/>
      <point x="388" y="268"/>
      <point x="388" y="234" type="curve" smooth="yes"/>
      <point x="388" y="0" type="line"/>
      <point x="472" y="0" type="line"/>
      <point x="472" y="252" type="line" smooth="yes"/>
      <point x="472" y="298"/>
      <point x="448" y="324"/>
      <point x="408" y="330" type="curve"/>
      <point x="408" y="342" type="line"/>
      <point x="458" y="365"/>
      <point x="486" y="410"/>
      <point x="494" y="455" type="curve"/>
      <point x="568" y="455" type="line"/>
      <point x="568" y="533" type="line"/>
      <point x="495" y="533" type="line"/>
      <point x="491" y="566"/>
      <point x="475" y="592"/>
      <point x="449" y="610" type="curve"/>
      <point x="449" y="622" type="line"/>
      <point x="568" y="622" type="line"/>
      <point x="568" y="700" type="line"/>
      <point x="56" y="700" type="line"/>
      <point x="56" y="622" type="line"/>
      <point x="272" y="622" type="line" smooth="yes"/>
      <point x="352" y="622"/>
      <point x="397" y="587"/>
      <point x="409" y="533" type="curve"/>
      <point x="56" y="533" type="line"/>
    </contour>
  </outline>
</glyph>
<glyph name="yen.cap" format="1">
  <advance width="612"/>
  <outline>
    <contour>
      <point x="81" y="318" type="line"/>
      <point x="81" y="240" type="line"/>
      <point x="264" y="240" type="line"/>
      <point x="264" y="204" type="line"/>
      <point x="81" y="204" type="line"/>
      <point x="81" y="126" type="line"/>
      <point x="264" y="126" type="line"/>
      <point x="264" y="0" type="line"/>
      <point x="348" y="0" type="line"/>
      <point x="348" y="126" type="line"/>
      <point x="531" y="126" type="line"/>
      <point x="531" y="204" type="line"/>
      <point x="348" y="204" type="line"/>
      <point x="348" y="240" type="line"/>
      <point x="531" y="240" type="line"/>
      <point x="531" y="318" type="line"/>
      <point x="400" y="318" type="line"/>
      <point x="585" y="700" type="line"/>
      <point x="491" y="700" type="line"/>
      <point x="312" y="318" type="line"/>
      <point x="300" y="318" type="line"/>
      <point x="121" y="700" type="line"/>
      <point x="27" y="700" type="line"/>
      <point x="211" y="318" type="line"/>
    </contour>
  </outline>
</glyph>
<glyph name="zero.tosn" format="1">
  <advance width="612"/>
  <outline>
    <contour>
      <point x="242" y="248" type="curve"/>
      <point x="242" y="214"/>
      <point x="272" y="184"/>
      <point x="306" y="184" type="curve" smooth="yes"/>
      <point x="340" y="184"/>
      <point x="370" y="214"/>
      <point x="370" y="248" type="curve" smooth="yes"/>
      <point x="370" y="282"/>
      <point x="340" y="312"/>
      <point x="306" y="312" type="curve" smooth="yes"/>
      <point x="272" y="312"/>
      <point x="242" y="282"/>
    </contour>
    <contour>
      <point x="555" y="260" type="line"/>
      <point x="555" y="418"/>
      <point x="440" y="510"/>
      <point x="306" y="510" type="curve" smooth="yes"/>
      <point x="172" y="510"/>
      <point x="57" y="418"/>
      <point x="57" y="260" type="curve" smooth="yes"/>
      <point x="57" y="236" type="line" smooth="yes"/>
      <point x="57" y="78"/>
      <point x="172" y="-14"/>
      <point x="306" y="-14" type="curve" smooth="yes"/>
      <point x="440" y="-14"/>
      <point x="555" y="78"/>
      <point x="555" y="236" type="curve"/>
    </contour>
    <contour>
      <point x="306" y="60" type="curve"/>
      <point x="212" y="60"/>
      <point x="137" y="126"/>
      <point x="137" y="236" type="curve" smooth="yes"/>
      <point x="137" y="260" type="line" smooth="yes"/>
      <point x="137" y="370"/>
      <point x="212" y="436"/>
      <point x="306" y="436" type="curve" smooth="yes"/>
      <point x="400" y="436"/>
      <point x="475" y="370"/>
      <point x="475" y="260" type="curve" smooth="yes"/>
      <point x="475" y="236" type="line" smooth="yes"/>
      <point x="475" y="126"/>
      <point x="400" y="60"/>
    </contour>
  </outline>
</glyph>
